<?xml version="1.0" encoding="utf-8"?>
<!-- Generator: Adobe Illustrator 26.0.0, SVG Export Plug-In . SVG Version: 6.00 Build 0)  -->
<svg version="1.1" id="Livello_1" xmlns:serif="http://www.serif.com/"
	 xmlns="http://www.w3.org/2000/svg" xmlns:xlink="http://www.w3.org/1999/xlink" x="0px" y="0px" viewBox="0 0 595.3 595.3"
	 style="enable-background:new 0 0 595.3 595.3;" xml:space="preserve">
<style type="text/css">
	.st0{fill-rule:evenodd;clip-rule:evenodd;fill:#FFFFFF;}
</style>
<path class="st0" d="M522.5,0c40.1,0,72.7,32.6,72.7,72.7v449.8c0,40.1-32.6,72.7-72.7,72.7H398.8V371h77.4l14.7-96.1h-92.2v-62.3
	c0-26.3,12.9-51.9,54.2-51.9h41.9V78.9c0,0-38-6.5-74.4-6.5c-75.9,0-125.5,46-125.5,129.3v73.2h-84.4V371h84.4v224.3H72.7
	C32.6,595.3,0,562.7,0,522.5V72.7C0,32.6,32.6,0,72.7,0L522.5,0L522.5,0z"/>
</svg>
