<?xml version="1.0" encoding="utf-8"?>
<!-- Generator: Adobe Illustrator 26.0.0, SVG Export Plug-In . SVG Version: 6.00 Build 0)  -->
<svg version="1.1" id="Livello_1" xmlns:serif="http://www.serif.com/"
	 xmlns="http://www.w3.org/2000/svg" xmlns:xlink="http://www.w3.org/1999/xlink" x="0px" y="0px" viewBox="0 0 595.3 595.3"
	 style="enable-background:new 0 0 595.3 595.3;" xml:space="preserve">
<style type="text/css">
	.st0{fill:#FFFFFF;}
</style>
<g>
	<path class="st0" d="M297.6,0c-80.8,0-91,0.3-122.7,1.8c-31.7,1.4-53.3,6.5-72.2,13.8C83.1,23.2,66.5,33.4,50,50
		c-16.5,16.5-26.7,33.1-34.3,52.7c-7.4,18.9-12.4,40.6-13.8,72.2C0.3,206.7,0,216.8,0,297.6c0,80.8,0.3,91,1.8,122.7
		c1.4,31.7,6.5,53.3,13.8,72.2c7.6,19.6,17.8,36.2,34.3,52.7c16.5,16.5,33.1,26.7,52.7,34.3c18.9,7.4,40.6,12.4,72.2,13.8
		c31.7,1.4,41.9,1.8,122.7,1.8c80.8,0,91-0.3,122.7-1.8c31.7-1.4,53.3-6.5,72.2-13.8c19.6-7.6,36.2-17.8,52.7-34.3
		c16.5-16.5,26.7-33.1,34.3-52.7c7.4-18.9,12.4-40.6,13.8-72.2c1.4-31.7,1.8-41.9,1.8-122.7c0-80.8-0.3-91-1.8-122.7
		c-1.4-31.7-6.5-53.3-13.8-72.2C572,83.1,561.9,66.5,545.3,50c-16.5-16.5-33.1-26.7-52.7-34.3C473.7,8.3,452,3.2,420.4,1.8
		C388.6,0.3,378.5,0,297.6,0L297.6,0z M297.6,53.6c79.5,0,88.9,0.3,120.3,1.7c29,1.3,44.8,6.2,55.3,10.2
		c13.9,5.4,23.8,11.8,34.2,22.3c10.4,10.4,16.9,20.3,22.3,34.2c4.1,10.5,8.9,26.2,10.2,55.3c1.4,31.4,1.7,40.8,1.7,120.3
		c0,79.5-0.3,88.9-1.7,120.3c-1.3,29-6.2,44.8-10.2,55.3c-5.4,13.9-11.8,23.8-22.3,34.2c-10.4,10.4-20.3,16.9-34.2,22.3
		c-10.5,4.1-26.2,8.9-55.3,10.2c-31.4,1.4-40.8,1.7-120.3,1.7c-79.5,0-88.9-0.3-120.3-1.7c-29-1.3-44.8-6.2-55.3-10.2
		c-13.9-5.4-23.8-11.8-34.2-22.3C77.5,497,71,487.1,65.6,473.2c-4.1-10.5-8.9-26.2-10.2-55.3c-1.4-31.4-1.7-40.8-1.7-120.3
		c0-79.5,0.3-88.9,1.7-120.3c1.3-29,6.2-44.8,10.2-55.3c5.4-13.9,11.8-23.8,22.3-34.2c10.4-10.4,20.3-16.9,34.2-22.3
		c10.5-4.1,26.2-8.9,55.3-10.2C208.8,53.9,218.2,53.6,297.6,53.6z"/>
	<path class="st0" d="M297.6,396.8c-54.8,0-99.2-44.4-99.2-99.2c0-54.8,44.4-99.2,99.2-99.2c54.8,0,99.2,44.4,99.2,99.2
		C396.8,352.4,352.4,396.8,297.6,396.8z M297.6,144.8c-84.4,0-152.8,68.4-152.8,152.8c0,84.4,68.4,152.8,152.8,152.8
		c84.4,0,152.8-68.4,152.8-152.8C450.5,213.2,382,144.8,297.6,144.8z"/>
	<path class="st0" d="M492.2,138.8c0,19.7-16,35.7-35.7,35.7c-19.7,0-35.7-16-35.7-35.7c0-19.7,16-35.7,35.7-35.7
		C476.2,103,492.2,119,492.2,138.8z"/>
</g>
</svg>
