<svg id="Livello_1" data-name="Livello 1" xmlns="http://www.w3.org/2000/svg" viewBox="0 0 2214 3146.73"><defs><style>.cls-1{fill:#010101;}.cls-1,.cls-2{fill-rule:evenodd;}.cls-2{fill:#ebae09;}</style></defs><path class="cls-1" d="M1555.32,210.57l-25-19-58-10-39-14c-29.5-7.95-59.54-23.46-88-31-25.8-6.84-44-4.36-71-10l-22-9-26-1-28-8h-27c-74.25-15.42-155.76-22.18-250-21-3.92,4.72-64.27,16.69-74,21l-52,28-57,12c-35.51,14.58-67.51,38-97,59v3l1,1c18.54-3.86,52-2.36,71-9l80-39,48-16,45-3,27-13,61,4c29.08-4.81,54-8.68,76-19,8.77,5.18,15.21,12.42,27,15,29.14,6.36,53.52-10,85-4l56,20c28.28,7.25,63.46,2.34,95,2,14.73,11.34,24.64,22.23,48,26l19-3c9.21,2.25,15.54,13.33,28,16l56,6,61,31c13.56,6.69,42.14,11.2,57,2C1588.48,221.57,1561.86,214.42,1555.32,210.57Z"/><path class="cls-1" d="M1495.32,243.57c-16.55-4.42-37.51,2.51-54-3l-18-13c-20.46-8.79-45.88-8.49-69-15-12-3.37-21.76-13.2-32-16-10.75-2.95-16.29,5.57-27,3-25.11-6-52.4-17.3-80-23-31.54-6.52-65.79-6.52-100-12-35.84-5.74-71.32,10.25-103,4-13.86-2.74-26.82-7.24-47-7l-86,16h-33l-39,19-86,31c-34.84,11.36-67.42,23.71-101,34-23.07,7.07-46.52,8.09-67,17-19.84,8.62-26.72,25.21-42,37s-34.88,15.32-56,22l-9,27,2,1,131-52c18.77-8.25,46.6-28.82,63-34l22,2,25-15,30,1c17.64-3.8,30.48-17.37,46-24,8.58-3.67,21.27-1.32,30-4,6.43-3.52,13.33-14.92,16-22l6-3c31.64,24,36-2,67-8l34,3,33-10c41.69-8.56,42.12,10.44,67-23,10.85,2.58,10.49,15.3,20,20l52-1c29.16-4.58,69.83-2,95,3l32,4c10.71,3.14,21.75,12,34,15,12.77,3.15,36.2-1.68,47,2,6.45,2.19,9.81,11.54,18,14l51,4,27,16c10.37,3.69,22.44-2.35,32-1,26.33,3.7,19.87,18.63,54,12,24.58,16.3,44.77,37,74,49l54,9c15.41,6.24,20.68,23.62,42,24l3-3C1645.21,309.75,1534.31,254,1495.32,243.57Z"/><path class="cls-1" d="M1689.32,403.57l-22-8c-32-18.37-61-43.08-100-54-12.67-3.55-27.29.83-42-3l-31-23-56-14-45-26-86-9c-79.11-17.85-157.46-34.5-254-33-45.77,18.12-106-6.22-161,5-34.94,7.13-67.71,19-98,32l-29,14c-8.92,1.84-16.21-4.49-26-2l-70,31-78,20c-27.17,9.9-51.63,25.18-76,38-34.75,18.28-85.55,32.88-107,65v4c41.35,12.05,62.06-25.52,93-33l48-6,35-24,58-16,97-43,68-21,27-5,22-19c6.78-2.05,16.31,2.84,24,4,20.28,3,46.2-8.37,57-17l15,7c17.79,4.24,31.77-7.22,41-13l18,7h69c13.46,3.42,24.1,11.23,41,14,46,7.53,90.91-9.67,132,1,24.06,6.24,39.08,23.37,63,30l121,18c16,4.87,22,17.82,35,23l59,9,62,38c9.91,4.24,30.75,2.07,40,7,10.16,5.41,14.1,21,26,25h34l26,15h1C1719.85,434.45,1696.92,408,1689.32,403.57Z"/><path class="cls-1" d="M1644.32,443.57l-1-2c-34.77-7.24-60.17-21.18-89-33l-49-13c-23-9-44-23.15-69-32l-79-20-33-4c-11.94-3.55-16.25-11.28-25-17-13.67-8.93-36.63-10.72-55-14-45.72-8.16-96.5,6.69-143-1-31.15-5.16-54.36-14.53-93-14l-74,5-35,10c-6.63,3.52-9.75,10.55-18,13-8.51,1.83-28.82-5.83-43-2-22.17,6-37.75,20.06-57,27h-28q-12.51,8.49-25,17h-21l-30,11-12-2-20,13-72,32c-61.54,24.34-138.11,39.52-181,83v4c34,13.32,79.54-3.23,91-28,9.08-3.72,24.2,1.72,36-3l56-26,118-41,73-34q14-10,28-20c18.89-6.88,45.35.09,67-5,10.35-2.44,16.37-12.25,25-15,10.79-3.44,38.81,4.83,55,2,27.18-4.75,70.1-18.07,101-13l68,12c15.45,2.45,23.62-4.91,34-7,18.28-3.68,28.12,6.53,41,9,11.16,2.13,14.44-7.07,22-6,12.29,1.73,30,13.56,44,17l46,5c8.08,4,14.08,13.3,25,16,24.16,6,50.33-.85,72,6,11.62,3.67,16.87,13.75,27,19,29.28-11.89,37.58,19.39,59,27,10.75,3.82,17.56-6.32,29-3l18,13,28,1c29.37,8.69,45.1,33.48,82,35l2-1C1642.8,459.19,1644.56,453,1644.32,443.57Z"/><path class="cls-1" d="M1574.32,478.57c-13.79-4.9-28.3-17.81-41-21l-22,2c-20.47-4.57-32.77-20.91-53-27l-73-16-77-28-30,3c-28.59-5.65-56-16.46-86-23-44.84-9.78-97.61-7.8-150-7l-43,3-163,19c-16,4.39-24.09,18.46-38,24l-49,9-26,16c-15.13,6-34.29,3.69-48,9-45,17.42-89.34,42.67-138,54l-38,6c-26.47,9.93-41.8,36-70,45-19.71,6.28-66.06,6.61-58,35,4,3.5,10.83.83,16,0,36.35-5.83,44.75-11.41,64-32,34.62,4,51.29-10.37,78-21l72-24,38-23c17.54-7.54,46.77-4.36,64-11l108-48a121.1,121.1,0,0,1,42-6l22,1c13.81-3.38,22.85-15.64,39-19l77-3c15-2.57,25.2-10.52,37-13,8.85-1.86,15.29,4.46,22,6l53,5c38.81,5.71,79.24-3.31,115,3,28.27,5,44.5,20.65,65,25l33,1,78,24,32,2,19,13c28.21,11.7,62.46,14.45,90,26,46.12,19.34,90.45,49.59,152,52l1-1C1679.67,504.1,1608.84,490.82,1574.32,478.57Z"/><path class="cls-1" d="M1415.32,487.57c-15.86-15.14-39.3-13.73-64-21-52.19-15.36-94.63-34.63-163-25l-16-13h-57c-23.51-3.67-45.54-6.42-73-6l-39,6-55,13-74,3c-24.81,4.55-38.48,17.46-59,22l-21-2c-17.84,4.72-30.72,22-44,32-30.94,23.39-59.63,49.34-94,69-14.92,8.53-32.34,8.66-50,16l-24,20-26,6-69,39c-39.48,19.18-84.9,27.14-122,48l-35,27-11,15-12,1-12,10v4c34.27,7.37,134.74-47.65,159-62q20-11.51,40-23l29-5,16-13,39-20c32.87-13.52,68.58-19.61,97-37,43.39-26.56,71-72.78,120-94l29-9c9.79-1.86,19.89,2.31,29-1,13.46-4.9,28.19-14.26,43-19l68-12c27.35-4.5,61.77-4.34,88,0,10.31,1.7,27,4.27,38,1,10.08-3,15.6-12.49,27-15l14,15c26.5,4.94,48.28-11.86,76-7,35.62,6.24,60,26.24,93,36l48,7c16.93,3.75,31.1,9.44,45,15,9.74-.85,14.69-6.87,19-13h7c7.19,9,12.53,19.14,22,26,9.08-.73,10.79-4,16-8C1465.38,482.59,1437.36,481.67,1415.32,487.57Z"/><path class="cls-1" d="M1698.32,467.57l-12,6v3c9.75,13.46,65.58,54.33,87,28C1764.36,489.7,1724.21,466.9,1698.32,467.57Z"/><path class="cls-1" d="M1757.32,672.57c-31.69-9.79-53.17-34.38-82-46-11.29-4.56-21.07,3.09-34,0-17.46-4.18-32.72-18.58-47-27l-63-26c-18.5-7-38.51-6.18-60-12-17-4.59-26.13-18.22-41-24l-54-3-48-18-24,4c-15.19-2.57-35.19-13.46-52-18-51.72-14-115.34-13.95-179-13l-33,2c-41.69,6.29-84.4.1-129,7-28.34,4.38-37.11,14.6-58,19-35,7.37-52.26,1.58-68,27,12.48,19.25,58-5.21,77-11,44.39-13.51,98.37-15,156-15h51l83,5,17-7c20.69,15.34,34.46,5.53,64,12,19.66,4.3,37.87,15.53,62,20l135,13c21.91,5.44,39.18,15.13,59,22l22,3c13,5.51,27.85,22.88,44,30l92,37,51,28c18.79,6.91,43-1.33,65,5,22.79,6.55,37.58,29.18,67,26l2-2C1825.32,678,1787.61,681.92,1757.32,672.57Z"/><path class="cls-1" d="M697.32,506.57c-17.54,8.14-46.13,6.12-64,13-20.34,7.83-38,22.25-57,29l-42,6c-29.59,10-54.19,26.93-82,38-36.84,14.67-98.75,34.44-118,64v4c19.43,8.25,55.54-5.18,68-13l16-13c10.85-3.35,22.87,2.69,33-1l49-30c19.44-8,42.5-8,59-18l53-37c29.5-13.92,72.6-12.43,89-39Z"/><path class="cls-1" d="M1768.32,616.57c-21.4-10.91-41.73-25.48-66-34l-30-5-25-16c-8.19-3.28-14.51,2.41-21,1l-14-10-39-11c-26.61-10-40.86-31.91-79-31l-8,3c-1.9,1.4-.61.08-2,2q-.51,6-1,12c10.62,6.36,27.08,6.1,39,11l65,34,35,6,19,14,49,15c15.64,7.62,28.58,21.5,46,29,32.31,13.92,70.29,19.57,105,32l3-1C1840.88,635.67,1792.65,629,1768.32,616.57Z"/><path class="cls-1" d="M1823.32,574.57l-33-11c-19.38-11.31-36-26.79-67-26-5.44,3.49-10.13,4.85-13,11-.34,1-.67,2-1,3,9.89,19.58,23.39,8.62,45,17,31.24,12.11,52.54,51.24,88,58l2-1C1851.84,606.39,1837,584.19,1823.32,574.57Z"/><path class="cls-1" d="M1967.32,976.57l-27-29-29-13-55-40-29-12-14-25-33-15-64-36c-53.59-32.49-101.11-75.13-154-107-18-10.85-40.17-14.27-61-22l-70-30-89-46-38-24h-41l-66-16c-18.27-3.5-35.36,8.45-47,6l-16-9c-18.48-6.76-38.84-8.45-64-8-16,7.51-22.69,7.67-33,20,2.58,14.12,71.6,20.69,94,16,8.31-1.74,20.56-10.26,29-7,18.53,7.15,38.77,15.12,61,21,37.78,10,77.81,9.13,110,23,21,9,32,29.39,51,38l54,17c33.31,12.84,67.45,26.49,97,44,30.89,18.29,50.39,44.21,91,50,20.5,34.79,40.64,24.34,71,45,28.39,19.31,52.81,45.24,83,64l120,66,45,40c9.93,7.06,22.7,7,34,14,8.28,5.09,7.64,16.16,19,19,2.71.82,3.16.11,6-1,.33-1,.66-2,1-3C2001.35,997.82,1979.46,986.05,1967.32,976.57Z"/><path class="cls-1" d="M968.32,556.57c-25.72,10.49-55.61,0-86,5l-72,17-80,10c-48.17,12.7-75.09,48.22-117,66l-24.66,6.77c11.55.63,21.53,6.2,27.43,19.11l44.23-27.88,50-22,25-18c13-4.48,24.54-1.06,35-5l35-15c17-3.36,27.37,6.69,44,3l63-19c47.74-8.18,65.89,26.41,108-5v-1C1017.8,554.1,988.19,555.66,968.32,556.57Zm-476,144-99,58c-44.29,20.79-82.36,29.84-109,68q.49,2.49,1,5c26.68,2.9,55.12-11.58,73-22,30.86-18,68.22-32.72,101.77-51a112.51,112.51,0,0,0,2.23-22l13-2c11.34-12.22,17.79-12.3,35-20,1.8-5.52,5.52-11.56,10.56-17.52Z"/><path class="cls-2" d="M616.09,680.45l-1.77,1.12c-8.07,2.38-14.54-3.57-23-1l-30,17-32,5c-16.7,23.57-41.68,41-69.23,56a112.51,112.51,0,0,0,2.23-22l13-2c11.34-12.22,17.79-12.3,35-20,1.8-5.52,5.52-11.56,10.56-17.52l3.44-.43,38-28,26.33-7.23h0C600.21,662,610.19,667.54,616.09,680.45Z"/><path class="cls-1" d="M1926.32,871.57c-56.67-37.78-116.21-76.61-173-113-17-10.87-55.94-9.28-64-29v-5c13.1-6.64,32.33-3,44,3l108,61c10.18,6,38.1,25.38,54,19l3-2c7-36.27-76.17-60.32-103-72l-47-21-33,3-78-28c-81.69-35.38-151.5-96.76-258-105-1.61,14.39,22.91,24.74,35,30,12.91,5.62,29.35,4.27,44,10,12,4.7,18.64,16.78,32,21l45,10c22.78,10,38,30.16,58,43,16.12,10.34,41.71,11.14,57,22,34.81,24.71,61.56,59.43,97,84,17.89,12.4,40.66,17,62,26l49,28,79,58c9,6.34,18.56,19.78,32,18C1977.48,896.2,1947.09,885.41,1926.32,871.57Z"/><path class="cls-2" d="M972.32,607.57v6c-25.55,20.1-27.3,6.34-62,14-26.76,5.9-58.19,47.77-88,20h-4c-37.34,48.47-132.94,39.58-170,89-7.26,9.68-23,29.07-40,19v-1c3.16-11.37,13.12-13.89,16-25l-2-2c-28.5,0-55.81,27.55-79,17v-1c9-37.14,33.46-19.68,68-26l32-11c64.71-31.65,129.48-63.49,205-86l79-13,37-1Z"/><path class="cls-1" d="M1961.32,1046.57c-30.47-23.12-54.69-55.25-85-78q-38-20.51-76-41l-135-94-113-57c-14-9.14-21.25-25.51-36-34-43-24.76-96.27-35.53-143-55-34.42-14.35-61.88-36.88-100-49-69.47-22.1-160.42-22.3-252-21l-20,15A66.75,66.75,0,0,1,988.74,636q.79,2.25,1.58,4.5c6.86,1.65,16.38,2.85,22.57,5.68h0l61.41,3.36c45.75,0,101.33-7.4,142,3,24.71,6.32,47.5,17.91,70,25,11,3.45,22.5.56,36,3,15.16,2.73,31,9.75,43,17,16.89,10.19,23.16,32.21,41,40l61,15c16.79,7,26.14,23.2,41,32l17.54,6.68c18.47-2.85,36.12-2.87,45.46,2.27,1.4,7.26,5.69,14.5,10.58,22.11,15.83,12.4,27.22,29.47,44.42,39.94,8.44,5.13,21.08,2.71,31,8q9.5,11,19,22l25,3c13.39,6.77,18.64,21.07,30,29l24,11,90,68,52,27,49,46c11.12,8.7,54.56,43.08,73,37h2C2020.21,1074.48,1980.85,1061.38,1961.32,1046.57Z"/><path class="cls-2" d="M1581.9,815.63a77.28,77.28,0,0,0-10.58-7.06l-45.46-17.32c18.47-2.85,36.12-2.87,45.46,2.27C1572.72,800.78,1577,808,1581.9,815.63Z"/><path class="cls-2" d="M1012.89,646.2l-11.57-.63c-22.42,3.49-33.36,16.49-58,11-.67-1.33-1.34-2.67-2-4,9.06-14.57,29-13.19,47.42-16.55q.79,2.25,1.58,4.5C997.18,642.17,1006.7,643.37,1012.89,646.2Z"/><path class="cls-1" d="M1311.32,706.57c-73.4-22.7-167.11-37.67-265-36-25.5,16.58-26.36-.76-52,5l-.4.08h0c-6.12,4.06-12.62,7.61-18.59,10.86-1.3,6.5-4.56,10.92-2,15a14.89,14.89,0,0,0,.95,1.47l25.05-6.42,71,5c71.89,0,138.62-.85,196,14,26.93,7,55.21,15.17,77,28,8,4.68,20.08,15.93,32,10q5-4,10-8v-3C1371.38,718.27,1340.86,715.7,1311.32,706.57Zm-926,190-.89.47,6.89.48c7.72-2.9,13-9.91,17.37-18C401.18,885.83,393.6,891.92,385.32,896.57Zm-44,11c-18.84,8.25-32,27.34-48,39-18.79,13.72-43.77,20.76-56,41v3l28-13c24.12-8.15,48.76-11.13,71.53-18.69h0a38.65,38.65,0,0,1,2.47-8.35l13-11c7.05-9.71,7.17-22.58,8.94-36.78C354.45,903.72,347.57,904.84,341.32,907.57Z"/><path class="cls-2" d="M975.32,686.52c-1.3,6.5-4.56,10.92-2,15a14.89,14.89,0,0,0,.95,1.47l-13.95,3.58c-17.17,3.22-23.21-10.06-38-7l-41,18c-40.55,11.17-82,14.63-118,31-13.94,6.34-30.75,12.33-45,20q-14,8.49-28,17c-7.71,1.79-18.09-2-26,1l-29,21-81,32c-13.69,7.64-26.17,19.81-39,27l-18,2-52,22-51,28c-16.19,10.51-27.11,27.95-46,36-3.76,1.6-7.59,3-11.47,4.3a38.65,38.65,0,0,1,2.47-8.35l13-11c7.05-9.71,7.17-22.58,8.94-36.78,8.28-1.2,16.44-2.21,23.16-5.7h0l6.89.48c7.72-2.9,13-9.91,17.37-18h0c14.31-12.08,28.37-25.1,46.63-30.91l37-1q8-5.51,16-11c17.06-5.31,29.69-2.68,44-8l57-39c12.53-7.45,33.14-5.06,46-13,19.33-11.93,35.89-27.51,59-37l76-23,46-28c33.35-10.47,72.56,3.59,110-3l47.59-9.91C987.79,679.72,981.29,683.27,975.32,686.52Z"/><path class="cls-1" d="M1868.32,709.57c-7.31,3.79-12.8,4.1-17,11,8.19,14.55,27.81,21.6,51,21C1910.57,724.61,1884.4,710,1868.32,709.57Z"/><path class="cls-1" d="M311.32,996.57c-35.34,18.88-88.82,33.8-105,71-.34,1-.67,2-1,3l4,2,24-10h18l44.2-25.59c-.06-6.21-.62-12,1.8-16.46,9-1.87,10.71-13.47,15-20l19-16a18.85,18.85,0,0,0,1.13-1.83Q321.88,989.62,311.32,996.57Z"/><path class="cls-2" d="M1199.32,742.57v9c-8.21,9.93-81.5,5.26-104,2-55.17-8-110.11,5.87-153,14l-83,11c-33,7.82-61.61,24.73-92,36-23.84,8.83-48.13,10.42-70,20l-38,23-52,12-100,57-161,81L295.52,1037c-.06-6.21-.62-12,1.8-16.46,9-1.87,10.71-13.47,15-20l19-16a18.85,18.85,0,0,0,1.13-1.83h0l13.87-9.11,27-1c18.54-9.31,30.33-30.9,49-42,32.49-19.32,74.06-28.83,110-43q21.49-13,43-26l29-3c15.73-6.17,28.14-20.9,45-28l80-23c27.62-9,46.29-29.28,74-39,47.71-16.73,104.73-22.57,157-31l91-8C1082.77,729.07,1191.46,726.44,1199.32,742.57Z"/><path class="cls-1" d="M329.32,854.57l-44,35-20,24v4c3.12,1.28,5.21,2.66,10,1l18-17,42-15,99-54c3.54-1.49,7.24-2.91,11.05-4.25q.48-11.9.95-23.8a174.11,174.11,0,0,1,5.16-17C413.41,812.15,369.37,829.88,329.32,854.57Z"/><path class="cls-2" d="M591.32,762.57v1c-5.19,29.25-46.23,35.63-74,44-22.29,6.73-49.17,12.65-72,20.75q.48-11.9.95-23.8a174.11,174.11,0,0,1,5.16-17h0c17.54-11.37,33.81-24.22,47.84-39.9,10.64-.41,19,.25,25,4v1c-.34,2.33-.67,4.67-1,7-5,11.65-19.72,15.58-29,23v3l1,2C543.36,795.58,559.3,755.3,591.32,762.57Z"/><path class="cls-1" d="M1475.32,805.57l-32-22-20-1-35-11-27,5-9-7c-2.45-1.05-4.87-2.08-7.29-3.07,1.92,4.78,1.74,10.81,5.29,15a56,56,0,0,0,7.8,3.53,41.69,41.69,0,0,1,10.2.52l8.68,4.79c8.1,1.59,16.27,2.28,22.32,1.16l21-3c19.11,5.27,16.1,26.58,42,27,2-3.16,6.85-6.52,13.52-9.75Zm516,332c-31-24.66-61.61-51.71-95-74-14.94-10-35.65-15.49-50-27-7.67-6.15-9.44-19.15-18-25-12.84-8.79-27.81-12.32-40-21l-78-65c-33.59-23.79-73.44-39.47-109.76-60.17a49.39,49.39,0,0,1-3.24,13.12c-2.27,5-6,8.6-10.31,11.63,13.39,7,26.53,14.09,39.31,21.42l22,6,42,37,106,73,46,39,31,11,33,35c25.81,25.81,81.27,70.28,124,76l2-1C2036.5,1161.24,2006,1149.23,1991.32,1137.57Z"/><path class="cls-2" d="M1600.56,865.4a49.39,49.39,0,0,1-3.24,13.12c-2.27,5-6,8.6-10.31,11.63-41.76-21.72-86-42-129.69-62.58l-60-26q-10.17-5.6-20.32-11.21c8.1,1.59,16.27,2.28,22.32,1.16l21-3c19.11,5.27,16.1,26.58,42,27,2-3.16,6.85-6.52,13.52-9.75,12.74,4.94,29.29,2.22,40.48,7.8q38,23.49,76,47Q1596.4,863,1600.56,865.4Z"/><path class="cls-2" d="M1358.12,785.05c-13.33.64-30.24,4.91-43.8,2.52l-37-13c-10.25-4.22-44.15-14.14-43-25l14-1c42.17-.82,68.87,6.5,96.71,17.93,1.92,4.78,1.74,10.81,5.29,15A56,56,0,0,0,1358.12,785.05Z"/><path class="cls-1" d="M211.32,1129.57v3c19.63-1.5,48.87-13.32,72-26.69v-33.33C254.18,1084.71,229.39,1094.93,211.32,1129.57Z"/><path class="cls-2" d="M1309.32,826.57l-2,3-67-3-87-19-15,7c-17.71,5.37-31.92-3.51-42-9-14.46,2.57-27.36,11.35-49,8-21.19-3.28-47.11-8.42-68-3-89.88,23.3-183.88,49-269,77-42.34,13.93-82.81,37.53-120,58l-74,32-44,29c-18.57,6.33-37.54,6-55,14-8.76,4-15.27,14-26,17l-46,11c-12.27,6.65-21.36,22.38-30,33-6,7.35-17.84,16.12-32,24.31v-33.33c12.59-5.26,26-10.87,40-19,16-9.25,23.62-24.62,38-34,23.49-15.32,54.83-22.24,82-33,35.66-14.12,69.52-31.78,102-50l50-29,131-40c38.78-14.42,78.2-39.73,120-50,14.5-3.57,28.45,4.48,42,1l42-21c14.94-3.13,28.66,4.49,43,1l30-11,44-5c20.16,1.57,36.14,8.19,50,15,8.5-4.84,16.93-13.3,28-15,11.94-1.84,20.56,8.92,34,11h37C1240.86,800.45,1284.17,801,1309.32,826.57Z"/><path class="cls-1" d="M1915.32,799.57c-6,19.81,8.85,32.78,26,27C1944.9,812.27,1930,799.61,1915.32,799.57Z"/><path class="cls-1" d="M2067,1281.53c-15.84-18.1-33.69-41.34-50.68-55l-66-50-43-43c-20-14.62-46.09-21.88-66-36-23-16.31-40.69-39.85-63-56-7.61-5.51-22.25-4.37-30-10-37.27-27.13-67.19-63.12-108-88-14.65-8.93-37-7.6-53-17L1563.88,904a30.75,30.75,0,0,0-5.56,5.49v1c12.82,7.1,20.79,26.82,27,41l2.23,2.75h0c8.54,4.52,16.85,9.25,24.77,14.29,17.25,10.95,33,28.5,50,38,8.25,4.59,17.71,3.49,25,8l23,18,16,5,8,14,39,31q8,9.5,16,19l27,9,21,22c7.54,5.65,17.14,4.62,26,10,10.19,6.17,16.14,22.43,26,30,14,10.77,31.78,14.69,47,25l20,25c20.5,16.45,48.56,27.56,65,48,9.1,11.29,23.58,34.46,44,30,3.85-1.76,5.29-3.12,7-7,.15-.76.3-1.53.46-2.29.17-.91.36-1.81.54-2.71C2071.25,1286.34,2069.15,1284,2067,1281.53Z"/><path class="cls-2" d="M1587.55,954.27c-23.48-12.45-48.69-23.36-72.23-34.7l-49-23c-16.3-8.62-32.21-23.2-51-29-31.38-9.68-78.36-5.44-85-39h2l19-5c39.58-.69,56.18,17.64,81,29l31,6c20,9.12,35.1,25.28,57,33l41,10,2.56,2.46a30.75,30.75,0,0,0-5.56,5.49v1c12.82,7.1,20.79,26.82,27,41Z"/><path class="cls-1" d="M155.32,1317.57c.78,3.55.71,2.88,2,5,36.53-15.07,48.5-43.91,78-63,10.73-7,26.37-8.4,39.76-13.19h0a119,119,0,0,0,8.24-18.85v-30C234.11,1234.82,189,1264.36,155.32,1317.57Z"/><path class="cls-2" d="M1120.32,850.57v4c-17.55,10.79-46.81,24.2-80,18-11.63-2.17-24.46-8.8-41-6l-57,17c-13.94,2.88-26.54-4.44-40-1l-26,14c-20.84,6.89-41.4,4.17-60,12-43.79,18.44-89.34,41.37-133,58-12.54,4.77-41.75,5.53-52,11-12.06,6.44-23.31,20.59-36,28-26.57,15.51-55.21,23.49-78,42-12,9.77-16.26,28-29,37-37.21,26.38-71.71,55.49-109,81l-54,32c-15.38,12.44-22.65,33.2-40,44a52.75,52.75,0,0,1-10.24,4.8,119,119,0,0,0,8.24-18.85v-30l38-37,56-24c59.54-38.51,98.81-100.47,159-138a312,312,0,0,1,63-30c11.35-3.83,22.85-1.15,32-6l27-21c39.58-16.85,83-27.91,122-42l40-7c14.19-5.79,24.39-19.08,41-24,15.48-4.59,37,3.08,50-1l11-8,51-12c36.41-5.67,78.91,5.74,109-7C1099.42,839.91,1112.36,842.19,1120.32,850.57Z"/><path class="cls-1" d="M2037.32,1330.57c-9-7.34-10.5-22.59-20-30l-40-27c-10.67-13.71-17.36-30.37-31-41-18.61-14.52-40.55-24.18-61-37-22.9-14.36-35-40-55-53l-30-9-39-23c-37.92-27.09-66-64.62-106-89a324.17,324.17,0,0,0-30.55-16.23c1,3.94,2.33,7.69,10.55,14.18.14,5.53-.45,8.88-2,12-4.48,1.37-5.8,1.75-6.89,6.5,26.27,20,50.9,41.74,76.89,61.55l35,22c31.6,23.28,46.31,66.17,68,100l89,83c35.77,35.47,70.09,71.73,105.94,106.53,11.07-5.68,21.79-10.25,31.86-11.73l-143.8-141.8c-23.69-23.11-62.63-55.71-77-86l-2-4c24.31,5,63,47.75,79,65,18.89,20.42,43.6,30.68,67,47l24,31c11.27,14.65,26.81,29.13,41,41,17.85,14.92,47.83,54.5,72,59l2-2C2092.36,1366.55,2062.21,1350.84,2037.32,1330.57Zm28.6,106.94c-3.37,4.23-7.62,7.1-10.6,13-.45,3-.9,6.09-1.36,9.14h0c16.79,14.52,34.16,28.56,52.36,41.9h5C2114.22,1471.46,2078.85,1457,2065.92,1437.51Z"/><path class="cls-2" d="M2065.92,1437.51c-3.37,4.23-7.62,7.1-10.6,13-.45,3-.9,6.09-1.36,9.14-18.13-15.69-35.59-32-52.7-48.56,11.07-5.68,21.79-10.25,31.86-11.73l.2.2,26,19,6,18C2065.51,1436.88,2065.71,1437.2,2065.92,1437.51Z"/><path class="cls-2" d="M1633.32,1031.52c-4.48,1.37-5.8,1.75-6.89,6.5a454.05,454.05,0,0,0-43.11-29.45l-45-21c-15.61-4.54-33.67-3.8-46-12-8.84-5.88-13.21-17.87-23-23-25.4-13.31-55.5-16.75-85-25-42.54-11.9-84.76-29.34-119-49-27.9,10.34-97.11-7.77-116-19v-4l3-2,36-6c17.71.16,41.89-.23,57,6l29,17,32-1c23.24,1.19,48.39,2.53,67,10,19.93,8,29.71,25.79,50,34l69,15c18,7,25.19,24.67,41,34,29.46,17.38,61.13,28.45,91.45,42.77,1,3.94,2.33,7.69,10.55,14.18C1635.46,1025.05,1634.87,1028.4,1633.32,1031.52Z"/><path class="cls-2" d="M1143.32,911.57q-1,2.49-2,5c-12,2.54-24.21,7.69-39,10l-90,1c-25,4.42-53.46,10.56-81,15l-64,5c-55.3,14.15-100,43.92-157,60-18,5.06-45.17,16.27-67,14q-.51-3-1-6c22.6-29.1,62.81-28,100-43l81-33,40-7q9.49-7,19-14c15.78-4.89,34.48,2.94,49-2l52-19c12.64-2.11,19.71,6,29,8,14.87,3.13,66.14-5.15,78-10C1118.73,894.81,1129.51,899.09,1143.32,911.57Z"/><path class="cls-1" d="M1953.32,1391.57l-25-15c-11.75-14.08-19.92-30.79-31-45l-87-91-33-48-107-91c-11.92-9.44-23.8-20-36-30.34v5.29l31,36q2.25,12,4.51,24.07l23.49,23,44,39c12.41,15.08,22.35,30.36,36,44l48,46c27.75,34.59,52,85.61,99,100q2,12,4,24c2,5.64,9.54,15.77,19.4,27.39,11.92-4,24-10.49,36-17.1Zm119,116a320.62,320.62,0,0,0-25.18-22.92c-6.48,9.38-16.22,18.52-21.82,26.87q-.42.62-.81,1.26l17.81,7.79c21.14,16.14,21.66,46.14,60,46C2110.73,1547.24,2082.35,1517.85,2072.32,1507.57Z"/><path class="cls-2" d="M2047.14,1484.65c-6.48,9.38-16.22,18.52-21.82,26.87q-.42.62-.81,1.26l-14.19-6.21c-11.4-7.79-44.79-40.86-66.6-66.61,11.92-4,24-10.49,36-17.1l21.65,25.71C2016.4,1460.71,2032.19,1472.28,2047.14,1484.65Z"/><path class="cls-2" d="M1669.83,1136.59l-22.51-22-22-26-28-12-60-40-41-10c-17.81-7.37-32-29.06-44-35l-39-5c-25.44-6.25-49.56-20.69-72-27l-52-3c-33.13-6.35-101.73-15.89-125-33a34.14,34.14,0,0,1,7-16c50.75-.94,89.7,7.61,127,20l28,15,23-5,37,20,66,11c9.89,4,13.62,14.83,22,20,9.46,5.83,21.78,5.4,33,10,16.35,6.7,26.66,20.13,40,28l27,2c21.6,10.94,41.18,26.64,60,42.66v5.29l31,36Q1667.57,1124.55,1669.83,1136.59Z"/><path class="cls-1" d="M1930.32,1434.57c-42.52-55.7-98.65-100.81-147-151-25.78-26.77-49.6-56-76.19-82.13,2.86,4.61,5.62,9.29,8.19,14.08,5.33,9.93,6.72,28,9.08,42,5.8,6.49,11.48,13.13,16.92,20,43.66,55.27,92.82,107.25,141,159.33,9.81,2.63,20.11,4.81,31,6.62a55.41,55.41,0,0,0,21.5-1Zm147,156c-9.48-6.57-21.09-32-34-42-8.55-6.62-18.14-12.68-27.89-18.75-3.7,7.69-7.33,15.57-11.11,21.7-2.15,3.49-3.23,7.78-3.8,12.47h0l7.8,8.57c9.74,6.64,22,8.16,31,15,20.66,15.73,36.16,39.76,70,42q2-3,4-6C2105.53,1599.24,2095.71,1603.3,2077.32,1590.57Zm-1800-252-.34-.19q-2.36,1.59-4.66,3.24l-19,21c-8.63,3.89-15.75-.12-22,5-11.76,9.62-20.29,21.6-34,30-31.67,19.39-73.44,35.17-78,81l2,1,110-74,42-45,3.81-1.36A141.16,141.16,0,0,0,277.32,1338.52Z"/><path class="cls-2" d="M2015.43,1529.82c-3.7,7.69-7.33,15.57-11.11,21.7-2.15,3.49-3.23,7.78-3.8,12.47l-12.2-13.42c-17.75-21.63-40.17-40.86-59-62-15.42-17.31-31.18-34.5-47-51.67,9.81,2.63,20.11,4.81,31,6.62a55.41,55.41,0,0,0,21.5-1q12.24,21.54,24.5,43.08C1973.13,1503.94,1994.65,1516.89,2015.43,1529.82Z"/><path class="cls-2" d="M1724.4,1257.55c-18.68-20.9-38.61-40.3-56.08-62l-24-29-52-31-62-53c-7.75-4.74-19.92-2.54-29-7l-25-19-59-9-103-30c-48-12.88-95.88-26-151-36-45.09-8.22-99.9-1.79-141,5-25.5,4.21-53.3-2.32-76,4-35.34,9.83-70.51,25.27-107,36-26.09,7.67-47.44,11.77-71,21l-27,14h-35l-33,23c-15.36,9.25-32.09,13.69-46,24l-30,28-38,12-25,27c-19,23.9-45.38,51.86-70,70-18.94,14-44.21,20.3-63,34-29.05,21.2-53.38,47.69-86,66l-38.19,13.64a141.16,141.16,0,0,0,.19-20.69l-.34-.19c21.78-14.8,45.89-26,68.34-40.76l56-50,131-100q11-14,22-28l33-14,70-43c15-7.41,29.21-9.13,46-15l61-28,54-12c22.54-6.57,45.12-17.91,69-25l45-5,23-13,25,2c19.81.19,54.94-2.54,71-9l40,2,16,7c17.06-2.13,38.24-14.13,63-8,14.83,3.67,25.21,16.59,35,20l22-1c24.6-.25,49.1-1,69,4,29,7.24,57.1,15,82,27l21,12c7.08,1,16.48-5.34,27-3l40,20,84,30c55.58,23.36,84.44,72.91,128,108,10.07,8.11,19.6,16.8,28.81,25.86h0c2.86,4.61,5.62,9.29,8.19,14.08C1720.65,1225.45,1722,1243.47,1724.4,1257.55Z"/><path class="cls-1" d="M313.32,1451.52c-4.6-6.52-2.9-14.2-6.26-22.37-57.28,45.26-119,95.11-162.74,153.42-12.06,16.08-38.25,37.24-42,59,16.12,5.15,40.77-6.44,52-14,21.27-14.32,36.27-39.89,52-60,9.52-12.16,22.94-17.24,35-27q11-17,22-34a235.84,235.84,0,0,1,42-42q5.67-4.54,11.35-9.08A31.13,31.13,0,0,1,313.32,1451.52Zm1755,324c-31.32-27.46-53.67-64.5-79-98q-14.57-17.44-29.12-34.88c-7.16,9.73-11.92,20.59-18.1,30.52,21.91,28.52,46.09,54.48,68.22,82.36,27.41,34.5,52.08,80.77,105,89C2136.07,1816.57,2081.15,1786.81,2068.32,1775.57Z"/><path class="cls-2" d="M1960.2,1642.69c-7.16,9.73-11.92,20.59-18.1,30.52q-1.39-1.82-2.78-3.64c-65.25-86.39-139.79-167.22-203-256-52.4-73.59-110.59-151.59-183-205-9.84-7.26-23.82-6-35-13-11-6.83-19.29-21-31-28-32.72-19.59-61.54-40.28-93-59-45.19-26.89-100.19-39-156-55-34.42-9.84-68.86-10.37-111-17l-52-2-39,4c-17.55,4.83-34.51,13.21-56,17l-88,5c-15.36,4.42-28.61,15.18-41,19-17.76,5.47-30.15,2.47-46,8-10.59,3.7-21.56,14.2-34,17-11.09,2.49-17.17-4.27-25-6l-45,38c-17.06,8.89-34,10.4-48,21-23.69,18-45.86,40.11-70,58-68,50.38-134.36,98.39-190,161-14.19,16-38.17,21.91-52,41q-5.51,13.5-11,27l-13.65,10.92a31.13,31.13,0,0,1-3.35-4c-4.6-6.52-2.9-14.2-6.26-22.37l3.26-2.58c25.69-20.28,33.62-60.53,59-81q17-10,34-20c25.62-17.77,41.93-47,66-66,29.6-23.41,63.54-41.25,95-63,16.23-11.22,27.49-29.59,43-41l45-19c25.75-12.94,49.83-33.14,75-45,8.81-4.15,16.12,2.54,25,0l22-15,25-2,24-16,117-30c23.66-5,43.43-7.19,66-11l50-5c56-.82,101.08,6.18,143,15l54,1c15.1,3.82,28.85,15.24,46,19,32.83,7.2,65.1,7.89,92,21,23.54,11.47,39.37,36.16,60,51,12.06,8.66,28.6,9.42,42,18l24,29c10.85,6.52,23.45,4.63,33,11,26.78,17.82,40.75,49.14,65,69,13.5,11,34.41,12.9,45,27l30,52,38,26,15,32,32,27,50,74,78,90Z"/><path class="cls-1" d="M235.32,1159.57c-13.63,9.73-17.9,28.39-29,37-12.44,9.63-25.57,12.59-36,24-.34,1.66-.67,3.33-1,5l4,5c37.58,9.64,43.74-29.54,69-41l18-2c7.19-2.89,15.56-9.47,23-16.57v-43.48C267,1137.78,251,1148.39,235.32,1159.57Z"/><path class="cls-2" d="M472.32,1029.57v1c-26.11,34.13-64.79,60.53-108,77l-47,20-19,27a159.48,159.48,0,0,1-15,16.43v-43.48c54.47-34.34,111.74-64.85,166-100C457.38,1027.29,467.21,1027.12,472.32,1029.57Z"/><path class="cls-1" d="M254.78,1284.23l-.46.34c-11.4,8.66-20.52,22.68-32,30l-24,8q-3.51,7.5-7,15c-13.9,18.93-40.46,23.15-46,51l2,3c42-8.35,59.48-49.2,90-70a73.77,73.77,0,0,1,12.67-6.74l-3.67-1.31C246.48,1304.47,250,1294.48,254.78,1284.23Z"/><path class="cls-2" d="M618.32,1029.57c-1.15,17.31-14.44,18.49-23,28-10.36,11.51-24.46,16.58-37,26-18.22,13.69-31.9,31.76-51,45q-11,8.49-22,17l-10,3q-4,7.5-8,15c-11.32,15.58-29.05,32.16-45,43l-89,54-37,36c-13.76,8.19-31.38,11.87-46.33,18.26l-3.67-1.31c.16-9,3.64-19,8.46-29.29h0c41.44-31.37,89.88-57.59,131.54-89.65l41-40,14-19c13.16-7.74,27.73-10.34,40-18l81-67c14.68-10.19,32.52-14.06,49-23Z"/><path class="cls-1" d="M2076.32,2047.57q-2-11-4-22c-6.11-10.94-17.32-16.5-27-24l-51-51c-41.69-52.19-77.27-109.35-111-170v-3h3c46.89,35.16,69.6,103.09,107,148,22.31,26.79,65.49,45,80,78,12,7.18,23.85-3.21,35,0h2l-6,21,3,4c4,7.26,12.08,5.76,22,5-.25-63.92-55.4-61-60-110,18.83-2.24,28-9.27,36-22-2.65-16.71-36.84-50.84-50-59l-25-13-21-36-61-86a158.07,158.07,0,0,0-17.81-19.62c-8.86,8.73-19.91,15.48-30.83,22.29l8.64,14.33c11.08,13.6,32.39,17.61,43,32l18,39a446.64,446.64,0,0,0,42,65c14.54,18.87,37.81,28.65,49,51v4c-12.69,2-35.92-15.34-43-24-9.55-11.71-16.07-26.5-25-39l-63-84q-20.53-25.48-41.08-51c-2.36,1.6-4.68,3.23-6.92,4.93-6.18,4.68-12.48,10.18-18.76,15.86,6.48,4.86,11.76,10.93,12.76,21.19-10.67-1.58-12.54-8.8-24-7-13.13,28.37,29.28,93.36,40,110q25,39,50,78,8,16.5,16,33l27,21c13,16.69,20.62,39.85,37,53l23,12c21.69,15.11,39.39,38.12,75,39,.66-.67,1.33-1.34,2-2C2119.07,2070,2097.59,2055.31,2076.32,2047.57Z"/><path class="cls-2" d="M1509.32,1236.57l-6,3c.33,2.33.66,4.67,1,7,7.91,17.66,31.12,31.64,46,43,24.68,18.83,51.68,44.81,70,70l17,34c15.21,16.63,37.85,29.54,51,48l16,32,84,120,99.92,124c-2.36,1.6-4.68,3.23-6.92,4.93-6.18,4.68-12.48,10.18-18.76,15.86-8.28-6.19-18.5-10.4-24.24-18.81-30.56-44.74-58.71-89.81-89-133l-78-112-33-54-19-14-59-61c-43.36-55.13-85.38-115.35-142-157a115.53,115.53,0,0,0-33-17l-20-5-15-19-22-3c-16.34-6.42-27.31-19.11-42-27-21.61,3.83-40.21,5.6-57-7l-15-14c-41.84-12.45-102.67-8.33-145,1-64.9,14.31-121.63,41.17-178,64l-83,25c-14.61,6.4-20,20.81-32,29-25.86,17.7-60.21,20.74-92,33-19.52,7.53-33.06,18.55-54,25l-4-2v-5c23.78-30,37.91-22.46,69-41,19.12-11.4,37.58-25.83,59-35l31-8,48-34,29-1q12.49-8.5,25-17l27-3q24.49-14.5,49-29c28.08-12.46,59.6-21.43,92-29,36.08-8.43,77.48,2.35,104,8h53c23.83,4.2,48.24,13,70,19l27,4,20,19c11,4.46,29.74,1.25,43,8l41,32c20.1,12.53,45.52,17.46,67,29,14.25,7.65,17.14,26,30,34,14.23,8.87,39.2,5.49,52,15l29,37,27,28c21.62,25.5,50.06,45.43,71,72q80,107.49,160,215l28,47c14.41,19.5,35.22,34.26,53.19,51.38-8.86,8.73-19.91,15.48-30.83,22.29l-29.36-48.67-27-26q-2.5-9.49-5-19l-34-32-45-59c-14.19-22.8-22.51-54.26-38-76l-21-16q-18.51-20-37-40a773.59,773.59,0,0,0-104-116C1544.56,1264,1532.4,1241.1,1509.32,1236.57Z"/><path class="cls-1" d="M1807.53,1382.08c-1.28,5.88-4,11.6-3.21,17.44,7.58,3,10.73,8.25,17,12a225.62,225.62,0,0,0,21.26,11.2Q1825.06,1402.4,1807.53,1382.08Zm228.79,271.49c29.69,2.8,44.35,42.9,78,52h1c3.39-8.65-4.69-18.82-9-26-23.56-39.31-42.84-47.72-78-74h-4c-3.94,6.06-6.75,14.09-13,18l-14.7-21.73c-.09.23-.19.46-.3.68-4.22,8.81-12.27,16.34-20.21,23.68q18.6,28.68,37.21,57.37c10.49,13.74,28.46,22,38,34,20.33,25.57,32.83,58.45,78,56C2121.48,1717.82,2047.19,1701,2036.32,1653.57Z"/><path class="cls-2" d="M1996.62,1601.84c-.09.23-.19.46-.3.68-4.22,8.81-12.27,16.34-20.21,23.68l-10.79-16.63q-44-43-88-86c-13.55-17.4-24.21-35.38-37-54l-32-36-12-23c-7.69-9.55-25.13-10.14-33-20-41.77-52.37-72.44-118.52-123-162-39.79-34.22-78.77-75-126-101-23.86-13.14-60.42-22.85-74-46q1-2.5,2-5c63.56-6.31,83,32.41,116,59l44,31c61.21,40,108.12,98.62,153,155l52.21,60.51c-1.28,5.88-4,11.6-3.21,17.44,7.58,3,10.73,8.25,17,12a225.62,225.62,0,0,0,21.26,11.2h0l.73.85,29,30q7,15.5,14,31c12.71,18.75,47.87,36.35,64,57l38,48Z"/><path class="cls-1" d="M343.32,1474.52a64.56,64.56,0,0,0-7.38-5.46,133,133,0,0,0-14.62,8.51l-35,32c-27.88,29-46.42,64.4-71,97-15,20-49.21,35.2-68,54-10,10-49.26,75.5-53,77v9c26-7.87,34.5-19.34,53-32l22-12c12.35-17,20.58-33.51,35-48l79-77c11.54-15.06,16.94-32.51,28-49,9.48-14.12,23.8-27.08,39.25-39.54C348.16,1484.2,345.74,1479.35,343.32,1474.52Z"/><path class="cls-2" d="M934.32,1078.57c-3.92,39.71-72.11,37.8-106,49-6.29,2.08-41.9,19.58-48,24-6.36,4.59-10.59,13.4-19,16-16.86,5.2-29.65,4-44,10-30,12.56-52.5,36.65-77,55l-26,18c-3.42,8.7-1.46,17.34-6,24-10.94,16-36.05,20.81-51,33-12.5,10.2-19.38,26.17-33,36-23.15,16.72-52,26.42-74,44-18,14.4-26.71,38.79-43,55-15.66,15.58-37.12,30.62-56.75,46.46-2.41-4.83-4.83-9.68-7.25-14.51a64.56,64.56,0,0,0-7.38-5.46c7.6-4,14.72-8,20.38-15.49,15.21-20.1,23.89-45,41-63l38-25c41.12-29.38,83.28-59.89,124-91q20-19,40-38l12-16c11.06-6.71,20.75-6.73,30-14,12.45-9.78,20.46-23.62,35-32,10.06-5.81,21.66-2.71,35-7l38-27c8-4.46,16.85,1.46,26-2,13.43-5.07,31-23.85,47-30l96-32C924.76,1076.32,930.55,1076.73,934.32,1078.57Z"/><path class="cls-1" d="M2085.32,2136.57l3-1c-.11-42-45.29-41.38-67-62-29.38-27.91-51.09-64.67-75-98l-27-32-9-23-28-30q-23.68-63.33-47.35-126.67c-6.11,7-10.84,15.26-15.51,23.61,11.12,35.62,13.06,75.51,30.86,105.06,26.2,43.5,61.5,79.08,88,123l52,92,25,29c11.87,16.76,31.25,40.94,62,26l3-1c-3.92-15.12-27.76-26.69-38-37v-4C2061.25,2112.89,2065.32,2143.79,2085.32,2136.57Zm-29,188c-13.9-5.21-32.25,10.81-43,15-26.8,10.44-62.63,11.37-88,24-16.17,8-25,25.18-41,32l-37,6c-15.63,7.27-22.94,20.93-43,26l-110,11c-23.55,5.48-44.87,15-66.38,23.93.74,3.69,1.54,7.06,2.38,10q-1,8.49-2,17a7.76,7.76,0,0,0,1.76,3.16c34.14-9.89,65.25-21.5,100.24-30.11l45-2,27-16c8.1-2.21,17.14,1.56,23-2l20-15c24.06-9.33,53.12-11.39,76-20l55-34c29.1-12.61,81.89-6.29,83-47Zm-28,68c-62.75,5.33-98.4,37.45-151,55l-92,29-59,12c-31.77,9.41-63.07,20.78-97.28,30.16-3.88,7.25-8.67,14-13.72,15.79-10.84,3.9-43.45,7.61-46,18,3.56.9,5.73,2.3,6.88,4.05h21.12l99-28,54-2,42-23,30-2a208.06,208.06,0,0,0,50-15l73-39c26.64-10.57,70.7-23.43,83-48,1.6-2,1.35-1.37,2-5Zm-899,247.95a97.5,97.5,0,0,1-11.49-12.45l-16.51-.5c-7.44-2.1-12.75-9.43-22-12-24-6.67-42.46-3.92-52-25,.33-.67.66-1.34,1-2,23.51-4.3,40.85,4.46,57.36,13.56l5.64-1.61c-.74-9.38-2.89-19.46-.86-27.49-18.3-7.84-36.16-16.08-54.14-23.46s-35.84-11.85-51-22l-48-39c-15.69-9.58-38.47-12.14-54-22l-14-19-56-53-86-63c-13.54-10.93-17-32.89-31-44-24.59-19.46-48.25-31.37-62-62-18.75-41.78-23.29-87-32-141-7-43.26,19.83-67.46,5-105,2.35-16.79,17-33.4,23-49l39-108c6.66-16.48,11.58-43,24-54,6.33-5.63,21.7,9.75,34-9q12.49-24,25-48,11-11.5,22-23c7.2-12.4,4.95-27.31,14-37h4l2,2c-4.26,32.37-24.17,50.65-35,76q-4,15.5-8,31-9.51,8.49-19,17a294.89,294.89,0,0,0-37,45c-39.21,59.22-56.25,124.53-70,211-4.5,28.34-4.71,92.1,3,115l25,41,21,49c16.83,27.84,49,52.8,74,73l43,44,17,24,33,15c14.79,10,20.54,27.77,34,38l119,71,52,38,36.84,7.29c-3.34-12.43,0-23.38,1.84-34.66h0l-4.68-1.62c-10.09-6.22-28.34-23.5-37-27l-28-4-20-19-70-43-28-30c-8.05-4.71-19.05-2.68-26-7-26.29-16.35-46.72-41.18-66-65l-37-33q-5-9.5-10-19c-6.61-7.74-24.71-8.32-33-19-14.09-18.15-18.26-44.27-31-64-8.17-12.65-23.47-22.05-28-38-3.4-12,8.49-19.5,5-34-3.07-12.82-15.21-19.58-18-35-5.29-29.38,11.39-53.51,17-75,4.6-17.62-2.84-38.16,2-55q8.49-11.5,17-23c8.12-15.32,11.95-44.41,18-60l5-3h1c2.73,12.52-9.65,32.76-13,46-3.42,13.51,3.1,25,0,38-3.5,14.76-12.55,30.79-16,48-9.65,48.22.46,110.4,16,143q10,15,20,30c9.16,19.82,9.2,39.71,20,56,21.14,31.88,54.66,51.73,78,81l21,30,33,15,30,36,96,54c22.2,13.92,39.89,36.77,62,49l24.19,6.65c-.06-.23-.12-.47-.19-.7-4-13.79-5.94-30.59-9.23-45.87l-10.77-8.08c-7.63-4.24-25.47-2.29-33-8l-13-20c-8.55-4.79-19.92-.08-28-6l-55-53c-49.34-39-105.38-79.67-137-136l-20,1c-5.84-2-20.71-52-25-61-30.4-64.26-50.32-144.46-28-235,12.95-52.5,27.54-105.33,48-151,10.89-24.32,30.2-43,41-66q12.49-32.5,25-65,4-8.43,8.22-16.68a3.6,3.6,0,0,0-.22-.37l-12-5c-1-28.73.19-29.4,17-43l-2.34-4.69-4.66,4.74-23,34c-8.25-7.67-9.22-18.18-19-25v-4l11.63-5.33a99.85,99.85,0,0,1-22.63.28c-5.2-.48-7.62-3.52-12.69-2.63h0c-33.43,38.42-67.17,76.19-94.3,122.68-13.75,23.56-17.25,49.75-28,78-11.4,30-31.44,54.22-43,85q-5.51,26.49-11,53c-5.88,20.32-15.57,37.06-23,55-4.19,10.11-3.79,20.77-8,32-6.88,13.41-24.11,17-31,33-11.79,27.39-6.63,63.2-13,98-5.86,32-15.51,69.88-3,103,17.79,47.07,53.6,74.07,82,110q11,16.5,22,33c11.08,6.86,22.35,8.52,32,16l22,24c6.46,4.44,16.85,2.41,24,7l14,19,44,41,96,64c27.62,20.12,53.12,46.54,86,61,18.54,8.15,44.28,5.89,65,14,18.91,7.4,32.5,23.09,55,27l24-2,33,13,.49.14C1128.6,2653.36,1129.65,2648.75,1129.32,2640.52Zm-421-937.95c13.16-34.36,31.29-54.79,57-76l3,1c-2.47,32.68-28.29,33.71-37,51l-3,20c-4.44,15.76-13.63,30-27,37C695.94,1727.75,705.46,1710.06,708.32,1702.57Zm307,884c-18.44,8.36-30.94-15.39-44-21-34.36-14.76-63.54-23.86-91-44-17.44-12.79-31.94-35.34-50-46l-29-7q-9.51-12.5-19-25l-51-44c-34.71-25.31-81.29-47.88-107-82l-38-70c-9.61-16-29.5-27.77-35-46-9.17-30.46,7-136.63,15-159l5,2c9,44.8-15.61,85.36-6,124,4.43,17.76,18.41,33.29,27,48,17.08,29.21,28.1,59.47,48,85,17.08,21.91,47.16,36.69,69,54l55,57c12.66,10,27.27,11.72,42,21l29,33,75,51,22,21c6.2,4.62,14.91,2.51,24,5,22.37,6.12,46.74,22.45,58,40l1,2Zm899-63c-19.76-3.23-49.84-10.9-74-5-22.63,5.52-34.59,22.29-64,28-72.5,14.09-139.66,24.3-210.16,35.36a30.89,30.89,0,0,0-3.84,7.59c2,1.33,4,2.66,6,4,.1,5.38-2,14.58-5.1,23.81l8.1.24,76-23c19.66-5,38.1,3.58,59-1l33-15,81-10c19.89-3.88,38.14-12.27,55-19l32-5c44.45-11,74.18-7.68,102-36v-4C1984,2493.24,1952.09,2529.74,1914.32,2523.57Zm-55,57c-34.06,8.37-71,7.82-107,17-23.77,6.06-46.71,17.44-72,24-39.72,10.31-82.75,13.16-126.12,16.68-2,3.53-4.07,6.15-5.88,7.27l-23,6v12l-5,8.25q4.23-.57,8-1.2c61.25-10.24,120.53-15.5,179-28l53-5c11.5-3.92,17-15.36,31-18,20.71-3.91,40.89,2.87,60-2l80-30c19.1-5.75,41.62-.57,51-16v-4C1941.56,2560.39,1892.21,2572.48,1859.32,2580.57Zm-59-636q-8-11-16-22-2.5-22-5-44-6.77-11.28-13.54-22.56c-2.64,3.39-5.15,6.88-7.46,10.51a95.37,95.37,0,0,0-11.38,24c11.52,36.54,9.56,72.94,17.38,115.06,2.64,14.17,8.12,32.73,4,50a55.23,55.23,0,0,1-3,8.85v11.1l8,13v32a266.89,266.89,0,0,1,3,35.94c13.45-23.59,22.27-51.75,28-83.89C1811.13,2034.32,1810.27,1979.31,1800.32,1944.57Zm-732.21,159.87h0c-4.81-8.58-9.58-17.28-14.79-25.86-17.73-29.23-42.63-59.4-50-98q3.49-13.5,7-27c1.41-17.84-15-24.6-18-40a86.27,86.27,0,0,1-1.42-14.66l-.58-.39q-.5-12-1-24c-4-14.6-21.29-22.85-33.79-32.76,1.93,20.66,5.78,43.3,7.79,55.81q.49,20.49,1,41c6.25,37.23,8.21,74.92,20,106,5.14,13.56,14.39,28.22,23,39l15,14c6.39,11.51,5.41,24,12,34,4.76,7.19,10.87,13.73,17.53,20,5.8-10.76,17.15-19.85,24.47-28.08Q1072.08,2114.25,1068.11,2104.44Zm-47.79,53.13-9-26-18-23q-2-11-4-22c-4-6.33-14.47-9.29-19-16-12.29-18.25-13.73-42.09-21-66l-12-31c3.69-6,13.29-14,11-22-2.71-4.4-10.77-7.3-15-10,1.71-12.35,5.79-24.35,8-39,4.64-30.68-4.61-64.41-3-94.82h0l-4-12.22c-2.81-3.22-7.15-3.14-10-7l23-12c.32-11.5,4.4-14,7-20,3.78-8.66-5.62-53.77-2-64,3.16-8.9,11.34-9,12-23-.2-.36-.4-.71-.6-1-15.56,23.86-33.88,46.9-44.4,76.08-5.34,14.84-1.47,35.52-8,52-5.92,15-18.59,26.76-23,45-5.82,24.1,2.06,50.59,6,72,11.49,62.48,10.31,126.85,35,174-1.17,9.89-6.56,11.79-10,19-.44,7.6,12.79,6.16,18,11,7,6.47,8,16.36,13,25l20,23,41,43q3.93,7.11,7.86,14.24c2.84-10,4.79-19.65,10.14-28.29l11.41-12.12A165,165,0,0,1,1020.32,2157.57Zm1034,44c-12.65-8.7-21.47-4.2-41-8l-20-7c-16.21-3.15-63.4,21.48-78,27l-96,43-51,16c-12.9,7.52-16.69,25.34-29,33l-41,13-23.26,11.35c-.91,2.87-1.83,5.73-2.74,8.6-5.9,9-28.24,13.65-37,25-3.84,5-6.59,11.88-8.46,19.88,33.09-10.45,64-22.65,93.46-39.83l131-76,50-14c27-12.29,53.53-29,85-36,24.62-5.48,47.6,5.14,67,0C2056.73,2212.08,2055.82,2208.7,2054.32,2201.57Zm-1027-281.05c-1-4.7-5.91-10.81-8-17-2.64.1-5.14.15-7.49.12a78.26,78.26,0,0,0,2.49,9.93c2.84,8.71,7.28,16.25,11.4,24.18C1026.78,1930.15,1028,1923.56,1027.32,1920.52Zm-19,365q-2-16-4-32l6.57-11.17c-1.81-1.62-3.67-3.22-5.57-4.78l-31-23c-3.84-8.32-3.54-13.56-7-20l-20-4c-6.15-4.76-5.31-21.92-9-29l-29-32c9.46-31.74-21.07-45.39-26-69-3.72-17.89,10.52-23.39,7-44-5.54-32.49-6.3-68.5-12-106q-1-26.5-2-53c8-49.18,10.49-96.23,29-135,7.54-15.8,29.37-24.51,34-40q1-14,2-28l.09-.23c-1.36-2.28-2.73-4.55-4.09-6.82-4.94,0-14.32-1.15-25.2-2.93a399.58,399.58,0,0,0-27.8,52l-30,84q-2.51,12.5-5,25l-19,12c-12.5,9.36-21.84,29.72-26,47-10.09,42-2.47,97.68,6,136q5,21.5,10,43c-2.15,8.91-11.54,12.18-14,22,8.21,10.41,22.39,14,30,25,7.49,10.76,2.58,28.2,8,37l31,36c16.23,21.27,28.66,44.33,45,66,6.87,9.1,22.83,11.17,32,18,18.83,14,34.69,36.6,46,58,2.86.52,5.48,1.09,7.9,1.68C1003.17,2299.14,1008.89,2294.84,1008.32,2285.52Zm-148-239c-35.63-22-34.23-177.32-12-217,5.85,1.14,5.85,2.63,9,6-26,62.76-1.07,142.4,5,210ZM615.73,1611.86l-19.52-6.22a54.76,54.76,0,0,0-11.81-2.14c-2.9,2.46-5.8,4.92-8.65,7.4-2.53,2.19-5,4.41-7.43,6.67l-3,1c-.41-1-.81-2-1.22-3-14.72,7.3-32.1,20.2-44.45,28.93a48.15,48.15,0,0,1,15.67,1.11q1,2.49,2,5c-42.65,57.75-100.42,103.15-145,159-22.86,28.64-47.56,57.42-67,89q-14,26.49-28,53l-20,17c-15.47,12.58-19.46,28.77-27,50,17.46,21.07,49-36.9,55-46s15-12.84,21-21q6.49-13.5,13-27l44-55c7.06-10,10-21.41,17-32,4.83-7.29,19.24-9.62,25-17,10.53-13.47,17-28.19,29-40l5,1c3,21.34-37.61,50-49,70q-12.51,27-25,54c-14.75,24.26-35.32,42.29-52,64-20.81,27.09-40.47,59.72-67,81l-20,16-22,2-13,15c-21,23.69-46.25,38.47-52,78l1,2c20.31,9,37.87-13,46-24,29.75-40.19,79.85-50.36,104-99,11.56-23.27,36.45-29.87,49-50,16.46-26.38,23.81-55.71,41-80,24.54-34.66,56.33-63.5,79-100q8.49-18,17-36c3.68-12.28,3.1-25.28,9-35l59-69c12-15.1,32.48-35.54,53.2-58.19C616.92,1612.24,616.32,1612.05,615.73,1611.86Zm-146.4,23.45c-20.44,23.69-42.55,46.24-60,71.26-5.44,7.8-4.65,18-10,27l-17,14-48,52c-30,39.72-52.63,84-80,127l-30,32-30,46c-13,18.26-72.84,72.43-65,101,.66,1,1.33,2,2,3,24-.61,19-18,32-28,15.91-12.28,32.08-19.9,44-36,7.83-10.57,10.41-23.66,18-35l18-16c4.93-6.88,3.21-17,8-25,5.16-8.63,17.37-14.07,23-23l26-49,22-19q4-10,8-20l24-37c22.08-28.83,55.31-48.25,77-77,8-10.61,11.43-23.35,19-35l40-36,17.42-23.23C494.17,1648.35,479.54,1643,469.33,1635.31Zm1491,482.26-12-40c-6.61-16.7-19.59-28.27-28-43-16.67-29.2-11.67-61.61-43-76h-5c-9.4,7.14.33,45.23,4,55,11.54,30.71,23.83,60.24,40,87,8.39,13.9,22.83,29,27,46-12.4,5.86-24,17.16-39,18-1.84-8.5,2.56-16.83,4-25,3.19-18-1.34-34.82-6-47-4.46-3.47-4.72-5.74-13-6-25.11,24.39-6,50.94-20,83-3.9,8.95-14.57,15.24-22,21-7.81,6.07-11.71,11.75-26,12l-1-2c6.44-8.39,14.56-14.29,19-25,8.43-20.34,9.1-44.43,16-67,5.21-17,19.41-31.84,15-57q-10-30.5-20-61c-6.17-29.39-.4-59.63-8-85-10.09-33.73-23-64.88-37.12-94.9-8,10.62-17.6,20.37-26.8,30.5q.94,2.22,1.92,4.4c20.75,46.29,66.27,172.38,48,242-6.61,25.16-19.15,48.09-29,70q-6.51,21-13,42c-3.18,5-8,9.51-13.56,13.61q.79,11.67,1.56,23.34a29.91,29.91,0,0,1-8,13.53c3.54-.7,6.85-1.22,10-3.48,9.12-6.6,15.64-18.87,28-22,14.06-3.57,25.2,1.85,37-3,19.87-8.17,33.28-25,55-32,12-3.86,24.12,3.68,35-1l24-17c20.89-7.55,41.48,7.88,51-11C1997.67,2133.71,1973.76,2136.77,1960.32,2117.57Zm-229,154.95-18,15.19q1-.55,2-1.14c7.53-4.5,14.63-11.18,21.69-17.66C1735,2270.08,1733.11,2271.27,1731.32,2272.52Zm-1361-749c-.58-3.22-1.17-6.43-1.75-9.65-28.07,27.59-55,56.16-80.25,87.7l-83,93-52,54c-14.25,11.47-49.76,50.14-45,72,35.28,16.2,52-29.87,63-47l45-40a881.15,881.15,0,0,0,86-100l47-61c8.9-11.17,20.4-20.55,31.49-30.32C376.05,1535.94,371.69,1528.62,370.32,1523.52Z"/><path class="cls-2" d="M1210.32,2572.57c-.75,4.54-.71,5-4,7-24.13,9.78-53.47-13.88-69-20l-54.16-10.71c-3.34-12.43,0-23.38,1.84-34.66q22.15,7.66,44.32,15.37c11,4.6,21,14.18,31,19C1185,2560.42,1197.86,2544.42,1210.32,2572.57Z"/><path class="cls-2" d="M1568.32,2593.52c.1,5.38-2,14.58-5.1,23.81l-58.9-1.76-18,7-36-3c-24,3.34-51.94,11.72-79,7-11.63-2-25.07-13.12-38-10-10.4,2.51-11,9.89-27,10l-15-19c-19.71.5-90.38,4.93-101,14-23.71-11.86-44.94,2.08-73-5-11.11-2.8-21.21-8.69-31.64-14.44l5.64-1.61c-.74-9.38-2.89-19.46-.86-27.49,21.08,9,42.74,17.53,65.86,23.54,46.39,12.06,62-23.17,105-15l69,16h48l109-3c27-4.48,53.15-8.62,78.84-12.64a30.89,30.89,0,0,0-3.84,7.59C1564.32,2590.85,1566.33,2592.18,1568.32,2593.52Z"/><path class="cls-2" d="M1629,2518.73c-3.88,7.25-8.67,14-13.72,15.79-10.84,3.9-43.45,7.61-46,18,3.56.9,5.73,2.3,6.88,4.05h-44.88q-11,5.49-22,11l-62-4c-25,4.16-64.94,16.37-93,11l-25-8c-12.88-2.39-23.69,8.4-41,5-34.59-6.79-58.13-23.19-87-34l-28-9-25-1c-16.47-6.09-30.27-23.94-48-31l-15.81-4.35c-.06-.23-.12-.47-.19-.7-4-13.79-5.94-30.59-9.23-45.87l25.23,18.92c35,22.44,101.94,50.31,144,63l42,5,35,11c10.35-2.27,23.44-10,42-7l49,10c25.27,5.17,52-4.24,72-8,46.83-8.82,90.79-5.94,134-17Q1623.74,2520.19,1629,2518.73Z"/><path class="cls-2" d="M1628.32,2489.52a7.76,7.76,0,0,0,1.76,3.16c-15.43,4.46-31.47,8.57-48.76,11.89l-60,3c-43.21,6.77-72.44,11-115,4-39.76-6.52-94.21,13-124,5l-15-9c-24-9.29-47.57-12.16-71-20-24.65-8.26-44.21-28-64-41l-22-4a112.69,112.69,0,0,1-34-16l-14-13.68h0c-7.19-11.14-16.17-20.52-23-31.36-4.7-7.46-14.49-34.77-19.27-49.48,36.89,20.46,61,60.69,92.27,83.53,19,13.87,44.35,21.06,67,31,18.66,8.19,34.66,19.47,57,25l42,1c9.37,2.37,13.91,12.43,22,15l140,3c49.87-8.17,103.41-1.11,146-13,14.36-4,28-9.42,41.62-15.07.74,3.69,1.54,7.06,2.38,10Q1629.33,2481,1628.32,2489.52Z"/><path class="cls-2" d="M1247.32,2378.57l-33-7-28-23c-26.54-17-63-20.43-93-34-37-16.74-54.92-47.61-82.43-72.22l-6.57,11.17q2,16,4,32c.57,9.32-5.15,13.62-2.1,21.73,34.81,8.56,27.3,24.16,53.1,38.32,13,7.15,25.12,2.23,33,14,7,10.49,8.16,26.56,18,34,10.87,8.22,33.06,4.76,45,14l20,18c22.78,13.38,85.87,28,121,13h2C1296.73,2412.61,1267.48,2386.89,1247.32,2378.57Zm-6,38c-23.88,6.25-69.44-32.16-89-40-10.07-4-27.61-8.83-27-20,53.16,6.25,83.78,30.88,116,57Z"/><path class="cls-2" d="M1675.06,2329.92c-.91,2.87-1.83,5.73-2.74,8.6-5.9,9-28.24,13.65-37,25-3.84,5-6.59,11.88-8.46,19.88-28.43,9-58.45,16.7-90.54,25.17-46.69,12.32-138.42,19.22-190,4-21.57-6.37-29.22-22-46-32l-40-15-38-28-37-3c-18.4-7.64-27.65-28.63-45-37-20.86-10.06-52-11.35-70-25q-8.5-13.5-17-27c-7.59-5.08-19.92-1.73-26-8q-4.08-7.38-8.14-14.76c2.84-10,4.79-19.65,10.14-28.29l11.41-12.12c12.23,12.54,26.18,24.14,38.59,34.17l51,50,28,7,68,35,93,59c11.66,7.08,25.81,20.38,40,24l39,1c86.25,13.66,162.29-12.75,218-34Z"/><path class="cls-2" d="M1774.32,2236.52a29.91,29.91,0,0,1-8,13.53,30.37,30.37,0,0,0-8,2.52c-7.33,3.68-14.3,9.91-21.3,16.34h0c-2,1.17-3.9,2.36-5.69,3.61l-18,15.19h0c-29.5,17.18-63.76,27.29-97,39.85l-50,25c-12,4.36-25,1.42-40,4l-37,11c-46.86,15.15-132.22,14.57-161-16l3-8c34.46-4.86,56.33,8.44,85,14,30.75,6,56.29-14,80-19,16.14-3.39,25.66,6.91,39,4,11.66-2.55,23-10.2,33-14,59.54-22.72,109.56-56.12,159-89,12.42-8.25,31.5-16.17,45.44-26.39Q1773.55,2224.85,1774.32,2236.52Z"/><path class="cls-2" d="M1776.32,2156.46c-10.36,18.17-23.45,33.63-40,46.11l-33,18c-14.54,13.42-25.44,29.33-42,41-54.38,38.32-139.72,57.89-216,72-20.32,3.76-40.72-5-59-8l-90-2c-25.5-5.94-36.9-22.83-56-34-13-7.58-33.71-5.31-46-12l-51-47c-10.65-7.59-25.77-8.62-38-15-7.55-27.51-33.08-44.67-53.47-64,5.8-10.76,17.15-19.85,24.47-28.08q-4.24-9.27-8.21-19.08c7.93,14.13,16,27.89,26.21,40.13,11.41,13.61,28.21,18.49,43,29l29,36c18.31,22.82,50.78,42.43,77,57,33.1,18.38,135.77,50.64,194,40,41.78-7.64,79.35-20.1,116-29,20.85-5.07,41.21-4,57-14,22.64-14.34,30.35-40.5,50-57l70-51c15.46-16,14.83-42.13,23-66,2.75-8,8.22-16.27,12-25.15v11.1l8,13v32A266.89,266.89,0,0,1,1776.32,2156.46Z"/><path class="cls-1" d="M1062.34,2412.88q-16.52-16.14-33-32.31l-28-4-31-26-22-5-8-11-36-34-9-22-38-24c-12.54-10-26.34-26.48-33-42q-3.51-11.51-7-23l-22-11c-3.76-9.58-2.13-18.59-7-26l-16-16-9-38c-14.51-52.84-31.94-128.3-19-196,10.14-53,34.31-84.24,54-125,4.89-10.14,2-28.1,8-39l20-20c13.18-21.12,13.21-53.41,26-75l9.44-10c9.88,3,23.9,6.15,37.41,8.7l-6.85,18.27-27,28-3,29q-17,26.49-34,53c-4.63,10.93.29,23.84-4,36-5.44,15.36-22.59,20.74-28,37-21,63.22-21.82,169.25-2,235,7.58,25.13,27,37.23,39,57q10,26.49,20,53c15.75,25.64,54.33,60.92,78,80l27,27c6.29,3.62,19.64.94,25,4q2,10.5,4,21a99,99,0,0,1,32.73,11.47c4.78,14.71,14.57,42,19.27,49.48C1046.17,2392.36,1055.15,2401.74,1062.34,2412.88Z"/><path class="cls-2" d="M1554.2,2638.25c-2,3.53-4.07,6.15-5.88,7.27l-23,6v12l-5,8.25c-29.57,3.9-73.35,4.85-104-.2-15.17-2.5-39-6.32-58-3l-40,7-23-7c-58.77,4.95-123.55,1.63-170.51-11.86,3.79-3.35,4.84-8,4.51-16.19a97.5,97.5,0,0,1-11.49-12.45l16.49.5,91,10,64,15,108-6,82-1C1504,2642.54,1529.16,2640.28,1554.2,2638.25Z"/><path class="cls-2" d="M1711.32,1858.57l-5-1c-17.92,34.1,9.33,69.54,4,107q-3.51,27.5-7,55v34l-18,19c-7.36,11.91-5.19,26-11,41-3.44,5.18-8.32,3-14,6-15.17,7.87-31.84,17.91-42,31l-12-3c-24.21,11.83-44.36,29.8-74,39-74.72,23.21-223.34,2.8-287-19-20.25-6.94-35.94-23.42-52-35-14.34-10.34-45.48-21-52-38q-1-9.5-2-19c-15.94-9.17-31.77-17.36-38-36q-.51-10.5-1-21l-15-11c-8.84-6.74-17.9-22-22-33-11.61-31.19-6.11-70.46-13-109-3.38-19-14.25-43-10-66,6.53-35.33,30.16-52,39-83l4-1c4,27.91-12.06,61.43-17,89-3.13,17.45,5.43,30.64,8,42q1,20.49,2,41c4.79,26.8,9.35,51.76,18,75,15.25,41,42.16,75.22,66,108,7.45,10.23,14.37,27.36,25,34s22,6.09,31,13c12.1,9.24,21.45,24.51,36,31,27.52,12.26,68.5,7.1,102,13,25.77,4.53,50,11.92,72,16,75.27,13.94,141.48-36.33,185-59l41-20c2.79-14.79,3.16-27.82,8-40q11.49-25.5,23-51c4.64-18.11-4.44-36.93-1-55q5-17,10-34c7-34.64,4.91-104.29-2-137-5.69-26.88-20-46-29-70q-2-22.5-4-45c-17.36-45-45.19-90-68-131l-36-70q-5-16-10-32l-35-39c-16.88-22.79-26.32-55.16-49-72-10.76-8-28.65-7.19-40-16-21.15-16.42-32-45-56-59-15.88-9.27-37.72-12.13-55-20-16.69-7.61-27.54-22.35-47-29-54.81-18.73-136.38-21.83-201-11-31.26,5.24-62.4,10.94-91,21-68.65,24.14-124,62.27-176,103q-27.51,28-55,56l-18,3-38,37-34,13-49,57c-42.88,35.33-74.19,83.52-107,129-7.14,9.9-14.93,19.41-23,28.74,10.21,7.73,24.84,13,38.41,14l.58-.77a23.15,23.15,0,0,1,11.33-4.11c12.35-8.73,29.73-21.63,44.45-28.93l-.78-2c22.12-37.91,52.66-68.16,86-95l41-37c13.41-7.93,30.58-7.07,43-15,18.39-11.73,26.73-35.77,44-48,13.19-9.34,29.62-13.36,42-23,20.79-16.19,35-39.1,54-57,9-8.5,16.6-6.65,31-11q17-10,34-20l18-1c6.95-2.69,12.6-15.3,20-19,18-9,39.91-8.46,61-15l39-15c33-7.78,70.46,4.67,98,9l58,2,28,19h23c14.33,4.15,32.41,27.25,53,17l5-3c-9.92-41.19-102.54-42.38-145-55-18.92-5.63-41.3-12.23-63-16-15.75-2.74-34.86.71-47,3-70.47,13.3-113.79,40.62-169,65l-72,30c-18.71,12.31-31.07,35.72-50,49-37.19,26.08-70,49.78-98,85-8.67-.45-13.94-4.7-22-2-15,5-28.59,25.87-40,36-32.34,28.7-62.88,63.24-90,97-7.63,9.5-17.15,26.27-29,31h-1c-.34-1.33-.67-2.67-1-4q5-11,10-22l29-33,6-18c5.12-8.53,18.91-13.33,25-22,11-15.69,18.28-34.21,33-46,21.79-17.46,48.87-28.3,70-46q9.49-14.5,19-29l57-39c73.41-54,146.52-104.22,239-140,44.21-17.11,118.45-35.53,175-18l30,19c32.94,11.73,71.46,9.73,102,21,40.78,15,72.24,58.24,101,87,31.56,31.55,68,64.5,94,101l51,90c18.08,29.67,40.75,60.25,54,94,8.87,22.62,8.25,45.5,15,73,3.93,16,13,31,19,45q10,39.5,20,79c7.58,34.92-5.65,69.44-11,97l-9,80c-9.19,44.83-37,95.92-75,112l-19,4c-29.32,10.84-58.21,25.11-92,32-18.27,3.73-29.65-6.61-45-4-20.57,3.5-43.25,6.12-65,0-29.13-8.21-54.67-25.08-80-38-16.55-8.45-43.77-13.77-59-24-16.72-11.25-29.32-38.47-40-56-16.17-26.57-41.84-54.8-36-96-7.34-7.14-16.88-7.21-22-17-7-13.48-2.61-32.53-6-50q-5-11-10-22c-3.84-14.27,6.48-32.72,9-45q3.5-31,7-62c3.29-14.77,9.87-26.27,14-39,9.25-5.49,22.1-3.76,35-7,60.43-15.2,127.58-2.47,153,41v5c-38.51,6.11-65.88-53.84-119-40-17.75,4.62-14.3,31-29,37-2.9-9.88-6.57-15.88-13-22-46.46,8.31-39,107.89-27,151,4.58,16.42,13.64,31.75,20,46l19,38c6.2,3.63,18.39,2.09,26,5,12.54,6.18,13.49,22.71,21,34,9.85,14.8,35.24,25.79,54,31,31.06,8.61,97.35,17.13,136,9,18.5-3.89,33.58-18.62,49-27l42-19s30.66-46.23,31-47c8.24-19,.94-57-2-75q.5-15.49,1-31l-8-13q-.51-30.49-1-61l-33-134q-9.51-20.5-19-41c-8.15-24-7.88-52-17-74-24.17-58.37-81-112.45-140-136-12.13-4.85-32.67-11.79-49-9-13,2.22-25.4,7-41,4l-73-17c-36.34-6.07-57.54,9.56-80,17-43.36,14.37-90.46,24.78-125,49-10,7-14.9,18.52-24,26-10.9,9-23.82,12.52-36,21q-26,34-52,68c-14.1,18.11-28.87,35.28-43.69,52.32,5.07-.89,7.49,2.15,12.69,2.63a99.85,99.85,0,0,0,22.63-.28l12.37-5.67c16.56-10.56,37.69-52,51-69,23.35-29.75,66-68.39,98-89,10.78-7,25.08-6,38-11l60-30,45-10c31.93-.09,101.5.13,124,10l46,29c5.18,2.63,40.91,11.08,42,12l9,15,26,28,31,26c20.71,29.88,35.69,98.14,48,137,9.64,30.42,26.46,57.51,33,91l-3,61c6.66,40.76,37.45,126.5,14,165-20.11,33-63,34.33-105,46l-30,11c-23.26,4.29-47.44-3-62-8-69.06-23.77-113.11-57.37-132-131-6.15-24-14.44-77.88-2-104h3c14.18,28.76,8.79,74.51,19,108,11.31,37.08,40.81,56.74,65,81l18,21c7.56,5.44,65.93,7.8,79,5l23-10c48.21,27.23,103.41-34.24,113-77,5.06-22.52-2.8-44.11-8-60l-4-3c-26.75,18.67-11.31,82.77-35,98l-13,2c-22.21,6.15-47,17.16-57-9-14.48-9.42-49.47-1.33-68-6-52.61-13.29-95-44.68-95-111,0-16.63,1.14-34.43,8-45,4.66-6.88,12.12-6.09,22-8,42.41-8.2,68.12,13.77,86,34v1c-13.94,14.28-50.34-16.76-63-20-11.71-3-21,1.06-29,4-2.38,3.37-3.38,3.23-4,9,23.69,25.36,113.16,85.74,133,14,11-39.68-23.59-81.16-28-114v-1l5-2c50,24.89,31.71,93.72,31,157-12.42,16.08-15.69,10.85-25,34-.34,1-.67,2-1,3h-2c-9.69-7.93-11.59-24.92-25-29-18.17-5.54-35.23,2.68-48-6-14.63-10-25.34-36.12-49-25-5.38,29.36,25.83,43.62,39,59l7,11c4.48,2.9,80.64,15.36,88,13,15.16-4.87,41-39.52,46-54q.5-15,1-30c9.25-56.66,10.41-149.62-12-190-15.09-27.19-50.82-41.14-52-80,20.41-7.86,49.25,15.3,53,30,2.53,9.88-1.65,18.59,3,27,9.16,16.54,22.08,29.3,27,51l6,87c3.12,15.52,13.06,35.13,9,54-7.63,35.39-21.71,70.34-35,102-4.23,10.08-12.36,17.35-14,30,47.64,17.77,48.16-49.89,58-81q9.5-18,19-36c4.27-19.25.79-45.75-2-63-3.73-23.19-1.63-40.89-7-62-6.59-26-16.55-51.19-24-75-7.77-24.85-13.76-51.76-26-73l-36-38-32-42-15-4c-21.61-8.63-41.5-21.71-67-28l-44-4c-18.79-4.56-37.67-22.34-65-16-15.47,3.59-28.82,13.69-42,19l-32,10-35,2c-19.72,7.35-31.71,26.34-49,37l-48,25c-15.76,10.93-16.86,29.43-28,45q-25.19,25.62-50.34,51.26l2.34,4.69c-16.81,13.6-18,14.27-17,43l12,5a3.6,3.6,0,0,1,.22.37c40.7-78.77,102.37-144.25,183.78-181.32,29.93-13.63,103-41.71,148-31,30.24,7.19,51.91,23.17,75,37,18.21,10.91,46.31,14.72,55,35-.4,7.32-2.07,8.78-5,13l-3,1-41-30-19-17c-81.88-33.43-133.19-7.4-200,19-47.52,18.78-98,38.79-125,78q-14,30.5-28,61l-26.56,28c9.88,3,23.9,6.15,37.41,8.7q2.58-6.87,5.15-13.73c18.24-36.52,45.75-76.11,77-100,26.5-20.25,54.31-41.38,92-50l58-4,31-10c43.29-8.24,94,29.43,107,52v1h-3c-17.79-12.94-38-23.89-64-29l-37-1c-15.42-2.47-41.5-3.3-56,1-12.57,3.72-21.15,14.09-32,19-9.65,4.36-20.56-.08-31,4l-34,25a411.07,411.07,0,0,0-100.2,108c10.88,1.78,20.26,2.92,25.2,2.93,1.36,2.27,2.73,4.54,4.09,6.82,10.09-25.24,78.11-88.59,111.91-85.77-4.9,6-12.67,6.38-19,11-15.59,11.39-24.5,33.78-47,38q-11.51,25-23,50l-.6.92c.2.32.4.67.6,1-.66,14-8.84,14.1-12,23-3.62,10.23,5.78,55.34,2,64-2.6,6-6.68,8.5-7,20l-23,12c2.85,3.86,7.19,3.78,10,7l4,12.22a95.47,95.47,0,0,1,3-20.17l15-26q14-33,28-66c11.56-31.17,33-74.66,70-79-2.11,14.13-30.55,41.43-39,54-24.79,36.91-50.9,86-60,136-1.53,8.43-1.09,21.36.21,35.19,12.5,9.91,29.83,18.16,33.79,32.76q.51,12,1,24l.58.39c-.31-14.29,1.77-30.11,3.42-40.34l6-66c10.21-52.32,26-85,55-117h4q-10,23-20,46-9.51,32.49-19,65c-6.86,27.09-15.07,82.39-8.49,117.07,2.35,0,4.85,0,7.49-.12,2.09,6.19,6.95,12.3,8,17,.68,3-.54,9.63-1.6,17.23h0c3.47,6.67,6.72,13.63,8.6,21.81,6.43,27.86,7.21,65,21,87l44,52c8,17.33,3.91,28.69,18,39,17.31,12.65,67.14,34.17,76,51q1,13,2,26c88.56,54.18,168.62,75.44,302,53h55c13.24-2.28,18-10.46,28-15,21.33-9.65,46.19-6.51,51-33l-2-4c-34.38-8.26-49,15.3-72,22l-26-1-23,11c-32.34,10.39-82,2.19-113-4-23.47-4.69-50.25,3-70,0-28.25-4.37-96.65-33.08-109-53,6.44-6.11,30.35-5.42,40-2l39,19c24.87,7.74,50.21,2.68,79,9l23,11c54,14,107.29-10.26,145-20l70-17,35-1,22-21c12.41-8.52,46.75-24.06,53-36q.5-10,1-20l15-37c2.44-9.61-2.88-19.19-3-25-.19-9.1,7.1-24,9-36C1751.36,1970.13,1734.92,1869.92,1711.32,1858.57Zm-434,58,5-2c18.14,2.65,31.23,7.27,51,7l2,5c-20.29,13.13-42.54,6.2-58-6Zm-204-259c-.34-1.33-.67-2.67-1-4,9.83-17.84,17.64-27.32,36-37l13,1c2,1.36,1.62,1.1,3,3C1115.94,1639.13,1100.63,1657.89,1073.32,1657.57Zm102-29c-5.94-4-6.23-12.15-13-16-9.79-7.17-22.67,2.84-32,4-6.61-9.64,5-18.44,13-23,22.6,0,42.41,7.08,56,17C1198.23,1624,1188.65,1637.42,1175.32,1628.57Zm80-66c20.48,2.82,83.25,29.87,78,52-2.77,6.78-7.5,10-13,14-11.22-4.5-61-48.55-66-58C1253,1567.2,1254,1565.55,1255.32,1562.57Zm10,83c13.78,6.47,22.89,3.67,29,18l-3,5c-13.21-5.45-64.63-32.39-68-45l8-7C1251.92,1616.05,1261.88,1629.23,1265.32,1645.57Zm-210-77c2.08-9.92,9.24-21.46,18-25,10.58-3.92,18.64,6.47,27,9,12.44-6.94,21.28-24.49,36-35,40,.07,59.79,13.83,86,26,2.77,3.68,4.31,3.69,5,10l-4,2c-25.94,10-38.32-24.55-70-18-22.36,4.62-34.69,21.31-53,29Z"/><path class="cls-2" d="M1835,1763.9c-6.11,7-10.84,15.26-15.51,23.61a163.55,163.55,0,0,0-7.14-18.94c-8.32-18.29-23.47-29.53-33-45-5.77-9.38-3.55-23.49-8-35-6.75-17.51-18.54-33.32-29-48-17.61-24.72-46.82-39.67-64-65q-14.5-31.5-29-63c-11-18.76-24.86-31.63-40-46-4,.4-3.92.33-6,2l30,53c3.16,9.06.46,19.12,5,26,8.62,13.06,24.19,17.88,31,34,11,25.92,10.39,65.72,30,83,3-1.26,1.2,0,3-2,3.08-9.55-5.65-22,4-28,9.6-4.37,20.69,1.57,26,5,7.6,21.34,11.52,49,21,68,17.19,34.32,35.36,67.93,51.88,103.1-8,10.62-17.6,20.37-26.8,30.5-22.34-52.56-30.77-120-67.08-158.6l-6,2c-.34.66-.67,1.33-1,2-.69,33.24,20.83,44.87,29,71q11,40.5,22,81l10.46,17.44c-2.64,3.39-5.15,6.88-7.46,10.51a95.37,95.37,0,0,0-11.38,24c-.2-.64-.41-1.29-.62-1.94l-33-74q-5.5-26-11-52c-14-45-26.79-89.57-44-132q-18.51-42-37-84l-35-50c-6.42-10.25-20.59-35.29-14-50,7.91-1.63,13.69.49,20,3l4-3q-2.5-4.5-5-9c-67.07-20-60-87.63-105-123l-35-19-36-38-30-15-71-43c-19.3-11-46.48-11.91-66-23-7.5-4.26-10.11-15.9-19-19l-80-1c-75.71,0-143,1.29-199,21-30.29,10.67-63,25.61-88,43l-31,27c-15.09,7.78-41.06,3.53-58,10l-60,39-28,3-49,37c-42,25.66-92.65,43.11-132,72l-29,33c-7.71,9.43-23.26,11.07-31,20l-42,59c-6.3,7.9-13.81,14.88-21.51,21.68-4.76-6.31-9.12-13.63-10.49-18.73-.58-3.22-1.17-6.43-1.75-9.65h0c20.7-20.35,42-40.18,63.75-60.29,9-8.35,9.31-24.45,18-33,10.64-10.47,39.95-23.22,54-32q5-7,10-14,15.49-13,31-26l115-53c18-10.61,32.14-27.71,52-36l66-14c18.79-8.07,29.79-26.12,47-36,21.62-12.42,46.6-15,74-22l59-21,30-22c28.7-11.85,61.54-10.82,93-18,19-4.34,45.1-12.42,71-8,32.31,5.51,56,19.61,82,29,23.81,8.59,52.64,1.71,75,11,45.49,18.89,83.21,50.08,121,77l43,29c8.83,13.18,10.75,27.44,20,39l58,49,23,41c15.31,22,50.14,31.36,68,55,25.71,34,39.12,78.79,64,114l30,34,17,11q5,12.5,10,25c11.24,15.92,28.39,26.78,39,44Z"/><path class="cls-1" d="M457.32,1620.52c-3.3-8.93-2.83-20.11-9-26a55.3,55.3,0,0,0-4.8-4.06c-22.8,27.18-49,52.51-70.2,79.11l-79,98q-16,25-32,50l-33,30a516.64,516.64,0,0,0-35,50l-54,89c-9.69,12-34.73,15.06-31,37l5,3c39.19-14,45.66-37.45,68-67l50-45,45-78c9.18-12.46,27.78-17.41,36-30,7.62-11.65,6.25-28.56,14-39l63-62c9.46-12,11.94-26.56,21-40,8.52-12.62,31.64-23.94,42-38q2.22-3,4.38-6.1h0C457.56,1621.14,457.44,1620.84,457.32,1620.52Zm-35-47q-6-8.51-12-17l-11.91-1.88L217.32,1769.57l-46,42c-11.36,14.63-16.72,34.74-28,49-12,15.24-36,35-27,67l4,6h4c9.39-6.28,12.1-18.75,21-25,12.29-8.62,26.75-10.4,34-24,8.37-15.71,11.27-34.06,21-48,20.29-29.06,53.62-45.34,75-73,11.29-14.61,12.58-38.59,24-54,12-16.15,31.37-29.38,47-42,25.87-20.89,59.45-59.57,81.82-88.27A41.84,41.84,0,0,1,422.32,1573.52Z"/><path class="cls-2" d="M790.32,1298.57c-11.59,9.25-20.59,22.42-36,28-12.07,4.37-22.9,4.68-33,11l-51,48-43,24c-10.34,8.78-23.72,33.5-33,45l-76,73c-22.89,28.89-39.17,63.22-60.62,93.89-.14-.32-.26-.62-.38-.94-3.3-8.93-2.83-20.11-9-26a55.3,55.3,0,0,0-4.8-4.06c11.49-13.7,22.11-27.86,30.8-42.89l9-32q14-10,28-20c12.41-9.4,48.78-46.38,51-63-52.88,9.93-99.25,100.84-129,140-1.65,2.17-3.38,4.42-5.18,6.73a41.84,41.84,0,0,1-5.82-5.78q-6-8.51-12-17l-11.91-1.88,16.91-20.07c41.29-51.48,95.54-90.56,143-136,42.06,3.61,42.46-11.62,70-28l33-14c22.37-13.61,44.6-26.31,69-40q20-14.5,40-29C781.59,1286.84,789,1289.23,790.32,1298.57Z"/><path class="cls-1" d="M667.32,1613.52c-12.23,3.33-23.1,2.73-33.69,1.06l-22.31,30c-21.31,29-48.44,52.65-68,84q-17.51,34.5-35,69c-7.34,11.91-20.86,18.16-29,29q-13,25-26,50l-23,21q-13,28-26,56c-27,44.33-59.44,82.73-91,122-22.42,27.9-64,82.87-101,93-6.15,11.85-8.21,23.47-16,33-16.11,19.7-43.84,24.51-56,49v5l7,2h2l23-15c12.56-3.91,31.5,0,42-6l3-1c6.75-4.82,6.85-11.85,6-22l22-9q17-23,34-46c75.79-62.66,122.39-150,175-236,20.35-33.27,48.62-62.42,68-95l18-49c7.83-12.87,19.27-26.87,31-36l18-13q5.49-14.5,11-29c7.58-13,25.77-22.45,35-35,12.12-16.46,22.64-34.32,32.91-52.33C667.93,1613.35,667.63,1613.44,667.32,1613.52Z"/><path class="cls-2" d="M1630.32,1900.57q-1,21-2,42c-6.3,34.32-11.65,67.75-27,93-16.17,26.6-40.72,47.54-73,58l-41,4c-25.84,8.36-39.59,28.35-84,21-28.38-4.7-81.73-5.55-94-23-.34-1.67-.67-3.34-1-5l9-9c16.21.28,23.7,5,37,7l48-5c4.44,1,9.29,6.26,17,4l16-9,66-22c10.28-5.79,16.2-16.35,25-23l24-7c11.56-5.75,25-19.41,32-30,23.33-35.39,27.83-117.79,19-176-3.11-20.49,3.5-38.71-1-57q-9.51-24-19-48-12.51-42-25-84c-12-34.32-22.54-72.31-49-92l-4,1c.08,33.54,25,49.83,35,77q8,48,16,96,12.5,36.5,25,73c3.53,18-3,62.74-6,81-8.34,50.43,6.75,88.43-16,125-9.79,15.73-34.57,16.1-50,26-18.59,11.93-35.29,31-57,39-23.11,8.47-49.42-2.8-76,2l-30,6-18-8c-53.63,44.5-74.29-7.19-110-29-15.29-9.34-53.71-26.56-40-56,40.85,4.78,35.14,36.17,55,45l74,20,17,10,32-8c19-3.39,38.78,3.39,56-3,19.33-7.17,33.5-25.42,54-34,25.5-10.68,55-14.21,70-35,27.37-37.93,12.91-102.36,5-150q-.51-31-1-62c-11.84-56.28-27.32-102.12-45-149l-9-42-21-30c-8.32-20.73-1.5-53.63-11-74-9.92-21.28-32-30.89-47-47-10.81-11.59-12.79-23.76-22-38-7.4-11.44-61-33.25-77-38-100.15-29.72-239.13-29.91-328,10-17,7.62-34,19.79-48,31q-11,12.5-22,25c-7.29,5.79-20,5.54-27,11l-24,28c-17,13-46.54,12.56-64,25-9.61,6.84-12.21,20.27-20,29-15.25,17.07-43.34,22.16-60,44-17,22.23-30.78,47.6-45.08,72.67h0c-.3.11-.6.2-.91.28-12.23,3.33-23.1,2.73-33.69,1.06q19.33-26,38.69-52c18.35-26.33,34.43-55.12,59-75,35.35-28.58,73.49-53.21,111-80s75.85-62.06,121-80l78-29,58-11c49.16-.57,93.28.57,130,11l44,19,28-3c26.53-.19,52.39,6.67,70,17,41.54,24.37,45,43.49,73,78,12.64,15.57,34.81,22.12,47,39,50.77,70.29,87.39,151,113,247,12.21,45.73,24,95.82,34,145C1642.82,1862.79,1633.82,1884,1630.32,1900.57Z"/><path class="cls-1" d="M269.32,1394.83l-8,5.74c-32.07,24.28-57.82,64.6-100,78-4,7.1-4.38,20.46-7,29-29.36,5.41-49.34,19-49,54l2,2c30.31-2.88,38.45-31.14,58-45,8.45-6,16.29-4.94,27-10q17.49-19,35-38l61-54,3.48-3.77C283.69,1407.24,274.61,1402.32,269.32,1394.83Z"/><path class="cls-2" d="M324.32,1373.57v4L291.8,1412.8c-8.11-5.56-17.19-10.48-22.48-18l38-27.26A40.33,40.33,0,0,1,324.32,1373.57Z"/><path class="cls-1" d="M873.32,2572.57l-37-30-53-19c-30.75-18.67-39.32-58.7-67-79l-21-8-45-27-78-62c-9.92-4.46-20.54-.58-33-5l-13-14c-23.46-17.9-48.71-22.89-46-65,.66-.67,1.33-1.34,2-2h3c19,23.6,30.58,66.78,70,69q5-5,10-10c-6.94-43.36-62.81-61.43-71-109-3.44-20.05,8.25-67,13-85,12.5-47.45,18.66-96.47,36-139,9.29-22.8,25.66-40.49,35-65l27-84c6.62-15.88,22.52-28.87,27-44q-.51-7.5-1-15c-.4-11.85,3.71-19.31,8-27,22.46-40.24,40.46-87,66-126,7.94-12.12,24.62-16.32,32-28,4.37-6.91,5.91-13.2,7.37-19.13.53-2.16,1.06-4.27,1.7-6.35-7.08.8-14.2,1.29-21.22,2.49-8.16,1.4-16.39,3.89-23.16,8.51q-2.71,4.14-5.33,8.36c-20.57,33.12-37.07,70-60.36,100.12-11.19,14.48-35.55,29-44,43l-9,21c-8.25,13-20.8,23.65-27,39q-2,9.5-4,19l-27,26c-3.32,7.44-.31,14.2-4,20-7,11.07-21.46,16.35-26,30-5.44,16.37-4.15,26-12,38q-37,44.49-74,89c-16,23.88-19.34,63.55-36,87-41.59,58.52-99.29,113.37-155,158-19.5,15.61-46.75,20.9-60,43,10.94,19.21,29.68,6.23,46-2a314.33,314.33,0,0,0,58-37l35-36c8.16-3.8,16.85,3.56,24-1,7.33-4.68,16.19-20.17,19-29l3-15c11.37-14,29.35-22.54,41-39,26.89-38,41.23-85.6,66-126,20.24-33,53.93-59.64,69-96q5-18,10-36,9.49-14.5,19-29c15-25.76,23.77-72.49,52-84l2,2c-21.67,51.39-47,98.27-67,149l-33,114q-17,43.5-34,87c-3.86,14.69-5.4,39.14-2,56,2.46,12.2,13,35.76,7,52l-14,19c-3.77,6.25-2.71,9.91-11,12-6.94-23.88,18.33-50.82,6-73l-2-3c-31.44,6.57-37.82,46.06-38,81-10.09,6.06-26.77,7.68-37,15q-5.51,8.49-11,17c-10.54,13.29-30.13,24.23-45,33-28.71,16.93-64.09,23-82,51v4c15.77,7,45.73-5,58-10,45.7-18.7,82.25-54.4,129-66,7.39-14,4.71-32.81,21-38l3,1q-.51,15.49-1,31c7.21,12.75,49.58,48.51,65,53,10.91,3.17,21.78.61,30,6l20,25c10.48,7.07,27.21,4.42,35,14,9,11.09,12.85,26.09,25,34,12.81,8.33,32.41,8.5,47,15l18,15v6c-46.4-1.59-67.17-34-94-55l-36-15c-29.29-16.38-53.54-40.16-86-53-53.48-21.16-110.07-3.5-132,34v1c12.94,7.54,112.64,11.19,136,11,10.33,7.94,17.08,19.37,29,26l59,24,47,35c10.21,5.92,20.58,1.78,32,6l21,17,64,23c22.89,10,60.66,48.81,86,45,37.75-5.68,50.66,46.8,89,36,4.53-2.11,5.89-4.58,8-9C911.8,2579.45,889.53,2580.86,873.32,2572.57Z"/><path class="cls-1" d="M465.32,2076.57c6.06-21.8,41.62-49.52,34-83l-4-5-9-1c-19.65,24.89-28.48,59.13-43,89-23.9,49.18-50.29,90.33-71,142-3.94,5.14-11.61,5.27-17,9l-29,36-38,17-26,28c-10.86,5.2-26.06-1.22-40,7-23.54,13.88-38.25,37-60,52v3c30.46,14.15,82.37-33.94,104-43,58.19-24.39,118.83-57.11,147-111q5-23.51,10-47c9.85-21.2,31.94-34.3,41-57C468.78,2101.41,462.42,2087,465.32,2076.57Z"/><path class="cls-1" d="M1995.32,2233.57l-53,15c-29.65,11-56.69,26.95-86,40-36.59,16.29-63.86,42.6-96,62-10.71,6.47-23.9,2.67-38,8l-44,25c-17.3,7.61-35.62,14.83-54.41,21.5a217.58,217.58,0,0,0,0,24c30.8-5.66,61.16-12.12,86.44-21.46,35.75-13.21,62.21-40.27,93-59,19.91-12.12,43.77-13.42,68-23,19.62-7.76,28.52-25.77,45-36,15.2-9.43,35.28-18.54,55-22,22.69-4,47.19,3.41,56-14q.5-4,1-8C2020.15,2236.72,2013.57,2232.91,1995.32,2233.57Z"/><path class="cls-2" d="M1623.88,2429c-32.11,5.92-64.71,11-92.56,17.54-43.79,10.32-210.27,34.92-214-22l3-2c9.25-3.27,39.33,14.35,55,17,52.87,8.95,132.58-1.1,175-12,24.48-6.29,49.42-13.93,73.59-22.5A217.58,217.58,0,0,0,1623.88,2429Z"/><path class="cls-1" d="M2056.32,2267.57l-35,6c-23.47,10.07-46.67,22.75-73,30l-30,3-11,10c-8.07,5.54-17.69,4.7-27,10s-15.81,15.31-27,20c-36.19,15.18-51.75,13.92-74,44v1c13.87,10.4,59.29-7.85,70-13l57-30,37-9c9.24-6.73,13.74-17.06,26-22,39.68-16,79.12-11.8,98-48C2064.78,2267.55,2061.42,2267.37,2056.32,2267.57Z"/><path class="cls-1" d="M1514.46,2682.9q1.13,11.34,2.27,22.67c22.26-1.41,52.17-1.52,54.59-11C1563.61,2680.24,1539.33,2679.7,1514.46,2682.9Zm-378.14,11.62-5.52-14.19c-51.54-11.8-91.07-28.59-144.48-41.76l-74-12c-14.75-2.53-29.29.81-41-4l-24-15c-8.92-4-17.15-1.31-27-4l-21-15-46-21-45-30c-18.92-7-37.13-8.7-54-16-59.77-25.88-110.65-59.83-175-85-20.75-8.12-48-17.86-75-18-21.73,18.7-59.17.78-91,6-43.09,7.06-71.59,16.34-102,34v4c17.23-.14,30,3,40,10,61-26.12,134-17.08,200-1l40,7,36,29c24.2,10.45,56.08,8.72,78,21,21.41,12,37.33,32.38,61,42,9,3.65,20.39-.56,30,2l58,34,22,1,18,14,45,9,35,18,39,5,72,24,49,3,57,16,27-2c12.48,2.94,20.25,12.06,31,18.71C1162.17,2707,1139.78,2699.65,1136.32,2694.52Z"/><path class="cls-2" d="M1516.73,2705.57a120.49,120.49,0,0,0-17.41,2c-18.21,4.14-36.72,8.46-59,12-18.22,2.9-32-6.49-47-4-29.72,4.91-71.06,7.77-104,2l-51-12c-7.67-1.14-18.13,9-26,12-11.36,4.25-34.38,5.07-48,2a48,48,0,0,1-15-6.29c12.84-6.31-9.55-13.63-13-18.76l-5.52-14.19c10,2.29,20.44,4.39,31.52,6.24,29.46,4.91,63.24,6.65,92,2l54-2,43,4,33,9,25-6,53-1c12.46-2.25,32.48-7.13,52.14-9.67Q1515.59,2694.24,1516.73,2705.57Z"/><path class="cls-1" d="M2017.32,2446.57l-49,21c-35,10.08-44.9-1.66-66,24v4c34.29,18,64.58-20.23,91-27,20.68-5.3,31.41-.26,40-17C2030,2447.53,2024.78,2446.5,2017.32,2446.57Z"/><path class="cls-1" d="M1177.32,2752.52c-11.87-3.38-9.11-12.27-15.5-18.68-8.54-1.18-17-2.11-24.5-3.27l-21,1-16-12c-17.34-10.47-40.61-10.35-63-6-10.63-5.83-20.59-12.38-34-16l-86-10c-21.13-5.56-30.9-21.72-48-29l-65-12-62-36c-19.11-6.79-45.26-4.6-61-15-15-9.94-24.55-27.09-43-34l-77-16c-23.13-9.53-36.59-32.53-62-39l-61-6c-35.77-8.44-42.4-32.16-95-31l-38,9c-15.4,6.16-28.44,16.95-41,26a15.9,15.9,0,0,0,10,12c13,4.73,24.64-9.47,35-12,4-1,61.94,8.78,72,11,19.7,4.33,30.33,19,49,23,18.23,3.93,33.77-3.32,48,3,37.35,16.58,45.29,46.48,97,32,21.46,12.22,47.46,21.87,70,35l30,24,33,6,83,29c41.1,15.35,83.58,39,128,50,13.95,3.45,27.7-4.5,38-3,11.23,1.63,28.79,20.15,45,25,14.91,4.46,39.53-3.8,46-2,23.25,6.46,30.12,28.5,63,14,10.46,9,35.81,17.7,58.23,17.79,2.9-2.8,6-5.41,8.77-8.84Q1177.83,2756.52,1177.32,2752.52Z"/><path class="cls-2" d="M1208.32,2749.57c-5.31,14.61-21.13,19.86-38.77,19.79,2.9-2.8,6-5.41,8.77-8.84q-.49-4-1-8c-11.87-3.38-9.11-12.27-15.5-18.68C1180.17,2736.38,1198.81,2740.07,1208.32,2749.57Z"/><path class="cls-1" d="M1066.32,2776.57l-41-15-43-3-19-10-25-2-27-19c-25.61-13-60-12-88-23-11.25-4.41-21.19-15.54-31-19-16.5-5.83-30.09-4.05-45-10l-68-33-114-40-77-34-71-15c-29.23-7.64-59.13-15.94-97-15l-30,6-3,5q4,9.49,8,19c29.06,9,62.14,4.9,89,13l131,45,85,22,35,27c19.6,8.37,40.16,7.34,63,13l60,22c47.24,20.65,104.35,29,159,46,24,7.49,33.68,25.76,60,20l28,17c21.85,9,91.44,22.19,120,9l3-2C1125.61,2766.92,1092.61,2783.9,1066.32,2776.57Z"/><path class="cls-1" d="M1035.32,2814.57c-14.4-2.94-32.94-7-48-13l-20-13-18,1-35-6-11,3-42-28-34-1-31-20c-11.63-4.67-30.36-.81-43-6l-92-43c-14.76-5-34,.54-48-5l-55-33c-21.22-9.1-54.73-6.89-76-13-52.57-15.1-94.19-37.56-166-36l-20,4c-2.76,1.57-2.36,1.44-4,4,11.21,15.27,30.35,19.7,54,14,18.27,13.26,25.87,3.69,45,12,10.28,4.46,15.87,15.28,28,19l50,6c12.28,5.08,20.12,17.58,34,21l39,2,63,30c12.91,5.32,34.43,2.13,48,8,10.2,4.4,16.69,15.44,28,20,25.89,10.44,60.14,8.2,88,17,15,4.73,22.49,19,36,23,12.5,3.67,23.64-3.57,36,0,41.95,12.1,50.2,38.37,106,27,11.08-2.26,37.64,21.11,48,25,11.56,4.34,22.77-1.35,34,2l20,12c23.6,10.21,52.81,11.13,78,3l3-4C1116.71,2827.05,1065.48,2820.72,1035.32,2814.57Z"/><path class="cls-1" d="M1969.32,2622.57c-8.59,5.14-20.71,4.17-32,7-39.63,9.94-82.31,10.31-127,19l-52,10-33,13c-17.51,3.32-34-3.15-50,2l-57,26c-16.44,6.33-36.27,5.27-49,14l-3,13c16.66,21.15,39.33-.34,58-5l17-1,17-13c27.41-11.8,72.56-14,104-18,13.62-1.73,29.89,6.14,47,3,38.75-7.11,71.16-19.61,103-33,20.21-8.5,52-10.09,62-29v-6Z"/><path class="cls-1" d="M1153.32,2956.57v-5c-32.21-24.74-87.29-8.8-137-17l-41-8v-5c6.68-8.93,26.25-11.56,42-8l37,9c11.19,1.85,22-4.81,28-4l10,7c11.41,5.7,20.56-3.69,29-7,11.89-4.66,24.66-2.62,28-16l-8-9-30-1c-12.27-2.57-20.61-15.29-36-13-17.67,2.62-35.79,15.75-57,12-14.27-2.53-23-10.36-39-13h-46c-44.19,0-64-8.18-88-26v-4c45.44-8,79.87,35.37,120,14,13.16,8.25,43.43,26.43,56,4-18.17-28.37-121.55-36.8-160-50l-86-29-34-7-30-22c-10.67-4.36-26.4,3.94-39,0-44.79-14-86.86-38.59-129-55l-38-6c-10.65-4.53-21.88-13.41-35-17l-64-10c-24.46-7.33-44.82-28-77-19-.67.33-1.34.66-2,1,2.56,24.64,32.19,26.06,50,36l28,18h21l27,14c34.54,12,74.6,13.73,107,27l30,21v4c-.67.33-1.34.66-2,1l-123-28-87-27c-.67,1.33-1.34,2.67-2,4,21.66,46.37,106.31,60.35,162,74,33.91,8.31,81.45,12.11,93,42v1c-24.34,4.41-48.13-22.09-73-26l-17,11c-15.67,4.17-94.67-32.61-123-35-.34.66-.67,1.33-1,2,27.28,59.08,71.83,37.91,136,56,16.46,4.64,24.73,18,43,22,32.25,7,74-3.93,87,22,2.46,8.3-6,15.44-3,27,6.83,15.91,29.24,24.2,47,29,2.81,6,1.28,15.61,1,25,9.5,6.42,19,12.12,25,22,7.23,11.9,10.14,41.16,22,48,9.48,5.46,24.1.74,37,3,25.12,4.4,55.06,17.29,79,1v-4c-31.17-11.71-82.56,6-82-38l5-3c26.06,8.11,62.5,2.1,85,13,16.33-7.26,52.33-12.45,71-15,17.75,16,42.89,16.17,47-14v-1c-8-5.2-20.13-5-34-5-47.09,0-79.27,3.22-99-28,.33-1.33.66-2.67,1-4,42.85-7.74,63.89,18.47,92,25,5.75,1.33,28.49-14.86,40-17,34.53-6.41,55.83,11.72,76,20l4,5c-8.25,7.76-39.4-1.72-55-2-3.25,2.83-5.94,3.75-8,8-5.86,14.93,18.83,24.41,26,31v3l-16,13h-5c-5.4-6.76-16.94-20.79-30-13-13.92,6.55-6.29,26.14-7,40l-20,10c-.34,1-.67,2-1,3l1,2c28.31,6.35,58.44,12.5,91,12-.61-17.41,9.79-51.11,29-40l3,2c-2,9.86-10,11.07-14,19-.34,1-.67,2-1,3l6,6c13.08,2.88,26.87-.64,32-9-15.32-28.21,3.35-58.86,24-74v-4c-8-4-18.84-3.89-23-12v-7C1133.15,2965.23,1147.32,2960.68,1153.32,2956.57Zm-387-139c26.75-.73,56,4,59,26-24.46,5.78-47-11-60-21C765.65,2820.9,766,2819.23,766.32,2817.57Zm-137-35c45.08,3,76.66,7.47,103,27v4c-.67.33-1.34.66-2,1-29.31-11.85-69.56-16.84-99-25C628.34,2785.15,628.28,2787,629.32,2782.57Zm94,130c-8.13-.83-15.17-4.77-18-11v-6c10,.48,14.08,3.83,20,8,.33,1.66.66,3.33,1,5Zm70,92-3,1c-8.54-.57-11.9-4.15-15-10q2-2.51,4-5c9.35.24,12.91,3.61,16,10C794.65,3001.9,794,3003.24,793.32,3004.57Zm1-36c-1.92,3-.17,1.68-4,3-6.88,2.29-14.17-3-18-7,1-7.61,3.45-8.34,8-12h5c4.81,3.06,7.37,5.68,10,11C795,2965.23,794.65,2966.9,794.32,2968.57Zm-64-109h-22c-17-1.18-26.21-7.82-35-17,.33-1.67.66-3.34,1-5l87,29,63,16,3,2v1C788.07,2911.88,757.67,2868.33,730.32,2859.57Zm110,116c-2.88,5.59-11.27,9-13,0,1.33-2.33,2.66-4.67,4-7h5l5,4C841,2973.57,840.65,2974.57,840.32,2975.57Zm-29-45c1.33-1.33,2.66-2.67,4-4,18.6-.16,29.5,2.32,41,8,.33,1,.66,2,1,3C846.94,2954.74,817.69,2944,811.32,2930.57Zm74-19c-11.71,2.43-18.26-1.71-24-8,.95-4.48.91-3.43,3-6,13.33-.59,18.62,1.84,23,10C886.65,2908.9,886,2910.24,885.32,2911.57Z"/><path class="cls-1" d="M1864.32,2702.57c-36.22,19.91-81.55,16.95-124,32l-29,19c-9.86,4.14-25.21-1.64-34,4-7.13,6.21,5.39,21.34,12,24,5.62,1.9,49.41-6.69,62-9,14.5-2.67,32.16-4.93,44-11s19.54-15.15,35-19c36.5-9.1,84.49-4.25,97-36v-1Z"/><path class="cls-1" d="M1699.32,2714.57c-15.92,6.47-38.59,7.81-42,26,28.87,10.81,60.49-3.31,73-19v-1C1723.69,2714.92,1712.17,2714.06,1699.32,2714.57Z"/><path class="cls-1" d="M1527.32,2723.57l-31,4-20.85,8.53h0c-4,4.23-8.31,8.13-12.14,13.41.86,1,1.71,1.95,2.56,2.93a42.33,42.33,0,0,1,9.44,1.12l15,6c16.27-11.66,42-11.92,55-27v-4C1540.55,2725.74,1534.42,2724.67,1527.32,2723.57Z"/><path class="cls-2" d="M1463.32,2749.52c.86,1,1.71,1.95,2.56,2.93-18.42-.18-33.77,11.22-47.56,14.12l-20,1c-6.21,2.67-11.75,8.12-20,10-22.86,5.19-59.11.54-81-3l-44,1q-2.5-8-5-16,1-2.51,2-5c41.16-14.5,107.21-3.29,151-7l17-6,56-5,1.14-.46C1471.48,2740.34,1467.15,2744.24,1463.32,2749.52Z"/><path class="cls-1" d="M1179.32,2808.52q-9.49-10-19-20c0-1,.14-1.94.27-2.84q-2.58.34-5.27.89c-1.34,2.33-2.67,4.67-4,7,1.55,20.41,14.39,21.09,29.75,21.23C1180.47,2812.77,1179.88,2810.68,1179.32,2808.52Zm153.58,11.78a26.46,26.46,0,0,0-4.58-1.78c-16-4.76-48.23-.27-59,4,1.91,2.93,3.43,3.83,2.1,7.72C1295.19,2830.15,1320.05,2827,1332.9,2820.3Zm269.42-63.73-21,3-34,11c-12.73,2.63-25.71-5.69-41-2-25.58,6.17-51.17,15.69-78.51,23.49-4.1,3.51-8.36,6.86-10.49,8.46-9.64,7.26-22.83.34-36,6-8.61,3.7-11.32,9.54-26,11q-.49,4-1,8l-.49,0a15.06,15.06,0,0,0,2.49,1c2.29.69,81-5,81-5,7.91-3.14,13.39-11.68,23-14l51-2,63-16c32.27-6.64,69.94,8.79,83-18q.5-3,1-6C1644,2757.63,1625.71,2756,1602.32,2756.57Z"/><path class="cls-2" d="M1427.81,2792.06c-4.1,3.51-8.36,6.86-10.49,8.46-9.64,7.26-22.83.34-36,6-8.61,3.7-11.32,9.54-26,11q-.49,4-1,8l-.49,0c-5.17-2.66-7.94-7.62-15.51-9a24.16,24.16,0,0,1-5.42,3.73,26.46,26.46,0,0,0-4.58-1.78c-16-4.76-48.23-.27-59,4,1.91,2.93,3.43,3.83,2.1,7.72-15.78.05-31.09-1.23-42.1-3.67l-26-10c-7.37-1.77-15.08-1.71-22.25-1.77-.6-2-1.19-4.12-1.75-6.28q-9.49-10-19-20c0-1,.14-1.94.27-2.84,26.85-3.65,45.47,7.58,68.73,11.89l79,5C1353.7,2809.44,1392.24,2802.21,1427.81,2792.06Z"/><path class="cls-1" d="M1825.32,2788.57c-6.55-4.33-11.25-7.3-23-7-10.44,6.28-37.63,17.85-53,15l-18-6c-29.42,21.67-58.48,9.91-102,18-22.48,4.18-39.9,13.52-58,18l-201,21c-31.18,4.89-81.92-2.76-124.1-4-17.21-.51-33,0-45.45,2.94-9.92,2.32-17.72,6.12-22.45,12.07,2.25,21.36,25.52,18.6,46,22,50.35,8.36,98.35-5,150-5,19,0,25.29-6,37-9l53,2,20-15,21,3c13.79-2.62,28.87-9.78,45-13,42.56-8.49,92.21,1.21,131-8,19.16-4.55,31.78-18.5,50-22,8.53-1.64,11.77,5.33,17,6l17-8c22.29-4.69,37.83,4,57-6C1824.65,2799.9,1826.85,2796.14,1825.32,2788.57Z"/><path class="cls-1" d="M1760.32,2834.57l-8-1c-35.52,22.84-122.25-.15-142,38-.34,1-.67,2-1,3l8,7c12.52,4.81,25.6-5.61,35-8,35-8.93,106.48,2.07,113-34Z"/><path class="cls-1" d="M1787.32,2848.57c-16.21,10.35-43.25,35.17-60,39l-45-4c-15.63,2.64-27.29,10.23-41,14-35.94,9.87-79,1.81-96,30,12.87,13.78,56.62,3.59,72-1,18.6-5.56,38.06-11.37,60-15l30,2c18.31-4,39.79-20,62-26,24.45-6.56,56.5-13,65-35v-1C1822,2849.18,1803.65,2848.44,1787.32,2848.57Z"/><path class="cls-1" d="M597.32,2891.57l-12,2-41-21c-9.56-2.4-20,4.61-32,2l-36-13c-.34,1.33-.67,2.67-1,4l45,37c12.49,3.67,27.66-5.12,43,1,23.95,9.54,56.27,34.27,87,18C654.21,2895.79,626.75,2886.54,597.32,2891.57Z"/><path class="cls-1" d="M1582.32,2873.57h-6l-69,5-177,27c-2,1.36-1.63,1.1-3,3l10,12c15.74,3.46,31.21-2.32,46-5l48,4,24-12,32-6c41.23-6.46,79.89,5.51,96-25C1583,2875.57,1582.65,2874.57,1582.32,2873.57Z"/><path class="cls-1" d="M1344.32,2948.57c-20.38-12.06-56.38,9.36-72-11v-1c9.06-11.69,31.28-9.56,38-23,.33-1.33.66-2.67,1-4v-1c-14.5-8-42.86-2.9-61-2-3.21,5.46-2.11,16.19-3,25-5.22,3.57-10.17,4.58-16,0l-3-2c2.83-10.22,12-13.69,15-24-5-10.09-12-13.7-28-13-29.25,24.1-.21,32.73-17,54,1.37,12.58,13.89,22.26,21,30v4c-4.44,4.12-12,6.5-15,12-.34.66-.67,1.33-1,2,8.35,9.77,27.48,13.68,46,13l9-8c-.31-11.81-7-16.87-13-23,2.35-9.15,5.31-16.08,5-30,1.33-.67,2.66-1.34,4-2l16,17c18.68,11.46,65.06,12.24,75-7Q1344.81,2951.57,1344.32,2948.57Z"/><path class="cls-1" d="M1173.32,2896.57c-.67.33-1.34.66-2,1-7.61,10.95,2.25,12.23,12,10,1.29-2.61,1.79-3.49,2-8C1181.75,2897.58,1179.46,2896.59,1173.32,2896.57Z"/><path class="cls-1" d="M956.32,2918.57c-7-5.42-17.07-6.29-30-6-1.34.66-2.67,1.33-4,2q.49,3,1,6c9.16,5,22.06,9.88,36,5C959.06,2920.28,959.56,2920.75,956.32,2918.57Z"/><path class="cls-1" d="M1739.32,2922.57c-42.73,19.93-98.21,11.95-149,26l-29,12c-23.42,8.5-39.81-7.22-44,23,7.85,9.52,24.29,9.09,37,4,11.91-4.77,24.12-11.81,39-15,48.44-10.39,140.35-2.93,161-38v-5C1749.57,2925.91,1747.71,2923.07,1739.32,2922.57Z"/><path class="cls-1" d="M1465.32,2927.57l-67,13-37,2c-3.17,1.88-4.09,6.68-5,11,18.23,25.07,52.94,6,74,0l12,3c26.68,5.43,56.83-2.42,60-24v-1C1494,2926.88,1478.67,2927.18,1465.32,2927.57Z"/><path class="cls-1" d="M682.32,2989.57c-4.32-12.23,11.35-18.79,15-28-.34-1-.67-2-1-3-44.29-12.61-96.57-14.82-143-25-.67.33-1.34.66-2,1,2.87,9.75,11.16,7.59,19,12l15,13c26.74,13.43,58.85,5.28,74,30-4.4,7.94-9.94,8-21,7-.67,1-1.34,2-2,3,16.89,11.08,64.06,50.66,84,15C712.86,3000,689.26,3004.46,682.32,2989.57Z"/><path class="cls-1" d="M1673.32,2994.57l-26-1c-21.29,4.34-35.92,11.78-63,11v5l18,13c29.16,7.68,121.78-32.72,128-46v-1C1702.15,2968.55,1689.71,2989.63,1673.32,2994.57Z"/><path class="cls-1" d="M1468.32,2975.57l-29,4-57,17c-18.36-1.7-25.5-16.15-55-8-2.75,4.54-4.17,8-4,16l9,7c11.56,5,27-.39,38-3,34.66-8.26,126.14,1.64,138-27C1502.8,2972.82,1482.55,2975,1468.32,2975.57Z"/><path class="cls-1" d="M1313.32,2986.57l-19-2-10,7c.83,14.23,14.25,13.62,25,10,2.89-4.14,4.75-5.72,5-13Z"/><path class="cls-1" d="M1571.32,3010.57c-2.42-3.45-4-3.93-10-4l-26,14-53,1c-8.69,1.48-14.09,5.39-21,8-.67,2.33-1.34,4.67-2,7,32.39,23.82,51.75,3,80-4,20.1-5,24.48,9.93,34-15C1572.65,3015.24,1572,3012.9,1571.32,3010.57Z"/><path class="cls-1" d="M1240.32,3050.57q-.51-3-1-6l22-19v-4c-10.29-6.15-34.61-6.91-49-7l-17,6c-4.23,7-8.65,39.67-6,47,11.2,17.48,92.66,3.89,102-6v-4C1277.92,3051.56,1254.63,3057.32,1240.32,3050.57Z"/><path class="cls-1" d="M1406.32,3030.57c-22.92.86-51.52,18.93-76,10h-2q.5-8.51,1-17l-4-6-22-2c-3.13,2.47-3.52,1.39-5,6,9.91,17.86,24.56,24.48,33,45,31-.19,51.37-13.87,77-19,12.16-2.44,23,3.2,29-5C1444.36,3030.66,1418.86,3030.09,1406.32,3030.57Z"/><path class="cls-1" d="M960.32,3034.57c-13.22-3-24-6.28-40-6l-6,3c-1.47,7.7.66,12.17,3,18,15.89,9.87,36.21,2.94,44-12C961,3036.57,960.65,3035.57,960.32,3034.57Z"/><path class="cls-1" d="M1045.32,3044.57l-5-1c-2.3,4.73-5.61,15.3,0,19h7l5-3v-4Z"/><path class="cls-2" d="M684.32,1502.57c-1.71,29.51-26.25,63.67-53.6,95-4.14,4.76-8.35,9.45-12.56,14.06l-.64.7c-.6-.14-1.2-.33-1.79-.52l-19.52-6.22a54.76,54.76,0,0,0-11.81-2.14c7.8-6.64,15.59-13.36,22.34-20.87a99.27,99.27,0,0,0,6.58-8.06c19.89-27.26,40-52.9,67-73Z"/><path class="cls-2" d="M762,1552.71c-1.33,1-2.56,2-3.67,2.86a33.81,33.81,0,0,0-11.93,17.52c-7.08.8-14.2,1.29-21.22,2.49-8.16,1.4-16.39,3.89-23.16,8.51a259.36,259.36,0,0,1,17.31-23.52c3.55-4.26,9.17-8.56,15.42-12.86,9.94-6.83,21.44-13.63,28.58-20.14q26-30.49,52-61c8.91-.3,13.95,1,19,4C837.94,1500.83,784.88,1535.28,762,1552.71Z"/></svg>