<?xml version="1.0" encoding="utf-8"?>
<!-- Generator: Adobe Illustrator 26.0.0, SVG Export Plug-In . SVG Version: 6.00 Build 0)  -->
<svg version="1.1" id="Livello_1" xmlns="http://www.w3.org/2000/svg" xmlns:xlink="http://www.w3.org/1999/xlink" x="0px" y="0px"
	 viewBox="0 0 174.3 159.8" style="enable-background:new 0 0 174.3 159.8;" xml:space="preserve">
<style type="text/css">
	.st0{fill:url(#Corno_00000179620607430948463570000010005099141058256053_);}
	.st1{fill:url(#Muso_00000011748453358835591880000007882942182208047011_);}
	.st2{fill:url(#Pianta_00000034771963796425338100000009493066241247314817_);}
	.st3{fill:url(#SVGID_1_);}
	.st4{fill:url(#SVGID_00000029739280455926150330000016831010919305017248_);}
	.st5{fill:url(#SVGID_00000124876571693857040980000014908079777721642426_);}
	.st6{fill:url(#SVGID_00000004511800361486906900000002272174776291241627_);}
	.st7{fill:url(#SVGID_00000057117844333317166610000002532894280858825654_);}
	.st8{fill:url(#SVGID_00000008109891342445189590000002256310324836821680_);}
	.st9{fill:url(#SVGID_00000089555402545590905950000003970657069966969750_);}
	.st10{fill:url(#SVGID_00000090281258518292288860000010446888190657497774_);}
	.st11{fill:url(#SVGID_00000176032194047150066320000005125219431066939568_);}
	.st12{fill:url(#Corno_00000004537802000065235050000008374374888462723502_);}
	.st13{fill:url(#Muso_00000031203179807836167950000018359253332372418721_);}
	.st14{fill:url(#Pianta_00000036236707933287747770000017033791649449014181_);}
	.st15{fill:url(#SVGID_00000146476087747559677770000010132479110984128666_);}
	.st16{fill:url(#SVGID_00000090978545213070488350000000236788242035617469_);}
	.st17{fill:url(#SVGID_00000003804555607436430360000016922164034005896112_);}
	.st18{fill:url(#SVGID_00000148635867822911504670000013817378954206661792_);}
	.st19{fill:url(#SVGID_00000103256682893206907040000007618383469226762675_);}
	.st20{fill:url(#SVGID_00000147927769870114231340000007311234694217534853_);}
	.st21{fill:url(#SVGID_00000040551228256857102960000009374796975018198415_);}
	.st22{fill:url(#SVGID_00000170974756820705157240000010251775615194736280_);}
	.st23{fill:url(#SVGID_00000058554093964717784330000010809572917955289474_);}
</style>
<g id="Logo">
	
		<linearGradient id="Corno_00000105389053417626474050000013614160897879007110_" gradientUnits="userSpaceOnUse" x1="103.2231" y1="98.1475" x2="185.7914" y2="-84.3382">
		<stop  offset="0" style="stop-color:#FFFFFF;stop-opacity:0"/>
		<stop  offset="1" style="stop-color:#FFFFFF"/>
	</linearGradient>
	<path id="Corno" style="fill:url(#Corno_00000105389053417626474050000013614160897879007110_);" d="M151.8,59.8
		C126.5,58,108,78.5,98.9,96.5c-1.1,0.1-2.2,0.1-3.4,0.1c0-0.4,0-0.9-0.1-1.4c0,0,0.8-11.2-4.8-25.7c-0.8-2.1-1.7-4.2-2.8-6.4
		c49.4,5.8,49.9-42.1,45.9-57.3c-0.6-2.4,3-3,4.4-0.9C145.5,16,155,39.4,151.8,59.8z"/>
	
		<linearGradient id="Muso_00000114051892253137920560000008662955627738381742_" gradientUnits="userSpaceOnUse" x1="118.1591" y1="117.693" x2="186.8962" y2="214.11">
		<stop  offset="1.170963e-03" style="stop-color:#FFFFFF;stop-opacity:0"/>
		<stop  offset="1" style="stop-color:#FFFFFF"/>
	</linearGradient>
	<path id="Muso" style="fill:url(#Muso_00000114051892253137920560000008662955627738381742_);" d="M155.8,122
		c-3.6-6.9-7.2-13.8-10.8-20.7c-25.6,24.5-49.3,21.2-49.3,21.2h-0.1c-0.2,9.1-0.2,14.9-0.2,19.3c3.2,0.1,7.1,0.2,8.6,0.1
		c2.8-0.2,6.5-4.5,6.5-4.5c4.7,9.1,11.8,15,18.5,14.3c3.9-0.4,8.5-3.1,8.5-5.6c4.8,4.6,11.1,6.6,18.2,4.1
		C167.7,146.2,172.2,123.7,155.8,122z M125.9,139.8c-1.4-2,1.6-4.2,3.1-2.3c2.5,3.1,6.7,6.8,7.7,7.9
		C135.9,144.6,128.3,143.2,125.9,139.8z"/>
	
		<linearGradient id="Pianta_00000160161730696690437910000001466738891197599405_" gradientUnits="userSpaceOnUse" x1="39.5004" y1="135.304" x2="125.0331" y2="-32.6406">
		<stop  offset="0" style="stop-color:#FFFFFF;stop-opacity:0"/>
		<stop  offset="0.8687" style="stop-color:#FFFFFF"/>
	</linearGradient>
	<path id="Pianta" style="fill:url(#Pianta_00000160161730696690437910000001466738891197599405_);" d="M170.3,66.5
		c-8.1,15.4-16.8,26.6-25.3,34.8c-25.6,24.5-49.3,21.2-49.3,21.2h-0.1c-0.2,9.1-0.2,14.9-0.2,19.3c0,5.3-0.1,8.5-0.7,12.7
		c-0.1,0.7-0.7,1.3-1.5,1.3c-3-0.1-5.9-0.1-8.9-0.2c-0.9,0-1.6-0.8-1.4-1.7c3.9-26.4,3.2-49.8,2.8-57.6c0-0.6-0.4-1.1-1-1.3
		C75.5,91.8,0.3,63.6,6.5,12.4c0.2-1.4,1.5-2.4,2.9-2.1c0.8,0.2,1.5,0.7,1.7,1.5c2.5,7.6,11.6,16,23.1,22c2.2,1.1,4.4,2.1,6.7,3
		c1,0.4,2,0.8,2.9,1.1c9.8,3.4,19.3,4.3,26.7,2.9c0.5-0.1,1,0.1,1.3,0.4c7.4,7.3,12.5,14.9,16,22c1.1,2.2,2,4.4,2.8,6.4
		c5.6,14.5,4.8,25.7,4.8,25.7c0,0.1,0,0.2,0,0.3c0,0.4,0,0.7,0,1.1c0,0.1,0,0.3,0,0.4c0.1,1.5,2.1,2,2.8,0.6
		c0.2-0.4,0.4-0.8,0.6-1.2c0.2-0.4,0.4-0.7,0.6-1.1c9.3-17.7,27.5-37.4,52.3-35.6c5.6,0.4,11.6,1.8,17.8,4.7
		C170.4,64.8,170.7,65.8,170.3,66.5z"/>
	<g id="Testo">
		<g>
			<linearGradient id="SVGID_1_" gradientUnits="userSpaceOnUse" x1="35.4808" y1="148.0915" x2="103.0317" y2="95.4184">
				<stop  offset="2.406254e-02" style="stop-color:#FFFFFF;stop-opacity:0"/>
				<stop  offset="1" style="stop-color:#FFFFFF"/>
			</linearGradient>
			<path class="st3" d="M45.1,116.7v-15.3c0-0.1,0.1-0.2,0.2-0.2h3.2c0.7,0,1.3,0.1,1.8,0.3c0.5,0.2,0.9,0.4,1.2,0.8
				c0.3,0.4,0.5,0.8,0.6,1.3c0.1,0.5,0.2,1,0.2,1.6c0,0.5-0.1,1-0.2,1.5c-0.1,0.5-0.3,0.9-0.6,1.2c-0.3,0.3-0.7,0.5-1.2,0.7
				c0.6,0.2,1.1,0.5,1.4,0.9c0.3,0.4,0.6,0.9,0.7,1.4c0.1,0.5,0.2,1.1,0.2,1.7c0,0.6-0.1,1.2-0.2,1.8c-0.1,0.6-0.3,1-0.6,1.5
				c-0.3,0.4-0.7,0.7-1.1,1c-0.5,0.2-1.1,0.4-1.8,0.4h-3.7C45.2,117,45.1,116.9,45.1,116.7z M46.5,107.8c0,0.1,0.1,0.2,0.2,0.2h1.9
				c0.6,0,1.1-0.1,1.4-0.4c0.3-0.2,0.6-0.6,0.7-1c0.1-0.4,0.2-0.9,0.2-1.5c0-0.6-0.1-1.2-0.3-1.6c-0.2-0.4-0.5-0.7-0.9-0.9
				c-0.4-0.2-1-0.3-1.9-0.3h-1.2c-0.1,0-0.2,0.1-0.2,0.2V107.8z M46.5,115.6c0,0.1,0.1,0.2,0.2,0.2h1.9c1,0,1.7-0.3,2.1-0.8
				c0.3-0.6,0.5-1.4,0.5-2.6c0-0.6-0.1-1.2-0.2-1.7c-0.2-0.5-0.4-0.9-0.8-1.2c-0.4-0.3-0.9-0.4-1.5-0.4h-1.9c-0.1,0-0.2,0.1-0.2,0.2
				V115.6z"/>
			
				<linearGradient id="SVGID_00000183927672239667949010000000318485562763771051_" gradientUnits="userSpaceOnUse" x1="35.4808" y1="148.0915" x2="103.0317" y2="95.4184">
				<stop  offset="2.406254e-02" style="stop-color:#FFFFFF;stop-opacity:0"/>
				<stop  offset="1" style="stop-color:#FFFFFF"/>
			</linearGradient>
			<path style="fill:url(#SVGID_00000183927672239667949010000000318485562763771051_);" d="M54.1,116.7l3.2-15.3
				c0-0.1,0.1-0.2,0.2-0.2h1.2c0.1,0,0.2,0.1,0.2,0.2l3.3,15.3c0,0.1-0.1,0.3-0.2,0.3h-1c-0.1,0-0.2-0.1-0.2-0.2l-0.7-3.9
				c0-0.1-0.1-0.2-0.2-0.2h-3.4c-0.1,0-0.2,0.1-0.2,0.2l-0.7,3.9c0,0.1-0.1,0.2-0.2,0.2h-1C54.2,117,54.1,116.8,54.1,116.7z
				 M56.8,111.7h2.8c0.1,0,0.2-0.1,0.2-0.3l-1.4-7.2c0-0.2-0.4-0.2-0.4,0l-1.4,7.2C56.5,111.5,56.6,111.7,56.8,111.7z"/>
			
				<linearGradient id="SVGID_00000121247679198552244480000016407019293886528643_" gradientUnits="userSpaceOnUse" x1="35.4808" y1="148.0915" x2="103.0317" y2="95.4184">
				<stop  offset="2.406254e-02" style="stop-color:#FFFFFF;stop-opacity:0"/>
				<stop  offset="1" style="stop-color:#FFFFFF"/>
			</linearGradient>
			<path style="fill:url(#SVGID_00000121247679198552244480000016407019293886528643_);" d="M66.2,116.7v-5c0,0,0,0,0-0.1l-3.5-10.2
				c0-0.1,0.1-0.3,0.2-0.3h1c0.1,0,0.2,0.1,0.2,0.2l2.6,8c0.1,0.2,0.4,0.2,0.4,0l2.5-8c0-0.1,0.1-0.2,0.2-0.2h1
				c0.1,0,0.3,0.1,0.2,0.3l-3.4,10.2c0,0,0,0,0,0.1v5c0,0.1-0.1,0.2-0.2,0.2h-1C66.3,117,66.2,116.9,66.2,116.7z"/>
			
				<linearGradient id="SVGID_00000131347631565686913480000001471936920052228506_" gradientUnits="userSpaceOnUse" x1="35.4808" y1="148.0915" x2="103.0317" y2="95.4184">
				<stop  offset="2.406254e-02" style="stop-color:#FFFFFF;stop-opacity:0"/>
				<stop  offset="1" style="stop-color:#FFFFFF"/>
			</linearGradient>
			<path style="fill:url(#SVGID_00000131347631565686913480000001471936920052228506_);" d="M72.8,116.7v-15.3
				c0-0.1,0.1-0.2,0.2-0.2h5.3c0.1,0,0.2,0.1,0.2,0.2v0.7c0,0.1-0.1,0.2-0.2,0.2h-3.8c-0.1,0-0.2,0.1-0.2,0.2v5.5
				c0,0.1,0.1,0.2,0.2,0.2h3c0.1,0,0.2,0.1,0.2,0.2v0.7c0,0.1-0.1,0.2-0.2,0.2h-3c-0.1,0-0.2,0.1-0.2,0.2v6.1c0,0.1,0.1,0.2,0.2,0.2
				h3.8c0.1,0,0.2,0.1,0.2,0.2v0.7c0,0.1-0.1,0.2-0.2,0.2h-5.3C72.9,117,72.8,116.9,72.8,116.7z"/>
			
				<linearGradient id="SVGID_00000166666377375226845590000002372795653557364367_" gradientUnits="userSpaceOnUse" x1="35.4808" y1="148.0915" x2="103.0317" y2="95.4184">
				<stop  offset="2.406254e-02" style="stop-color:#FFFFFF;stop-opacity:0"/>
				<stop  offset="1" style="stop-color:#FFFFFF"/>
			</linearGradient>
			<path style="fill:url(#SVGID_00000166666377375226845590000002372795653557364367_);" d="M65.6,136.6c-0.9,0-1.6-0.2-2.1-0.5
				c-0.6-0.4-1-0.9-1.3-1.5c-0.3-0.6-0.4-1.3-0.5-2.1c0-0.1,0.1-0.2,0.2-0.2l0.9-0.3c0.1,0,0.3,0.1,0.3,0.2c0.1,0.5,0.2,1,0.3,1.5
				c0.2,0.5,0.4,0.9,0.8,1.2c0.4,0.3,0.9,0.5,1.5,0.5c0.7,0,1.2-0.2,1.6-0.5c0.4-0.4,0.6-0.9,0.6-1.7c0-0.7-0.2-1.3-0.5-1.8
				c-0.3-0.5-0.8-1-1.4-1.6l-2.8-2.7c-0.5-0.5-0.9-1-1.1-1.5c-0.2-0.5-0.4-1.1-0.4-1.7c0-1.1,0.3-1.9,1-2.5c0.6-0.6,1.5-0.9,2.6-0.9
				c0.6,0,1.1,0.1,1.5,0.2c0.4,0.1,0.8,0.4,1.1,0.7c0.3,0.3,0.6,0.7,0.7,1.2c0.2,0.5,0.3,1,0.4,1.7c0,0.1-0.1,0.2-0.2,0.2l-0.8,0.2
				c-0.1,0-0.3-0.1-0.3-0.2c-0.1-0.6-0.2-1-0.3-1.4c-0.2-0.5-0.4-0.8-0.8-1.1c-0.3-0.2-0.8-0.4-1.4-0.4c-0.6,0-1.2,0.2-1.6,0.5
				c-0.4,0.3-0.6,0.9-0.6,1.6c0,0.4,0.1,0.8,0.2,1.2s0.5,0.7,0.9,1.1l2.8,2.6c0.6,0.6,1.2,1.2,1.6,1.9c0.5,0.7,0.7,1.5,0.7,2.4
				c0,0.8-0.2,1.5-0.5,2c-0.3,0.5-0.7,0.9-1.3,1.2C67,136.5,66.3,136.6,65.6,136.6z"/>
			
				<linearGradient id="SVGID_00000155124020779844260230000002194234276077408670_" gradientUnits="userSpaceOnUse" x1="35.4808" y1="148.0915" x2="103.0317" y2="95.4184">
				<stop  offset="2.406254e-02" style="stop-color:#FFFFFF;stop-opacity:0"/>
				<stop  offset="1" style="stop-color:#FFFFFF"/>
			</linearGradient>
			<path style="fill:url(#SVGID_00000155124020779844260230000002194234276077408670_);" d="M70.5,136.2l3.2-15.3
				c0-0.1,0.1-0.2,0.2-0.2h1.2c0.1,0,0.2,0.1,0.2,0.2l3.3,15.3c0,0.1-0.1,0.3-0.2,0.3h-1c-0.1,0-0.2-0.1-0.2-0.2l-0.7-3.9
				c0-0.1-0.1-0.2-0.2-0.2h-3.4c-0.1,0-0.2,0.1-0.2,0.2l-0.7,3.9c0,0.1-0.1,0.2-0.2,0.2h-1C70.6,136.4,70.5,136.3,70.5,136.2z
				 M73.2,131.1H76c0.1,0,0.2-0.1,0.2-0.3l-1.4-7.2c0-0.2-0.4-0.2-0.4,0l-1.4,7.2C72.9,131,73,131.1,73.2,131.1z"/>
			
				<linearGradient id="SVGID_00000124130625095411948570000005356790190667719574_" gradientUnits="userSpaceOnUse" x1="35.4808" y1="148.0915" x2="103.0317" y2="95.4184">
				<stop  offset="2.406254e-02" style="stop-color:#FFFFFF;stop-opacity:0"/>
				<stop  offset="1" style="stop-color:#FFFFFF"/>
			</linearGradient>
			<path style="fill:url(#SVGID_00000124130625095411948570000005356790190667719574_);" d="M48.8,155.7v-15.3
				c0-0.1,0.1-0.2,0.2-0.2h3.3c1,0,1.8,0.2,2.3,0.5c0.6,0.3,1,0.8,1.2,1.4c0.2,0.6,0.4,1.3,0.4,2.2c0,0.6-0.1,1.1-0.2,1.7
				c-0.1,0.5-0.4,1-0.7,1.3c-0.3,0.3-0.6,0.5-1.1,0.7c-0.1,0-0.2,0.2-0.2,0.3l2.3,7.6c0,0.1-0.1,0.3-0.2,0.3h-1
				c-0.1,0-0.2-0.1-0.2-0.2l-2.2-7.4c0-0.1-0.1-0.2-0.2-0.2h-2.1c-0.1,0-0.2,0.1-0.2,0.2v7.3c0,0.1-0.1,0.2-0.2,0.2h-1
				C48.9,155.9,48.8,155.8,48.8,155.7z M50.3,146.9c0,0.1,0.1,0.2,0.2,0.2h1.8c0.7,0,1.2-0.1,1.5-0.3c0.4-0.2,0.6-0.5,0.8-1
				c0.2-0.4,0.2-1,0.2-1.6c0-1-0.2-1.7-0.5-2.2c-0.3-0.5-1-0.7-2-0.7h-1.8c-0.1,0-0.2,0.1-0.2,0.2V146.9z"/>
			
				<linearGradient id="SVGID_00000082350634137980889940000014624095386101138088_" gradientUnits="userSpaceOnUse" x1="35.4808" y1="148.0915" x2="103.0317" y2="95.4184">
				<stop  offset="2.406254e-02" style="stop-color:#FFFFFF;stop-opacity:0"/>
				<stop  offset="1" style="stop-color:#FFFFFF"/>
			</linearGradient>
			<path style="fill:url(#SVGID_00000082350634137980889940000014624095386101138088_);" d="M58.8,155.7v-15.3
				c0-0.1,0.1-0.2,0.2-0.2h5.3c0.1,0,0.2,0.1,0.2,0.2v0.7c0,0.1-0.1,0.2-0.2,0.2h-3.8c-0.1,0-0.2,0.1-0.2,0.2v5.5
				c0,0.1,0.1,0.2,0.2,0.2h3c0.1,0,0.2,0.1,0.2,0.2v0.7c0,0.1-0.1,0.2-0.2,0.2h-3c-0.1,0-0.2,0.1-0.2,0.2v6.1c0,0.1,0.1,0.2,0.2,0.2
				h3.8c0.1,0,0.2,0.1,0.2,0.2v0.7c0,0.1-0.1,0.2-0.2,0.2h-5.3C58.9,155.9,58.8,155.8,58.8,155.7z"/>
			
				<linearGradient id="SVGID_00000026886467589567984880000004146975842137714095_" gradientUnits="userSpaceOnUse" x1="35.4808" y1="148.0915" x2="103.0317" y2="95.4184">
				<stop  offset="2.406254e-02" style="stop-color:#FFFFFF;stop-opacity:0"/>
				<stop  offset="1" style="stop-color:#FFFFFF"/>
			</linearGradient>
			<path style="fill:url(#SVGID_00000026886467589567984880000004146975842137714095_);" d="M68.6,155.7L66,140.4
				c0-0.1,0.1-0.3,0.2-0.3h0.8c0.1,0,0.2,0.1,0.2,0.2l1.9,11.4c0,0.2,0.4,0.2,0.4,0l2.1-11.2c0-0.1,0.1-0.2,0.2-0.2h0.9
				c0.1,0,0.2,0.1,0.2,0.2l2.2,11.2c0,0.2,0.4,0.2,0.4,0l1.7-11.4c0-0.1,0.1-0.2,0.2-0.2h0.8c0.1,0,0.2,0.1,0.2,0.3L76,155.7
				c0,0.1-0.1,0.2-0.2,0.2H75c-0.1,0-0.2-0.1-0.2-0.2L72.6,144c0-0.2-0.4-0.2-0.4,0l-2.2,11.7c0,0.1-0.1,0.2-0.2,0.2h-0.8
				C68.7,155.9,68.6,155.8,68.6,155.7z"/>
		</g>
	</g>
</g>
<g id="Logo_00000165206352116526149370000016514459704123980953_">
	
		<linearGradient id="Corno_00000181783686345274559930000018274539026602167188_" gradientUnits="userSpaceOnUse" x1="103.2516" y1="98.0575" x2="185.6644" y2="-84.0847">
		<stop  offset="0" style="stop-color:#FFFFFF;stop-opacity:0"/>
		<stop  offset="1" style="stop-color:#FFFFFF"/>
	</linearGradient>
	
		<path id="Corno_00000113334042095922980310000007546944121398415520_" style="fill:url(#Corno_00000181783686345274559930000018274539026602167188_);" d="
		M151.8,59.8C126.5,58,108,78.5,98.9,96.4c-1.1,0.1-2.2,0.1-3.4,0.1c0-0.4,0-0.9-0.1-1.4c0,0,0.8-11.1-4.8-25.6
		c-0.8-2.1-1.7-4.2-2.8-6.4c49.4,5.7,49.9-42,45.9-57.2c-0.6-2.4,3-3,4.4-0.9C145.5,16.1,155,39.4,151.8,59.8z"/>
	
		<linearGradient id="Muso_00000058562259625317819490000003066828174192119426_" gradientUnits="userSpaceOnUse" x1="118.1671" y1="117.5127" x2="186.8474" y2="213.8499">
		<stop  offset="1.170963e-03" style="stop-color:#FFFFFF;stop-opacity:0"/>
		<stop  offset="1" style="stop-color:#FFFFFF"/>
	</linearGradient>
	
		<path id="Muso_00000031930011023315216140000008882536207961247912_" style="fill:url(#Muso_00000058562259625317819490000003066828174192119426_);" d="
		M155.8,121.9c-3.6-6.9-7.2-13.8-10.8-20.6c-25.6,24.5-49.3,21.2-49.3,21.2h-0.1c-0.2,9.1-0.2,14.9-0.2,19.2
		c3.2,0.1,7.1,0.2,8.6,0.1c2.8-0.2,6.5-4.4,6.5-4.4c4.7,9.1,11.8,14.9,18.5,14.3c3.9-0.4,8.5-3.1,8.5-5.6c4.8,4.6,11.1,6.6,18.2,4.1
		C167.7,146,172.2,123.5,155.8,121.9z M125.9,139.6c-1.4-2,1.6-4.2,3.1-2.3c2.5,3.1,6.7,6.8,7.7,7.8
		C135.9,144.3,128.3,142.9,125.9,139.6z"/>
	
		<linearGradient id="Pianta_00000098919598710379376490000002050700904210653324_" gradientUnits="userSpaceOnUse" x1="39.6083" y1="135.1157" x2="125.0104" y2="-32.5724">
		<stop  offset="0" style="stop-color:#FFFFFF;stop-opacity:0"/>
		<stop  offset="0.8687" style="stop-color:#FFFFFF"/>
	</linearGradient>
	
		<path id="Pianta_00000077307867263608064120000012649477154085752507_" style="fill:url(#Pianta_00000098919598710379376490000002050700904210653324_);" d="
		M170.3,66.5c-8.1,15.4-16.8,26.6-25.3,34.7c-25.6,24.5-49.3,21.2-49.3,21.2h-0.1c-0.2,9.1-0.2,14.9-0.2,19.2
		c0,5.3-0.1,8.4-0.7,12.6c-0.1,0.7-0.7,1.3-1.5,1.3c-3-0.1-5.9-0.1-8.9-0.2c-0.9,0-1.6-0.8-1.4-1.7c3.9-26.4,3.2-49.7,2.8-57.5
		c0-0.6-0.4-1.1-1-1.3C75.5,91.7,0.3,63.5,6.5,12.5c0.2-1.4,1.5-2.4,2.9-2.1c0.8,0.2,1.5,0.7,1.7,1.5c2.5,7.6,11.6,16,23.1,21.9
		c2.2,1.1,4.4,2.1,6.7,3c1,0.4,2,0.7,2.9,1.1c9.8,3.4,19.3,4.3,26.7,2.8c0.5-0.1,1,0.1,1.3,0.4c7.4,7.3,12.5,14.9,16,22
		c1.1,2.2,2,4.4,2.8,6.4c5.6,14.5,4.8,25.6,4.8,25.6c0,0.1,0,0.2,0,0.3c0,0.4,0,0.7,0,1.1c0,0.1,0,0.3,0,0.4c0.1,1.5,2.1,2,2.8,0.6
		c0.2-0.4,0.4-0.8,0.6-1.2c0.2-0.4,0.4-0.7,0.6-1.1c9.3-17.7,27.5-37.3,52.3-35.6c5.6,0.4,11.6,1.8,17.8,4.7
		C170.4,64.8,170.7,65.8,170.3,66.5z"/>
	<g id="Testo_00000060734061399424674640000004608156985082307210_">
		<g>
			
				<linearGradient id="SVGID_00000125605068522346712090000008884549598153103259_" gradientUnits="userSpaceOnUse" x1="35.5168" y1="147.8845" x2="102.9777" y2="95.2817">
				<stop  offset="2.406254e-02" style="stop-color:#FFFFFF;stop-opacity:0"/>
				<stop  offset="1" style="stop-color:#FFFFFF"/>
			</linearGradient>
			<path style="fill:url(#SVGID_00000125605068522346712090000008884549598153103259_);" d="M45.1,116.6v-15.3
				c0-0.1,0.1-0.2,0.2-0.2h3.2c0.7,0,1.3,0.1,1.8,0.3c0.5,0.2,0.9,0.4,1.2,0.8c0.3,0.3,0.5,0.8,0.6,1.3c0.1,0.5,0.2,1,0.2,1.6
				c0,0.5-0.1,1-0.2,1.5c-0.1,0.5-0.3,0.9-0.6,1.2c-0.3,0.3-0.7,0.5-1.2,0.7c0.6,0.2,1.1,0.5,1.4,0.9c0.3,0.4,0.6,0.9,0.7,1.4
				c0.1,0.5,0.2,1.1,0.2,1.7c0,0.6-0.1,1.2-0.2,1.8c-0.1,0.6-0.3,1-0.6,1.4c-0.3,0.4-0.7,0.7-1.1,1c-0.5,0.2-1.1,0.4-1.8,0.4h-3.7
				C45.2,116.8,45.1,116.7,45.1,116.6z M46.5,107.6c0,0.1,0.1,0.2,0.2,0.2h1.9c0.6,0,1.1-0.1,1.4-0.4c0.3-0.2,0.6-0.6,0.7-1
				c0.1-0.4,0.2-0.9,0.2-1.5c0-0.6-0.1-1.2-0.3-1.6c-0.2-0.4-0.5-0.7-0.9-0.9c-0.4-0.2-1-0.3-1.9-0.3h-1.2c-0.1,0-0.2,0.1-0.2,0.2
				V107.6z M46.5,115.5c0,0.1,0.1,0.2,0.2,0.2h1.9c1,0,1.7-0.3,2.1-0.8c0.3-0.6,0.5-1.4,0.5-2.6c0-0.6-0.1-1.2-0.2-1.7
				c-0.2-0.5-0.4-0.9-0.8-1.2c-0.4-0.3-0.9-0.4-1.5-0.4h-1.9c-0.1,0-0.2,0.1-0.2,0.2V115.5z"/>
			
				<linearGradient id="SVGID_00000093173526040456145530000005353995837102749832_" gradientUnits="userSpaceOnUse" x1="35.5168" y1="147.8845" x2="102.9777" y2="95.2817">
				<stop  offset="2.406254e-02" style="stop-color:#FFFFFF;stop-opacity:0"/>
				<stop  offset="1" style="stop-color:#FFFFFF"/>
			</linearGradient>
			<path style="fill:url(#SVGID_00000093173526040456145530000005353995837102749832_);" d="M54.1,116.5l3.2-15.3
				c0-0.1,0.1-0.2,0.2-0.2h1.2c0.1,0,0.2,0.1,0.2,0.2l3.3,15.3c0,0.1-0.1,0.3-0.2,0.3h-1c-0.1,0-0.2-0.1-0.2-0.2l-0.7-3.9
				c0-0.1-0.1-0.2-0.2-0.2h-3.4c-0.1,0-0.2,0.1-0.2,0.2l-0.7,3.9c0,0.1-0.1,0.2-0.2,0.2h-1C54.2,116.8,54.1,116.7,54.1,116.5z
				 M56.8,111.5h2.8c0.1,0,0.2-0.1,0.2-0.3l-1.4-7.2c0-0.2-0.4-0.2-0.4,0l-1.4,7.2C56.5,111.4,56.6,111.5,56.8,111.5z"/>
			
				<linearGradient id="SVGID_00000106132496068358284350000005539379236274184865_" gradientUnits="userSpaceOnUse" x1="35.5168" y1="147.8845" x2="102.9777" y2="95.2817">
				<stop  offset="2.406254e-02" style="stop-color:#FFFFFF;stop-opacity:0"/>
				<stop  offset="1" style="stop-color:#FFFFFF"/>
			</linearGradient>
			<path style="fill:url(#SVGID_00000106132496068358284350000005539379236274184865_);" d="M66.2,116.6v-5c0,0,0,0,0-0.1l-3.5-10.2
				c0-0.1,0.1-0.3,0.2-0.3h1c0.1,0,0.2,0.1,0.2,0.2l2.6,7.9c0.1,0.2,0.4,0.2,0.4,0l2.5-7.9c0-0.1,0.1-0.2,0.2-0.2h1
				c0.1,0,0.3,0.1,0.2,0.3l-3.4,10.2c0,0,0,0,0,0.1v5c0,0.1-0.1,0.2-0.2,0.2h-1C66.3,116.8,66.2,116.7,66.2,116.6z"/>
			
				<linearGradient id="SVGID_00000027562632734668570550000003393144872382436283_" gradientUnits="userSpaceOnUse" x1="35.5168" y1="147.8845" x2="102.9777" y2="95.2817">
				<stop  offset="2.406254e-02" style="stop-color:#FFFFFF;stop-opacity:0"/>
				<stop  offset="1" style="stop-color:#FFFFFF"/>
			</linearGradient>
			<path style="fill:url(#SVGID_00000027562632734668570550000003393144872382436283_);" d="M72.8,116.6v-15.3
				c0-0.1,0.1-0.2,0.2-0.2h5.3c0.1,0,0.2,0.1,0.2,0.2v0.7c0,0.1-0.1,0.2-0.2,0.2h-3.8c-0.1,0-0.2,0.1-0.2,0.2v5.5
				c0,0.1,0.1,0.2,0.2,0.2h3c0.1,0,0.2,0.1,0.2,0.2v0.7c0,0.1-0.1,0.2-0.2,0.2h-3c-0.1,0-0.2,0.1-0.2,0.2v6.1c0,0.1,0.1,0.2,0.2,0.2
				h3.8c0.1,0,0.2,0.1,0.2,0.2v0.7c0,0.1-0.1,0.2-0.2,0.2h-5.3C72.9,116.8,72.8,116.7,72.8,116.6z"/>
			
				<linearGradient id="SVGID_00000129902887629204155030000017243440712344679857_" gradientUnits="userSpaceOnUse" x1="35.5168" y1="147.8845" x2="102.9777" y2="95.2817">
				<stop  offset="2.406254e-02" style="stop-color:#FFFFFF;stop-opacity:0"/>
				<stop  offset="1" style="stop-color:#FFFFFF"/>
			</linearGradient>
			<path style="fill:url(#SVGID_00000129902887629204155030000017243440712344679857_);" d="M65.6,136.4c-0.9,0-1.6-0.2-2.1-0.5
				c-0.6-0.4-1-0.9-1.3-1.5c-0.3-0.6-0.4-1.3-0.5-2.1c0-0.1,0.1-0.2,0.2-0.2l0.9-0.3c0.1,0,0.3,0.1,0.3,0.2c0.1,0.5,0.2,1,0.3,1.5
				c0.2,0.5,0.4,0.9,0.8,1.2c0.4,0.3,0.9,0.5,1.5,0.5c0.7,0,1.2-0.2,1.6-0.5c0.4-0.4,0.6-0.9,0.6-1.7c0-0.7-0.2-1.3-0.5-1.8
				c-0.3-0.5-0.8-1-1.4-1.6l-2.8-2.7c-0.5-0.5-0.9-1-1.1-1.5c-0.2-0.5-0.4-1.1-0.4-1.7c0-1.1,0.3-1.9,1-2.5c0.6-0.6,1.5-0.9,2.6-0.9
				c0.6,0,1.1,0.1,1.5,0.2s0.8,0.4,1.1,0.7c0.3,0.3,0.6,0.7,0.7,1.2c0.2,0.5,0.3,1,0.4,1.7c0,0.1-0.1,0.2-0.2,0.2l-0.8,0.2
				c-0.1,0-0.3-0.1-0.3-0.2c-0.1-0.6-0.2-1-0.3-1.4c-0.2-0.5-0.4-0.8-0.8-1.1c-0.3-0.2-0.8-0.4-1.4-0.4c-0.6,0-1.2,0.2-1.6,0.5
				c-0.4,0.3-0.6,0.9-0.6,1.6c0,0.4,0.1,0.8,0.2,1.2s0.5,0.7,0.9,1.1l2.8,2.6c0.6,0.6,1.2,1.2,1.6,1.9c0.5,0.7,0.7,1.5,0.7,2.4
				c0,0.8-0.2,1.5-0.5,2c-0.3,0.5-0.7,0.9-1.3,1.2C67,136.3,66.3,136.4,65.6,136.4z"/>
			
				<linearGradient id="SVGID_00000138550184643347210450000010964240912039017637_" gradientUnits="userSpaceOnUse" x1="35.5168" y1="147.8845" x2="102.9777" y2="95.2817">
				<stop  offset="2.406254e-02" style="stop-color:#FFFFFF;stop-opacity:0"/>
				<stop  offset="1" style="stop-color:#FFFFFF"/>
			</linearGradient>
			<path style="fill:url(#SVGID_00000138550184643347210450000010964240912039017637_);" d="M70.5,136l3.2-15.3
				c0-0.1,0.1-0.2,0.2-0.2h1.2c0.1,0,0.2,0.1,0.2,0.2l3.3,15.3c0,0.1-0.1,0.3-0.2,0.3h-1c-0.1,0-0.2-0.1-0.2-0.2l-0.7-3.9
				c0-0.1-0.1-0.2-0.2-0.2h-3.4c-0.1,0-0.2,0.1-0.2,0.2l-0.7,3.9c0,0.1-0.1,0.2-0.2,0.2h-1C70.6,136.2,70.5,136.1,70.5,136z
				 M73.2,131H76c0.1,0,0.2-0.1,0.2-0.3l-1.4-7.2c0-0.2-0.4-0.2-0.4,0l-1.4,7.2C72.9,130.8,73,131,73.2,131z"/>
			
				<linearGradient id="SVGID_00000016786557256179849240000014801940392737344696_" gradientUnits="userSpaceOnUse" x1="35.5168" y1="147.8845" x2="102.9777" y2="95.2817">
				<stop  offset="2.406254e-02" style="stop-color:#FFFFFF;stop-opacity:0"/>
				<stop  offset="1" style="stop-color:#FFFFFF"/>
			</linearGradient>
			<path style="fill:url(#SVGID_00000016786557256179849240000014801940392737344696_);" d="M48.8,155.5v-15.3
				c0-0.1,0.1-0.2,0.2-0.2h3.3c1,0,1.8,0.2,2.3,0.5c0.6,0.3,1,0.8,1.2,1.4c0.2,0.6,0.4,1.3,0.4,2.1c0,0.6-0.1,1.1-0.2,1.7
				c-0.1,0.5-0.4,1-0.7,1.3c-0.3,0.3-0.6,0.5-1.1,0.7c-0.1,0-0.2,0.2-0.2,0.3l2.3,7.6c0,0.1-0.1,0.3-0.2,0.3h-1
				c-0.1,0-0.2-0.1-0.2-0.2l-2.2-7.4c0-0.1-0.1-0.2-0.2-0.2h-2.1c-0.1,0-0.2,0.1-0.2,0.2v7.3c0,0.1-0.1,0.2-0.2,0.2h-1
				C48.9,155.7,48.8,155.6,48.8,155.5z M50.3,146.6c0,0.1,0.1,0.2,0.2,0.2h1.8c0.7,0,1.2-0.1,1.5-0.3c0.4-0.2,0.6-0.5,0.8-1
				c0.2-0.4,0.2-1,0.2-1.6c0-1-0.2-1.7-0.5-2.2c-0.3-0.5-1-0.7-2-0.7h-1.8c-0.1,0-0.2,0.1-0.2,0.2V146.6z"/>
			
				<linearGradient id="SVGID_00000043443747720028165050000017418016344523289011_" gradientUnits="userSpaceOnUse" x1="35.5168" y1="147.8845" x2="102.9777" y2="95.2817">
				<stop  offset="2.406254e-02" style="stop-color:#FFFFFF;stop-opacity:0"/>
				<stop  offset="1" style="stop-color:#FFFFFF"/>
			</linearGradient>
			<path style="fill:url(#SVGID_00000043443747720028165050000017418016344523289011_);" d="M58.8,155.5v-15.3
				c0-0.1,0.1-0.2,0.2-0.2h5.3c0.1,0,0.2,0.1,0.2,0.2v0.7c0,0.1-0.1,0.2-0.2,0.2h-3.8c-0.1,0-0.2,0.1-0.2,0.2v5.5
				c0,0.1,0.1,0.2,0.2,0.2h3c0.1,0,0.2,0.1,0.2,0.2v0.7c0,0.1-0.1,0.2-0.2,0.2h-3c-0.1,0-0.2,0.1-0.2,0.2v6.1c0,0.1,0.1,0.2,0.2,0.2
				h3.8c0.1,0,0.2,0.1,0.2,0.2v0.7c0,0.1-0.1,0.2-0.2,0.2h-5.3C58.9,155.7,58.8,155.6,58.8,155.5z"/>
			
				<linearGradient id="SVGID_00000139977228121226026150000006413147804202437792_" gradientUnits="userSpaceOnUse" x1="35.5168" y1="147.8845" x2="102.9777" y2="95.2817">
				<stop  offset="2.406254e-02" style="stop-color:#FFFFFF;stop-opacity:0"/>
				<stop  offset="1" style="stop-color:#FFFFFF"/>
			</linearGradient>
			<path style="fill:url(#SVGID_00000139977228121226026150000006413147804202437792_);" d="M68.6,155.5L66,140.2
				c0-0.1,0.1-0.3,0.2-0.3h0.8c0.1,0,0.2,0.1,0.2,0.2l1.9,11.4c0,0.2,0.4,0.2,0.4,0l2.1-11.2c0-0.1,0.1-0.2,0.2-0.2h0.9
				c0.1,0,0.2,0.1,0.2,0.2l2.2,11.2c0,0.2,0.4,0.2,0.4,0l1.7-11.4c0-0.1,0.1-0.2,0.2-0.2h0.8c0.1,0,0.2,0.1,0.2,0.3L76,155.5
				c0,0.1-0.1,0.2-0.2,0.2H75c-0.1,0-0.2-0.1-0.2-0.2l-2.3-11.7c0-0.2-0.4-0.2-0.4,0l-2.2,11.7c0,0.1-0.1,0.2-0.2,0.2h-0.8
				C68.7,155.7,68.6,155.6,68.6,155.5z"/>
		</g>
	</g>
</g>
</svg>
