<?xml version="1.0" encoding="utf-8"?>
<!-- Generator: Adobe Illustrator 26.0.0, SVG Export Plug-In . SVG Version: 6.00 Build 0)  -->
<svg version="1.1" id="Livello_1" xmlns="http://www.w3.org/2000/svg" xmlns:xlink="http://www.w3.org/1999/xlink" x="0px" y="0px"
	 viewBox="0 0 174.3 159.8" style="enable-background:new 0 0 174.3 159.8;" xml:space="preserve">
<style type="text/css">
	.st0{fill:url(#Corno_00000082330581983918502060000001629046952153523588_);}
	.st1{fill:url(#Muso_00000124854700646906915990000009560534764133884344_);}
	.st2{fill:url(#Pianta_00000141440176533794833380000010865431297856985762_);}
	.st3{fill:url(#SVGID_1_);}
	.st4{fill:url(#SVGID_00000096057753235963925950000003758750695033612451_);}
	.st5{fill:url(#SVGID_00000139974128738109802160000012670292077489015214_);}
	.st6{fill:url(#SVGID_00000048490382987271831430000004596104633946969529_);}
	.st7{fill:url(#SVGID_00000006709884013830084310000012546748463751611047_);}
	.st8{fill:url(#SVGID_00000124122120963058302800000018108784898208082567_);}
	.st9{fill:url(#SVGID_00000096042392958359937730000003737043060677296554_);}
	.st10{fill:url(#SVGID_00000056399681953571666440000014407790243251248013_);}
	.st11{fill:url(#SVGID_00000020393920194122906780000008172671860499670690_);}
	.st12{fill:url(#Corno_00000047061412616250089530000000083203203750744227_);}
	.st13{fill:url(#Muso_00000098923885737813768950000009151435995705743532_);}
	.st14{fill:url(#Pianta_00000121972542741023242910000001882632806788119447_);}
	.st15{fill:url(#SVGID_00000062172591902941663350000000257011061928105392_);}
	.st16{fill:url(#SVGID_00000056424028546130554660000017718445122011713948_);}
	.st17{fill:url(#SVGID_00000101799907654304281890000010289923377100637573_);}
	.st18{fill:url(#SVGID_00000067218614495975675900000000405038135656049294_);}
	.st19{fill:url(#SVGID_00000121981230919201793100000018172884295335282562_);}
	.st20{fill:url(#SVGID_00000038392219388221022540000014379534676865209023_);}
	.st21{fill:url(#SVGID_00000134941327680689997200000000593484208352382378_);}
	.st22{fill:url(#SVGID_00000071544235359030917320000007398379310612832640_);}
	.st23{fill:url(#SVGID_00000052822101566056158000000017206645526565732024_);}
	.st24{fill:url(#Corno_00000037657824961010963700000001775956390399692693_);}
	.st25{fill:url(#Muso_00000023269461489759628470000000989667019194822585_);}
	.st26{fill:url(#Pianta_00000101096179863544082770000011427760683607378348_);}
	.st27{fill:url(#SVGID_00000021831903435404969650000011800076750735156871_);}
	.st28{fill:url(#SVGID_00000049942022249289062990000000162952028977060012_);}
	.st29{fill:url(#SVGID_00000105421456046886047510000013651562523833298860_);}
	.st30{fill:url(#SVGID_00000163052722327143664110000007537226549487277219_);}
	.st31{fill:url(#SVGID_00000060751093898904432400000003520266793260553387_);}
	.st32{fill:url(#SVGID_00000085937599701940597950000007168707612340383914_);}
	.st33{fill:url(#SVGID_00000030464647825888822030000008336497455769052088_);}
	.st34{fill:url(#SVGID_00000137852620704167156700000001825582594089149591_);}
	.st35{fill:url(#SVGID_00000071553063150286916350000009167742232607812249_);}
</style>
<g id="Logo_00000013877306828534596780000007660800660790967426_">
	
		<linearGradient id="Corno_00000078027995206006364390000000264456536702957224_" gradientUnits="userSpaceOnUse" x1="103.2003" y1="0.6617" x2="185.7686" y2="183.1474" gradientTransform="matrix(1 0 0 -1 0 98.7989)">
		<stop  offset="0" style="stop-color:#FFFFFF;stop-opacity:0"/>
		<stop  offset="1" style="stop-color:#FFFFFF"/>
	</linearGradient>
	
		<path id="Corno_00000029047935269118615910000004589475058710425241_" style="fill:url(#Corno_00000078027995206006364390000000264456536702957224_);" d="
		M151.8,59.8C126.5,58,108,78.5,98.9,96.5c-1.1,0.1-2.2,0.1-3.4,0.1c0-0.4,0-0.9-0.1-1.4c0,0,0.8-11.2-4.8-25.7
		c-0.8-2.1-1.7-4.2-2.8-6.4c49.4,5.8,49.9-42.1,45.9-57.3c-0.6-2.4,3-3,4.4-0.9C145.5,16,155,39.4,151.8,59.8z"/>
	
		<linearGradient id="Muso_00000168091455341149388350000013336895823001994388_" gradientUnits="userSpaceOnUse" x1="118.1473" y1="-18.9025" x2="186.8844" y2="-115.3195" gradientTransform="matrix(1 0 0 -1 0 98.7989)">
		<stop  offset="1.170963e-03" style="stop-color:#FFFFFF;stop-opacity:0"/>
		<stop  offset="1" style="stop-color:#FFFFFF"/>
	</linearGradient>
	
		<path id="Muso_00000111889949632342482640000018284053388438582924_" style="fill:url(#Muso_00000168091455341149388350000013336895823001994388_);" d="
		M155.8,122c-3.6-6.9-7.2-13.8-10.8-20.7c-25.6,24.5-49.3,21.2-49.3,21.2h-0.1c-0.2,9.1-0.2,14.9-0.2,19.3c3.2,0.1,7.1,0.2,8.6,0.1
		c2.8-0.2,6.5-4.5,6.5-4.5c4.7,9.1,11.8,15,18.5,14.3c3.9-0.4,8.5-3.1,8.5-5.6c4.8,4.6,11.1,6.6,18.2,4.1
		C167.7,146.2,172.2,123.7,155.8,122z M125.9,139.8c-1.4-2,1.6-4.2,3.1-2.3c2.5,3.1,6.7,6.8,7.7,7.9
		C135.9,144.6,128.3,143.2,125.9,139.8z"/>
	
		<linearGradient id="Pianta_00000146473244585210203250000005693094929661840773_" gradientUnits="userSpaceOnUse" x1="39.5043" y1="-36.5071" x2="125.037" y2="131.4375" gradientTransform="matrix(1 0 0 -1 0 98.7989)">
		<stop  offset="0" style="stop-color:#FFFFFF;stop-opacity:0"/>
		<stop  offset="0.8687" style="stop-color:#FFFFFF"/>
	</linearGradient>
	
		<path id="Pianta_00000150787810823128341300000009706541540017239183_" style="fill:url(#Pianta_00000146473244585210203250000005693094929661840773_);" d="
		M170.3,66.5c-8.1,15.4-16.8,26.6-25.3,34.8c-25.6,24.5-49.3,21.2-49.3,21.2h-0.1c-0.2,9.1-0.2,14.9-0.2,19.3
		c0,5.3-0.1,8.5-0.7,12.7c-0.1,0.7-0.7,1.3-1.5,1.3c-3-0.1-5.9-0.1-8.9-0.2c-0.9,0-1.6-0.8-1.4-1.7c3.9-26.4,3.2-49.8,2.8-57.6
		c0-0.6-0.4-1.1-1-1.3C75.5,91.8,0.3,63.6,6.5,12.4C6.7,11,8,10,9.4,10.3c0.8,0.2,1.5,0.7,1.7,1.5c2.5,7.6,11.6,16,23.1,22
		c2.2,1.1,4.4,2.1,6.7,3c1,0.4,2,0.8,2.9,1.1c9.8,3.4,19.3,4.3,26.7,2.9c0.5-0.1,1,0.1,1.3,0.4c7.4,7.3,12.5,14.9,16,22
		c1.1,2.2,2,4.4,2.8,6.4c5.6,14.5,4.8,25.7,4.8,25.7c0,0.1,0,0.2,0,0.3c0,0.4,0,0.7,0,1.1c0,0.1,0,0.3,0,0.4c0.1,1.5,2.1,2,2.8,0.6
		c0.2-0.4,0.4-0.8,0.6-1.2c0.2-0.4,0.4-0.7,0.6-1.1c9.3-17.7,27.5-37.4,52.3-35.6c5.6,0.4,11.6,1.8,17.8,4.7
		C170.4,64.8,170.7,65.8,170.3,66.5z"/>
	<g id="Testo_00000072269185993034682560000008975208723733038229_">
		<g>
			
				<linearGradient id="SVGID_1_" gradientUnits="userSpaceOnUse" x1="21.2727" y1="-31.0714" x2="88.8236" y2="21.6017" gradientTransform="matrix(1 0 0 -1 0 98.7989)">
				<stop  offset="2.406254e-02" style="stop-color:#FFFFFF;stop-opacity:0"/>
				<stop  offset="1" style="stop-color:#FFFFFF"/>
			</linearGradient>
			<path class="st3" d="M45.1,116.7v-15.3c0-0.1,0.1-0.2,0.2-0.2h3.2c0.7,0,1.3,0.1,1.8,0.3c0.5,0.2,0.9,0.4,1.2,0.8
				s0.5,0.8,0.6,1.3s0.2,1,0.2,1.6c0,0.5-0.1,1-0.2,1.5c-0.1,0.5-0.3,0.9-0.6,1.2c-0.3,0.3-0.7,0.5-1.2,0.7c0.6,0.2,1.1,0.5,1.4,0.9
				c0.3,0.4,0.6,0.9,0.7,1.4c0.1,0.5,0.2,1.1,0.2,1.7s-0.1,1.2-0.2,1.8c-0.1,0.6-0.3,1-0.6,1.5c-0.3,0.4-0.7,0.7-1.1,1
				c-0.5,0.2-1.1,0.4-1.8,0.4h-3.7C45.2,117,45.1,116.9,45.1,116.7z M46.5,107.8c0,0.1,0.1,0.2,0.2,0.2h1.9c0.6,0,1.1-0.1,1.4-0.4
				c0.3-0.2,0.6-0.6,0.7-1c0.1-0.4,0.2-0.9,0.2-1.5s-0.1-1.2-0.3-1.6s-0.5-0.7-0.9-0.9c-0.4-0.2-1-0.3-1.9-0.3h-1.2
				c-0.1,0-0.2,0.1-0.2,0.2L46.5,107.8L46.5,107.8z M46.5,115.6c0,0.1,0.1,0.2,0.2,0.2h1.9c1,0,1.7-0.3,2.1-0.8
				c0.3-0.6,0.5-1.4,0.5-2.6c0-0.6-0.1-1.2-0.2-1.7c-0.2-0.5-0.4-0.9-0.8-1.2c-0.4-0.3-0.9-0.4-1.5-0.4h-1.9c-0.1,0-0.2,0.1-0.2,0.2
				L46.5,115.6L46.5,115.6z"/>
			
				<linearGradient id="SVGID_00000052100657841520302600000001700595238276820148_" gradientUnits="userSpaceOnUse" x1="25.7444" y1="-36.806" x2="93.2952" y2="15.8671" gradientTransform="matrix(1 0 0 -1 0 98.7989)">
				<stop  offset="2.406254e-02" style="stop-color:#FFFFFF;stop-opacity:0"/>
				<stop  offset="1" style="stop-color:#FFFFFF"/>
			</linearGradient>
			<path style="fill:url(#SVGID_00000052100657841520302600000001700595238276820148_);" d="M54.1,116.7l3.2-15.3
				c0-0.1,0.1-0.2,0.2-0.2h1.2c0.1,0,0.2,0.1,0.2,0.2l3.3,15.3c0,0.1-0.1,0.3-0.2,0.3h-1c-0.1,0-0.2-0.1-0.2-0.2l-0.7-3.9
				c0-0.1-0.1-0.2-0.2-0.2h-3.4c-0.1,0-0.2,0.1-0.2,0.2l-0.7,3.9c0,0.1-0.1,0.2-0.2,0.2h-1C54.2,117,54.1,116.8,54.1,116.7z
				 M56.8,111.7h2.8c0.1,0,0.2-0.1,0.2-0.3l-1.4-7.2c0-0.2-0.4-0.2-0.4,0l-1.4,7.2C56.5,111.5,56.6,111.7,56.8,111.7z"/>
			
				<linearGradient id="SVGID_00000051348740698703692800000005033248374501189807_" gradientUnits="userSpaceOnUse" x1="27.7485" y1="-39.3762" x2="95.2994" y2="13.2969" gradientTransform="matrix(1 0 0 -1 0 98.7989)">
				<stop  offset="2.406254e-02" style="stop-color:#FFFFFF;stop-opacity:0"/>
				<stop  offset="1" style="stop-color:#FFFFFF"/>
			</linearGradient>
			<path style="fill:url(#SVGID_00000051348740698703692800000005033248374501189807_);" d="M66.2,116.7v-5c0,0,0,0,0-0.1l-3.5-10.2
				c0-0.1,0.1-0.3,0.2-0.3h1c0.1,0,0.2,0.1,0.2,0.2l2.6,8c0.1,0.2,0.4,0.2,0.4,0l2.5-8c0-0.1,0.1-0.2,0.2-0.2h1
				c0.1,0,0.3,0.1,0.2,0.3l-3.4,10.2c0,0,0,0,0,0.1v5c0,0.1-0.1,0.2-0.2,0.2h-1C66.3,117,66.2,116.9,66.2,116.7z"/>
			
				<linearGradient id="SVGID_00000112632358363150277430000010696137674683912346_" gradientUnits="userSpaceOnUse" x1="31.7375" y1="-44.492" x2="99.2884" y2="8.1811" gradientTransform="matrix(1 0 0 -1 0 98.7989)">
				<stop  offset="2.406254e-02" style="stop-color:#FFFFFF;stop-opacity:0"/>
				<stop  offset="1" style="stop-color:#FFFFFF"/>
			</linearGradient>
			<path style="fill:url(#SVGID_00000112632358363150277430000010696137674683912346_);" d="M72.8,116.7v-15.3
				c0-0.1,0.1-0.2,0.2-0.2h5.3c0.1,0,0.2,0.1,0.2,0.2v0.7c0,0.1-0.1,0.2-0.2,0.2h-3.8c-0.1,0-0.2,0.1-0.2,0.2v5.5
				c0,0.1,0.1,0.2,0.2,0.2h3c0.1,0,0.2,0.1,0.2,0.2v0.7c0,0.1-0.1,0.2-0.2,0.2h-3c-0.1,0-0.2,0.1-0.2,0.2v6.1c0,0.1,0.1,0.2,0.2,0.2
				h3.8c0.1,0,0.2,0.1,0.2,0.2v0.7c0,0.1-0.1,0.2-0.2,0.2H73C72.9,117,72.8,116.9,72.8,116.7z"/>
			
				<linearGradient id="SVGID_00000056401094042956459970000012528899776224965009_" gradientUnits="userSpaceOnUse" x1="37.2971" y1="-51.6219" x2="104.848" y2="1.0512" gradientTransform="matrix(1 0 0 -1 0 98.7989)">
				<stop  offset="2.406254e-02" style="stop-color:#FFFFFF;stop-opacity:0"/>
				<stop  offset="1" style="stop-color:#FFFFFF"/>
			</linearGradient>
			<path style="fill:url(#SVGID_00000056401094042956459970000012528899776224965009_);" d="M65.6,136.6c-0.9,0-1.6-0.2-2.1-0.5
				c-0.6-0.4-1-0.9-1.3-1.5s-0.4-1.3-0.5-2.1c0-0.1,0.1-0.2,0.2-0.2l0.9-0.3c0.1,0,0.3,0.1,0.3,0.2c0.1,0.5,0.2,1,0.3,1.5
				c0.2,0.5,0.4,0.9,0.8,1.2s0.9,0.5,1.5,0.5c0.7,0,1.2-0.2,1.6-0.5c0.4-0.4,0.6-0.9,0.6-1.7c0-0.7-0.2-1.3-0.5-1.8s-0.8-1-1.4-1.6
				l-2.8-2.7c-0.5-0.5-0.9-1-1.1-1.5c-0.2-0.5-0.4-1.1-0.4-1.7c0-1.1,0.3-1.9,1-2.5c0.6-0.6,1.5-0.9,2.6-0.9c0.6,0,1.1,0.1,1.5,0.2
				s0.8,0.4,1.1,0.7c0.3,0.3,0.6,0.7,0.7,1.2c0.2,0.5,0.3,1,0.4,1.7c0,0.1-0.1,0.2-0.2,0.2l-0.8,0.2c-0.1,0-0.3-0.1-0.3-0.2
				c-0.1-0.6-0.2-1-0.3-1.4c-0.2-0.5-0.4-0.8-0.8-1.1c-0.3-0.2-0.8-0.4-1.4-0.4s-1.2,0.2-1.6,0.5c-0.4,0.3-0.6,0.9-0.6,1.6
				c0,0.4,0.1,0.8,0.2,1.2s0.5,0.7,0.9,1.1l2.8,2.6c0.6,0.6,1.2,1.2,1.6,1.9c0.5,0.7,0.7,1.5,0.7,2.4c0,0.8-0.2,1.5-0.5,2
				s-0.7,0.9-1.3,1.2C67,136.5,66.3,136.6,65.6,136.6z"/>
			
				<linearGradient id="SVGID_00000126317755444090014110000011137247224721580944_" gradientUnits="userSpaceOnUse" x1="41.4013" y1="-56.8854" x2="108.9522" y2="-4.2123" gradientTransform="matrix(1 0 0 -1 0 98.7989)">
				<stop  offset="2.406254e-02" style="stop-color:#FFFFFF;stop-opacity:0"/>
				<stop  offset="1" style="stop-color:#FFFFFF"/>
			</linearGradient>
			<path style="fill:url(#SVGID_00000126317755444090014110000011137247224721580944_);" d="M70.5,136.2l3.2-15.3
				c0-0.1,0.1-0.2,0.2-0.2h1.2c0.1,0,0.2,0.1,0.2,0.2l3.3,15.3c0,0.1-0.1,0.3-0.2,0.3h-1c-0.1,0-0.2-0.1-0.2-0.2l-0.7-3.9
				c0-0.1-0.1-0.2-0.2-0.2h-3.4c-0.1,0-0.2,0.1-0.2,0.2l-0.7,3.9c0,0.1-0.1,0.2-0.2,0.2h-1C70.6,136.4,70.5,136.3,70.5,136.2z
				 M73.2,131.1H76c0.1,0,0.2-0.1,0.2-0.3l-1.4-7.2c0-0.2-0.4-0.2-0.4,0l-1.4,7.2C72.9,131,73,131.1,73.2,131.1z"/>
			
				<linearGradient id="SVGID_00000074440402643185994670000015505552615347635388_" gradientUnits="userSpaceOnUse" x1="41.9822" y1="-57.6303" x2="109.5331" y2="-4.9572" gradientTransform="matrix(1 0 0 -1 0 98.7989)">
				<stop  offset="2.406254e-02" style="stop-color:#FFFFFF;stop-opacity:0"/>
				<stop  offset="1" style="stop-color:#FFFFFF"/>
			</linearGradient>
			<path style="fill:url(#SVGID_00000074440402643185994670000015505552615347635388_);" d="M48.8,155.7v-15.3
				c0-0.1,0.1-0.2,0.2-0.2h3.3c1,0,1.8,0.2,2.3,0.5c0.6,0.3,1,0.8,1.2,1.4c0.2,0.6,0.4,1.3,0.4,2.2c0,0.6-0.1,1.1-0.2,1.7
				c-0.1,0.5-0.4,1-0.7,1.3s-0.6,0.5-1.1,0.7c-0.1,0-0.2,0.2-0.2,0.3l2.3,7.6c0,0.1-0.1,0.3-0.2,0.3h-1c-0.1,0-0.2-0.1-0.2-0.2
				l-2.2-7.4c0-0.1-0.1-0.2-0.2-0.2h-2.1c-0.1,0-0.2,0.1-0.2,0.2v7.3c0,0.1-0.1,0.2-0.2,0.2h-1C48.9,155.9,48.8,155.8,48.8,155.7z
				 M50.3,146.9c0,0.1,0.1,0.2,0.2,0.2h1.8c0.7,0,1.2-0.1,1.5-0.3c0.4-0.2,0.6-0.5,0.8-1c0.2-0.4,0.2-1,0.2-1.6c0-1-0.2-1.7-0.5-2.2
				s-1-0.7-2-0.7h-1.8c-0.1,0-0.2,0.1-0.2,0.2V146.9z"/>
			
				<linearGradient id="SVGID_00000032635324233179744410000003624762511649378748_" gradientUnits="userSpaceOnUse" x1="45.3557" y1="-61.9566" x2="112.9066" y2="-9.2835" gradientTransform="matrix(1 0 0 -1 0 98.7989)">
				<stop  offset="2.406254e-02" style="stop-color:#FFFFFF;stop-opacity:0"/>
				<stop  offset="1" style="stop-color:#FFFFFF"/>
			</linearGradient>
			<path style="fill:url(#SVGID_00000032635324233179744410000003624762511649378748_);" d="M58.8,155.7v-15.3
				c0-0.1,0.1-0.2,0.2-0.2h5.3c0.1,0,0.2,0.1,0.2,0.2v0.7c0,0.1-0.1,0.2-0.2,0.2h-3.8c-0.1,0-0.2,0.1-0.2,0.2v5.5
				c0,0.1,0.1,0.2,0.2,0.2h3c0.1,0,0.2,0.1,0.2,0.2v0.7c0,0.1-0.1,0.2-0.2,0.2h-3c-0.1,0-0.2,0.1-0.2,0.2v6.1c0,0.1,0.1,0.2,0.2,0.2
				h3.8c0.1,0,0.2,0.1,0.2,0.2v0.7c0,0.1-0.1,0.2-0.2,0.2H59C58.9,155.9,58.8,155.8,58.8,155.7z"/>
			
				<linearGradient id="SVGID_00000157275113372883803890000002994978690449519543_" gradientUnits="userSpaceOnUse" x1="48.8722" y1="-66.4664" x2="116.4231" y2="-13.7933" gradientTransform="matrix(1 0 0 -1 0 98.7989)">
				<stop  offset="2.406254e-02" style="stop-color:#FFFFFF;stop-opacity:0"/>
				<stop  offset="1" style="stop-color:#FFFFFF"/>
			</linearGradient>
			<path style="fill:url(#SVGID_00000157275113372883803890000002994978690449519543_);" d="M68.6,155.7L66,140.4
				c0-0.1,0.1-0.3,0.2-0.3H67c0.1,0,0.2,0.1,0.2,0.2l1.9,11.4c0,0.2,0.4,0.2,0.4,0l2.1-11.2c0-0.1,0.1-0.2,0.2-0.2h0.9
				c0.1,0,0.2,0.1,0.2,0.2l2.2,11.2c0,0.2,0.4,0.2,0.4,0l1.7-11.4c0-0.1,0.1-0.2,0.2-0.2h0.8c0.1,0,0.2,0.1,0.2,0.3L76,155.7
				c0,0.1-0.1,0.2-0.2,0.2H75c-0.1,0-0.2-0.1-0.2-0.2L72.6,144c0-0.2-0.4-0.2-0.4,0L70,155.7c0,0.1-0.1,0.2-0.2,0.2H69
				C68.7,155.9,68.6,155.8,68.6,155.7z"/>
		</g>
	</g>
</g>
<g id="Logo_00000072281985776578821330000015841841260159446410_">
	
		<linearGradient id="Corno_00000012433725229893189140000014050745927673360311_" gradientUnits="userSpaceOnUse" x1="103.2003" y1="0.6617" x2="185.7686" y2="183.1474" gradientTransform="matrix(1 0 0 -1 0 98.7989)">
		<stop  offset="0" style="stop-color:#FFFFFF;stop-opacity:0"/>
		<stop  offset="1" style="stop-color:#FFFFFF"/>
	</linearGradient>
	
		<path id="Corno_00000102536388199554729770000001992408555867360425_" style="fill:url(#Corno_00000012433725229893189140000014050745927673360311_);" d="
		M151.8,59.8C126.5,58,108,78.5,98.9,96.5c-1.1,0.1-2.2,0.1-3.4,0.1c0-0.4,0-0.9-0.1-1.4c0,0,0.8-11.2-4.8-25.7
		c-0.8-2.1-1.7-4.2-2.8-6.4c49.4,5.8,49.9-42.1,45.9-57.3c-0.6-2.4,3-3,4.4-0.9C145.5,16,155,39.4,151.8,59.8z"/>
	
		<linearGradient id="Muso_00000125598320120203434140000016364095273117336464_" gradientUnits="userSpaceOnUse" x1="118.1473" y1="-18.9025" x2="186.8844" y2="-115.3195" gradientTransform="matrix(1 0 0 -1 0 98.7989)">
		<stop  offset="1.170963e-03" style="stop-color:#FFFFFF;stop-opacity:0"/>
		<stop  offset="1" style="stop-color:#FFFFFF"/>
	</linearGradient>
	
		<path id="Muso_00000173120537941397531160000000790472816199197338_" style="fill:url(#Muso_00000125598320120203434140000016364095273117336464_);" d="
		M155.8,122c-3.6-6.9-7.2-13.8-10.8-20.7c-25.6,24.5-49.3,21.2-49.3,21.2h-0.1c-0.2,9.1-0.2,14.9-0.2,19.3c3.2,0.1,7.1,0.2,8.6,0.1
		c2.8-0.2,6.5-4.5,6.5-4.5c4.7,9.1,11.8,15,18.5,14.3c3.9-0.4,8.5-3.1,8.5-5.6c4.8,4.6,11.1,6.6,18.2,4.1
		C167.7,146.2,172.2,123.7,155.8,122z M125.9,139.8c-1.4-2,1.6-4.2,3.1-2.3c2.5,3.1,6.7,6.8,7.7,7.9
		C135.9,144.6,128.3,143.2,125.9,139.8z"/>
	
		<linearGradient id="Pianta_00000018233612891975169290000015426775571437700268_" gradientUnits="userSpaceOnUse" x1="39.5043" y1="-36.5071" x2="125.037" y2="131.4375" gradientTransform="matrix(1 0 0 -1 0 98.7989)">
		<stop  offset="0" style="stop-color:#FFFFFF;stop-opacity:0"/>
		<stop  offset="0.8687" style="stop-color:#FFFFFF"/>
	</linearGradient>
	
		<path id="Pianta_00000078766731951624531570000005322387193122329219_" style="fill:url(#Pianta_00000018233612891975169290000015426775571437700268_);" d="
		M170.3,66.5c-8.1,15.4-16.8,26.6-25.3,34.8c-25.6,24.5-49.3,21.2-49.3,21.2h-0.1c-0.2,9.1-0.2,14.9-0.2,19.3
		c0,5.3-0.1,8.5-0.7,12.7c-0.1,0.7-0.7,1.3-1.5,1.3c-3-0.1-5.9-0.1-8.9-0.2c-0.9,0-1.6-0.8-1.4-1.7c3.9-26.4,3.2-49.8,2.8-57.6
		c0-0.6-0.4-1.1-1-1.3C75.5,91.8,0.3,63.6,6.5,12.4C6.7,11,8,10,9.4,10.3c0.8,0.2,1.5,0.7,1.7,1.5c2.5,7.6,11.6,16,23.1,22
		c2.2,1.1,4.4,2.1,6.7,3c1,0.4,2,0.8,2.9,1.1c9.8,3.4,19.3,4.3,26.7,2.9c0.5-0.1,1,0.1,1.3,0.4c7.4,7.3,12.5,14.9,16,22
		c1.1,2.2,2,4.4,2.8,6.4c5.6,14.5,4.8,25.7,4.8,25.7c0,0.1,0,0.2,0,0.3c0,0.4,0,0.7,0,1.1c0,0.1,0,0.3,0,0.4c0.1,1.5,2.1,2,2.8,0.6
		c0.2-0.4,0.4-0.8,0.6-1.2c0.2-0.4,0.4-0.7,0.6-1.1c9.3-17.7,27.5-37.4,52.3-35.6c5.6,0.4,11.6,1.8,17.8,4.7
		C170.4,64.8,170.7,65.8,170.3,66.5z"/>
	<g id="Testo_00000134241992149868028270000013301817395173875631_">
		<g>
			
				<linearGradient id="SVGID_00000017514904180294205540000002473564163119080380_" gradientUnits="userSpaceOnUse" x1="21.2727" y1="-31.0714" x2="88.8236" y2="21.6017" gradientTransform="matrix(1 0 0 -1 0 98.7989)">
				<stop  offset="2.406254e-02" style="stop-color:#FFFFFF;stop-opacity:0"/>
				<stop  offset="1" style="stop-color:#FFFFFF"/>
			</linearGradient>
			<path style="fill:url(#SVGID_00000017514904180294205540000002473564163119080380_);" d="M45.1,116.7v-15.3
				c0-0.1,0.1-0.2,0.2-0.2h3.2c0.7,0,1.3,0.1,1.8,0.3c0.5,0.2,0.9,0.4,1.2,0.8s0.5,0.8,0.6,1.3s0.2,1,0.2,1.6c0,0.5-0.1,1-0.2,1.5
				c-0.1,0.5-0.3,0.9-0.6,1.2c-0.3,0.3-0.7,0.5-1.2,0.7c0.6,0.2,1.1,0.5,1.4,0.9c0.3,0.4,0.6,0.9,0.7,1.4c0.1,0.5,0.2,1.1,0.2,1.7
				s-0.1,1.2-0.2,1.8c-0.1,0.6-0.3,1-0.6,1.5c-0.3,0.4-0.7,0.7-1.1,1c-0.5,0.2-1.1,0.4-1.8,0.4h-3.7C45.2,117,45.1,116.9,45.1,116.7
				z M46.5,107.8c0,0.1,0.1,0.2,0.2,0.2h1.9c0.6,0,1.1-0.1,1.4-0.4c0.3-0.2,0.6-0.6,0.7-1c0.1-0.4,0.2-0.9,0.2-1.5s-0.1-1.2-0.3-1.6
				s-0.5-0.7-0.9-0.9c-0.4-0.2-1-0.3-1.9-0.3h-1.2c-0.1,0-0.2,0.1-0.2,0.2L46.5,107.8L46.5,107.8z M46.5,115.6
				c0,0.1,0.1,0.2,0.2,0.2h1.9c1,0,1.7-0.3,2.1-0.8c0.3-0.6,0.5-1.4,0.5-2.6c0-0.6-0.1-1.2-0.2-1.7c-0.2-0.5-0.4-0.9-0.8-1.2
				c-0.4-0.3-0.9-0.4-1.5-0.4h-1.9c-0.1,0-0.2,0.1-0.2,0.2L46.5,115.6L46.5,115.6z"/>
			
				<linearGradient id="SVGID_00000051366661234909899230000005365112398581403537_" gradientUnits="userSpaceOnUse" x1="25.7444" y1="-36.806" x2="93.2952" y2="15.8671" gradientTransform="matrix(1 0 0 -1 0 98.7989)">
				<stop  offset="2.406254e-02" style="stop-color:#FFFFFF;stop-opacity:0"/>
				<stop  offset="1" style="stop-color:#FFFFFF"/>
			</linearGradient>
			<path style="fill:url(#SVGID_00000051366661234909899230000005365112398581403537_);" d="M54.1,116.7l3.2-15.3
				c0-0.1,0.1-0.2,0.2-0.2h1.2c0.1,0,0.2,0.1,0.2,0.2l3.3,15.3c0,0.1-0.1,0.3-0.2,0.3h-1c-0.1,0-0.2-0.1-0.2-0.2l-0.7-3.9
				c0-0.1-0.1-0.2-0.2-0.2h-3.4c-0.1,0-0.2,0.1-0.2,0.2l-0.7,3.9c0,0.1-0.1,0.2-0.2,0.2h-1C54.2,117,54.1,116.8,54.1,116.7z
				 M56.8,111.7h2.8c0.1,0,0.2-0.1,0.2-0.3l-1.4-7.2c0-0.2-0.4-0.2-0.4,0l-1.4,7.2C56.5,111.5,56.6,111.7,56.8,111.7z"/>
			
				<linearGradient id="SVGID_00000068678557666911343850000009792778372155654032_" gradientUnits="userSpaceOnUse" x1="27.7485" y1="-39.3762" x2="95.2994" y2="13.2969" gradientTransform="matrix(1 0 0 -1 0 98.7989)">
				<stop  offset="2.406254e-02" style="stop-color:#FFFFFF;stop-opacity:0"/>
				<stop  offset="1" style="stop-color:#FFFFFF"/>
			</linearGradient>
			<path style="fill:url(#SVGID_00000068678557666911343850000009792778372155654032_);" d="M66.2,116.7v-5c0,0,0,0,0-0.1l-3.5-10.2
				c0-0.1,0.1-0.3,0.2-0.3h1c0.1,0,0.2,0.1,0.2,0.2l2.6,8c0.1,0.2,0.4,0.2,0.4,0l2.5-8c0-0.1,0.1-0.2,0.2-0.2h1
				c0.1,0,0.3,0.1,0.2,0.3l-3.4,10.2c0,0,0,0,0,0.1v5c0,0.1-0.1,0.2-0.2,0.2h-1C66.3,117,66.2,116.9,66.2,116.7z"/>
			
				<linearGradient id="SVGID_00000087408309263357139150000014563765231968900259_" gradientUnits="userSpaceOnUse" x1="31.7375" y1="-44.492" x2="99.2884" y2="8.1811" gradientTransform="matrix(1 0 0 -1 0 98.7989)">
				<stop  offset="2.406254e-02" style="stop-color:#FFFFFF;stop-opacity:0"/>
				<stop  offset="1" style="stop-color:#FFFFFF"/>
			</linearGradient>
			<path style="fill:url(#SVGID_00000087408309263357139150000014563765231968900259_);" d="M72.8,116.7v-15.3
				c0-0.1,0.1-0.2,0.2-0.2h5.3c0.1,0,0.2,0.1,0.2,0.2v0.7c0,0.1-0.1,0.2-0.2,0.2h-3.8c-0.1,0-0.2,0.1-0.2,0.2v5.5
				c0,0.1,0.1,0.2,0.2,0.2h3c0.1,0,0.2,0.1,0.2,0.2v0.7c0,0.1-0.1,0.2-0.2,0.2h-3c-0.1,0-0.2,0.1-0.2,0.2v6.1c0,0.1,0.1,0.2,0.2,0.2
				h3.8c0.1,0,0.2,0.1,0.2,0.2v0.7c0,0.1-0.1,0.2-0.2,0.2H73C72.9,117,72.8,116.9,72.8,116.7z"/>
			
				<linearGradient id="SVGID_00000178921458839649965850000016778710861486947723_" gradientUnits="userSpaceOnUse" x1="37.2971" y1="-51.6219" x2="104.848" y2="1.0512" gradientTransform="matrix(1 0 0 -1 0 98.7989)">
				<stop  offset="2.406254e-02" style="stop-color:#FFFFFF;stop-opacity:0"/>
				<stop  offset="1" style="stop-color:#FFFFFF"/>
			</linearGradient>
			<path style="fill:url(#SVGID_00000178921458839649965850000016778710861486947723_);" d="M65.6,136.6c-0.9,0-1.6-0.2-2.1-0.5
				c-0.6-0.4-1-0.9-1.3-1.5s-0.4-1.3-0.5-2.1c0-0.1,0.1-0.2,0.2-0.2l0.9-0.3c0.1,0,0.3,0.1,0.3,0.2c0.1,0.5,0.2,1,0.3,1.5
				c0.2,0.5,0.4,0.9,0.8,1.2s0.9,0.5,1.5,0.5c0.7,0,1.2-0.2,1.6-0.5c0.4-0.4,0.6-0.9,0.6-1.7c0-0.7-0.2-1.3-0.5-1.8s-0.8-1-1.4-1.6
				l-2.8-2.7c-0.5-0.5-0.9-1-1.1-1.5c-0.2-0.5-0.4-1.1-0.4-1.7c0-1.1,0.3-1.9,1-2.5c0.6-0.6,1.5-0.9,2.6-0.9c0.6,0,1.1,0.1,1.5,0.2
				s0.8,0.4,1.1,0.7c0.3,0.3,0.6,0.7,0.7,1.2c0.2,0.5,0.3,1,0.4,1.7c0,0.1-0.1,0.2-0.2,0.2l-0.8,0.2c-0.1,0-0.3-0.1-0.3-0.2
				c-0.1-0.6-0.2-1-0.3-1.4c-0.2-0.5-0.4-0.8-0.8-1.1c-0.3-0.2-0.8-0.4-1.4-0.4s-1.2,0.2-1.6,0.5c-0.4,0.3-0.6,0.9-0.6,1.6
				c0,0.4,0.1,0.8,0.2,1.2s0.5,0.7,0.9,1.1l2.8,2.6c0.6,0.6,1.2,1.2,1.6,1.9c0.5,0.7,0.7,1.5,0.7,2.4c0,0.8-0.2,1.5-0.5,2
				s-0.7,0.9-1.3,1.2C67,136.5,66.3,136.6,65.6,136.6z"/>
			
				<linearGradient id="SVGID_00000163060394121360101520000005829407947447619747_" gradientUnits="userSpaceOnUse" x1="41.4013" y1="-56.8854" x2="108.9522" y2="-4.2123" gradientTransform="matrix(1 0 0 -1 0 98.7989)">
				<stop  offset="2.406254e-02" style="stop-color:#FFFFFF;stop-opacity:0"/>
				<stop  offset="1" style="stop-color:#FFFFFF"/>
			</linearGradient>
			<path style="fill:url(#SVGID_00000163060394121360101520000005829407947447619747_);" d="M70.5,136.2l3.2-15.3
				c0-0.1,0.1-0.2,0.2-0.2h1.2c0.1,0,0.2,0.1,0.2,0.2l3.3,15.3c0,0.1-0.1,0.3-0.2,0.3h-1c-0.1,0-0.2-0.1-0.2-0.2l-0.7-3.9
				c0-0.1-0.1-0.2-0.2-0.2h-3.4c-0.1,0-0.2,0.1-0.2,0.2l-0.7,3.9c0,0.1-0.1,0.2-0.2,0.2h-1C70.6,136.4,70.5,136.3,70.5,136.2z
				 M73.2,131.1H76c0.1,0,0.2-0.1,0.2-0.3l-1.4-7.2c0-0.2-0.4-0.2-0.4,0l-1.4,7.2C72.9,131,73,131.1,73.2,131.1z"/>
			
				<linearGradient id="SVGID_00000034074364779306964340000007161554440274645130_" gradientUnits="userSpaceOnUse" x1="41.9822" y1="-57.6303" x2="109.5331" y2="-4.9572" gradientTransform="matrix(1 0 0 -1 0 98.7989)">
				<stop  offset="2.406254e-02" style="stop-color:#FFFFFF;stop-opacity:0"/>
				<stop  offset="1" style="stop-color:#FFFFFF"/>
			</linearGradient>
			<path style="fill:url(#SVGID_00000034074364779306964340000007161554440274645130_);" d="M48.8,155.7v-15.3
				c0-0.1,0.1-0.2,0.2-0.2h3.3c1,0,1.8,0.2,2.3,0.5c0.6,0.3,1,0.8,1.2,1.4c0.2,0.6,0.4,1.3,0.4,2.2c0,0.6-0.1,1.1-0.2,1.7
				c-0.1,0.5-0.4,1-0.7,1.3s-0.6,0.5-1.1,0.7c-0.1,0-0.2,0.2-0.2,0.3l2.3,7.6c0,0.1-0.1,0.3-0.2,0.3h-1c-0.1,0-0.2-0.1-0.2-0.2
				l-2.2-7.4c0-0.1-0.1-0.2-0.2-0.2h-2.1c-0.1,0-0.2,0.1-0.2,0.2v7.3c0,0.1-0.1,0.2-0.2,0.2h-1C48.9,155.9,48.8,155.8,48.8,155.7z
				 M50.3,146.9c0,0.1,0.1,0.2,0.2,0.2h1.8c0.7,0,1.2-0.1,1.5-0.3c0.4-0.2,0.6-0.5,0.8-1c0.2-0.4,0.2-1,0.2-1.6c0-1-0.2-1.7-0.5-2.2
				s-1-0.7-2-0.7h-1.8c-0.1,0-0.2,0.1-0.2,0.2V146.9z"/>
			
				<linearGradient id="SVGID_00000120534803641349394550000017574054913221135263_" gradientUnits="userSpaceOnUse" x1="45.3557" y1="-61.9566" x2="112.9066" y2="-9.2835" gradientTransform="matrix(1 0 0 -1 0 98.7989)">
				<stop  offset="2.406254e-02" style="stop-color:#FFFFFF;stop-opacity:0"/>
				<stop  offset="1" style="stop-color:#FFFFFF"/>
			</linearGradient>
			<path style="fill:url(#SVGID_00000120534803641349394550000017574054913221135263_);" d="M58.8,155.7v-15.3
				c0-0.1,0.1-0.2,0.2-0.2h5.3c0.1,0,0.2,0.1,0.2,0.2v0.7c0,0.1-0.1,0.2-0.2,0.2h-3.8c-0.1,0-0.2,0.1-0.2,0.2v5.5
				c0,0.1,0.1,0.2,0.2,0.2h3c0.1,0,0.2,0.1,0.2,0.2v0.7c0,0.1-0.1,0.2-0.2,0.2h-3c-0.1,0-0.2,0.1-0.2,0.2v6.1c0,0.1,0.1,0.2,0.2,0.2
				h3.8c0.1,0,0.2,0.1,0.2,0.2v0.7c0,0.1-0.1,0.2-0.2,0.2H59C58.9,155.9,58.8,155.8,58.8,155.7z"/>
			
				<linearGradient id="SVGID_00000100378824839455613190000015745382256438876567_" gradientUnits="userSpaceOnUse" x1="48.8722" y1="-66.4664" x2="116.4231" y2="-13.7933" gradientTransform="matrix(1 0 0 -1 0 98.7989)">
				<stop  offset="2.406254e-02" style="stop-color:#FFFFFF;stop-opacity:0"/>
				<stop  offset="1" style="stop-color:#FFFFFF"/>
			</linearGradient>
			<path style="fill:url(#SVGID_00000100378824839455613190000015745382256438876567_);" d="M68.6,155.7L66,140.4
				c0-0.1,0.1-0.3,0.2-0.3H67c0.1,0,0.2,0.1,0.2,0.2l1.9,11.4c0,0.2,0.4,0.2,0.4,0l2.1-11.2c0-0.1,0.1-0.2,0.2-0.2h0.9
				c0.1,0,0.2,0.1,0.2,0.2l2.2,11.2c0,0.2,0.4,0.2,0.4,0l1.7-11.4c0-0.1,0.1-0.2,0.2-0.2h0.8c0.1,0,0.2,0.1,0.2,0.3L76,155.7
				c0,0.1-0.1,0.2-0.2,0.2H75c-0.1,0-0.2-0.1-0.2-0.2L72.6,144c0-0.2-0.4-0.2-0.4,0L70,155.7c0,0.1-0.1,0.2-0.2,0.2H69
				C68.7,155.9,68.6,155.8,68.6,155.7z"/>
		</g>
	</g>
</g>
<g id="Logo_00000164477160566027293030000017465865338407577269_">
	
		<linearGradient id="Corno_00000076599145704119042400000004959881347943478463_" gradientUnits="userSpaceOnUse" x1="103.2003" y1="0.6617" x2="185.7686" y2="183.1474" gradientTransform="matrix(1 0 0 -1 0 98.7989)">
		<stop  offset="0" style="stop-color:#FFFFFF;stop-opacity:0"/>
		<stop  offset="1" style="stop-color:#FFFFFF"/>
	</linearGradient>
	
		<path id="Corno_00000139259085087739557790000001550512306947772293_" style="fill:url(#Corno_00000076599145704119042400000004959881347943478463_);" d="
		M151.8,59.8C126.5,58,108,78.5,98.9,96.5c-1.1,0.1-2.2,0.1-3.4,0.1c0-0.4,0-0.9-0.1-1.4c0,0,0.8-11.2-4.8-25.7
		c-0.8-2.1-1.7-4.2-2.8-6.4c49.4,5.8,49.9-42.1,45.9-57.3c-0.6-2.4,3-3,4.4-0.9C145.5,16,155,39.4,151.8,59.8z"/>
	
		<linearGradient id="Muso_00000076581506750061485600000007428753464224759977_" gradientUnits="userSpaceOnUse" x1="118.1473" y1="-18.9025" x2="186.8844" y2="-115.3195" gradientTransform="matrix(1 0 0 -1 0 98.7989)">
		<stop  offset="1.170963e-03" style="stop-color:#FFFFFF;stop-opacity:0"/>
		<stop  offset="1" style="stop-color:#FFFFFF"/>
	</linearGradient>
	
		<path id="Muso_00000016781688226503538600000002663658209503552912_" style="fill:url(#Muso_00000076581506750061485600000007428753464224759977_);" d="
		M155.8,122c-3.6-6.9-7.2-13.8-10.8-20.7c-25.6,24.5-49.3,21.2-49.3,21.2h-0.1c-0.2,9.1-0.2,14.9-0.2,19.3c3.2,0.1,7.1,0.2,8.6,0.1
		c2.8-0.2,6.5-4.5,6.5-4.5c4.7,9.1,11.8,15,18.5,14.3c3.9-0.4,8.5-3.1,8.5-5.6c4.8,4.6,11.1,6.6,18.2,4.1
		C167.7,146.2,172.2,123.7,155.8,122z M125.9,139.8c-1.4-2,1.6-4.2,3.1-2.3c2.5,3.1,6.7,6.8,7.7,7.9
		C135.9,144.6,128.3,143.2,125.9,139.8z"/>
	
		<linearGradient id="Pianta_00000158719563969985186110000017824234470605792672_" gradientUnits="userSpaceOnUse" x1="39.5043" y1="-36.5071" x2="125.037" y2="131.4375" gradientTransform="matrix(1 0 0 -1 0 98.7989)">
		<stop  offset="0" style="stop-color:#FFFFFF;stop-opacity:0"/>
		<stop  offset="0.8687" style="stop-color:#FFFFFF"/>
	</linearGradient>
	
		<path id="Pianta_00000132054608656460218670000007562909147797861254_" style="fill:url(#Pianta_00000158719563969985186110000017824234470605792672_);" d="
		M170.3,66.5c-8.1,15.4-16.8,26.6-25.3,34.8c-25.6,24.5-49.3,21.2-49.3,21.2h-0.1c-0.2,9.1-0.2,14.9-0.2,19.3
		c0,5.3-0.1,8.5-0.7,12.7c-0.1,0.7-0.7,1.3-1.5,1.3c-3-0.1-5.9-0.1-8.9-0.2c-0.9,0-1.6-0.8-1.4-1.7c3.9-26.4,3.2-49.8,2.8-57.6
		c0-0.6-0.4-1.1-1-1.3C75.5,91.8,0.3,63.6,6.5,12.4C6.7,11,8,10,9.4,10.3c0.8,0.2,1.5,0.7,1.7,1.5c2.5,7.6,11.6,16,23.1,22
		c2.2,1.1,4.4,2.1,6.7,3c1,0.4,2,0.8,2.9,1.1c9.8,3.4,19.3,4.3,26.7,2.9c0.5-0.1,1,0.1,1.3,0.4c7.4,7.3,12.5,14.9,16,22
		c1.1,2.2,2,4.4,2.8,6.4c5.6,14.5,4.8,25.7,4.8,25.7c0,0.1,0,0.2,0,0.3c0,0.4,0,0.7,0,1.1c0,0.1,0,0.3,0,0.4c0.1,1.5,2.1,2,2.8,0.6
		c0.2-0.4,0.4-0.8,0.6-1.2c0.2-0.4,0.4-0.7,0.6-1.1c9.3-17.7,27.5-37.4,52.3-35.6c5.6,0.4,11.6,1.8,17.8,4.7
		C170.4,64.8,170.7,65.8,170.3,66.5z"/>
	<g id="Testo_00000114763465778430787940000012137535490214977426_">
		<g>
			
				<linearGradient id="SVGID_00000067205377816677671110000004759441617687082122_" gradientUnits="userSpaceOnUse" x1="21.2727" y1="-31.0714" x2="88.8236" y2="21.6017" gradientTransform="matrix(1 0 0 -1 0 98.7989)">
				<stop  offset="2.406254e-02" style="stop-color:#FFFFFF;stop-opacity:0"/>
				<stop  offset="1" style="stop-color:#FFFFFF"/>
			</linearGradient>
			<path style="fill:url(#SVGID_00000067205377816677671110000004759441617687082122_);" d="M45.1,116.7v-15.3
				c0-0.1,0.1-0.2,0.2-0.2h3.2c0.7,0,1.3,0.1,1.8,0.3c0.5,0.2,0.9,0.4,1.2,0.8s0.5,0.8,0.6,1.3s0.2,1,0.2,1.6c0,0.5-0.1,1-0.2,1.5
				c-0.1,0.5-0.3,0.9-0.6,1.2c-0.3,0.3-0.7,0.5-1.2,0.7c0.6,0.2,1.1,0.5,1.4,0.9c0.3,0.4,0.6,0.9,0.7,1.4c0.1,0.5,0.2,1.1,0.2,1.7
				s-0.1,1.2-0.2,1.8c-0.1,0.6-0.3,1-0.6,1.5c-0.3,0.4-0.7,0.7-1.1,1c-0.5,0.2-1.1,0.4-1.8,0.4h-3.7C45.2,117,45.1,116.9,45.1,116.7
				z M46.5,107.8c0,0.1,0.1,0.2,0.2,0.2h1.9c0.6,0,1.1-0.1,1.4-0.4c0.3-0.2,0.6-0.6,0.7-1c0.1-0.4,0.2-0.9,0.2-1.5s-0.1-1.2-0.3-1.6
				s-0.5-0.7-0.9-0.9c-0.4-0.2-1-0.3-1.9-0.3h-1.2c-0.1,0-0.2,0.1-0.2,0.2L46.5,107.8L46.5,107.8z M46.5,115.6
				c0,0.1,0.1,0.2,0.2,0.2h1.9c1,0,1.7-0.3,2.1-0.8c0.3-0.6,0.5-1.4,0.5-2.6c0-0.6-0.1-1.2-0.2-1.7c-0.2-0.5-0.4-0.9-0.8-1.2
				c-0.4-0.3-0.9-0.4-1.5-0.4h-1.9c-0.1,0-0.2,0.1-0.2,0.2L46.5,115.6L46.5,115.6z"/>
			
				<linearGradient id="SVGID_00000055689906490188264630000004874310279806009788_" gradientUnits="userSpaceOnUse" x1="25.7444" y1="-36.806" x2="93.2952" y2="15.8671" gradientTransform="matrix(1 0 0 -1 0 98.7989)">
				<stop  offset="2.406254e-02" style="stop-color:#FFFFFF;stop-opacity:0"/>
				<stop  offset="1" style="stop-color:#FFFFFF"/>
			</linearGradient>
			<path style="fill:url(#SVGID_00000055689906490188264630000004874310279806009788_);" d="M54.1,116.7l3.2-15.3
				c0-0.1,0.1-0.2,0.2-0.2h1.2c0.1,0,0.2,0.1,0.2,0.2l3.3,15.3c0,0.1-0.1,0.3-0.2,0.3h-1c-0.1,0-0.2-0.1-0.2-0.2l-0.7-3.9
				c0-0.1-0.1-0.2-0.2-0.2h-3.4c-0.1,0-0.2,0.1-0.2,0.2l-0.7,3.9c0,0.1-0.1,0.2-0.2,0.2h-1C54.2,117,54.1,116.8,54.1,116.7z
				 M56.8,111.7h2.8c0.1,0,0.2-0.1,0.2-0.3l-1.4-7.2c0-0.2-0.4-0.2-0.4,0l-1.4,7.2C56.5,111.5,56.6,111.7,56.8,111.7z"/>
			
				<linearGradient id="SVGID_00000147198230738815145220000014133074054665895053_" gradientUnits="userSpaceOnUse" x1="27.7485" y1="-39.3762" x2="95.2994" y2="13.2969" gradientTransform="matrix(1 0 0 -1 0 98.7989)">
				<stop  offset="2.406254e-02" style="stop-color:#FFFFFF;stop-opacity:0"/>
				<stop  offset="1" style="stop-color:#FFFFFF"/>
			</linearGradient>
			<path style="fill:url(#SVGID_00000147198230738815145220000014133074054665895053_);" d="M66.2,116.7v-5c0,0,0,0,0-0.1l-3.5-10.2
				c0-0.1,0.1-0.3,0.2-0.3h1c0.1,0,0.2,0.1,0.2,0.2l2.6,8c0.1,0.2,0.4,0.2,0.4,0l2.5-8c0-0.1,0.1-0.2,0.2-0.2h1
				c0.1,0,0.3,0.1,0.2,0.3l-3.4,10.2c0,0,0,0,0,0.1v5c0,0.1-0.1,0.2-0.2,0.2h-1C66.3,117,66.2,116.9,66.2,116.7z"/>
			
				<linearGradient id="SVGID_00000119800315041588377940000007085243251841568140_" gradientUnits="userSpaceOnUse" x1="31.7375" y1="-44.492" x2="99.2884" y2="8.1811" gradientTransform="matrix(1 0 0 -1 0 98.7989)">
				<stop  offset="2.406254e-02" style="stop-color:#FFFFFF;stop-opacity:0"/>
				<stop  offset="1" style="stop-color:#FFFFFF"/>
			</linearGradient>
			<path style="fill:url(#SVGID_00000119800315041588377940000007085243251841568140_);" d="M72.8,116.7v-15.3
				c0-0.1,0.1-0.2,0.2-0.2h5.3c0.1,0,0.2,0.1,0.2,0.2v0.7c0,0.1-0.1,0.2-0.2,0.2h-3.8c-0.1,0-0.2,0.1-0.2,0.2v5.5
				c0,0.1,0.1,0.2,0.2,0.2h3c0.1,0,0.2,0.1,0.2,0.2v0.7c0,0.1-0.1,0.2-0.2,0.2h-3c-0.1,0-0.2,0.1-0.2,0.2v6.1c0,0.1,0.1,0.2,0.2,0.2
				h3.8c0.1,0,0.2,0.1,0.2,0.2v0.7c0,0.1-0.1,0.2-0.2,0.2H73C72.9,117,72.8,116.9,72.8,116.7z"/>
			
				<linearGradient id="SVGID_00000083079644239648014990000014243182765601931678_" gradientUnits="userSpaceOnUse" x1="37.2971" y1="-51.6219" x2="104.848" y2="1.0512" gradientTransform="matrix(1 0 0 -1 0 98.7989)">
				<stop  offset="2.406254e-02" style="stop-color:#FFFFFF;stop-opacity:0"/>
				<stop  offset="1" style="stop-color:#FFFFFF"/>
			</linearGradient>
			<path style="fill:url(#SVGID_00000083079644239648014990000014243182765601931678_);" d="M65.6,136.6c-0.9,0-1.6-0.2-2.1-0.5
				c-0.6-0.4-1-0.9-1.3-1.5s-0.4-1.3-0.5-2.1c0-0.1,0.1-0.2,0.2-0.2l0.9-0.3c0.1,0,0.3,0.1,0.3,0.2c0.1,0.5,0.2,1,0.3,1.5
				c0.2,0.5,0.4,0.9,0.8,1.2s0.9,0.5,1.5,0.5c0.7,0,1.2-0.2,1.6-0.5c0.4-0.4,0.6-0.9,0.6-1.7c0-0.7-0.2-1.3-0.5-1.8s-0.8-1-1.4-1.6
				l-2.8-2.7c-0.5-0.5-0.9-1-1.1-1.5c-0.2-0.5-0.4-1.1-0.4-1.7c0-1.1,0.3-1.9,1-2.5c0.6-0.6,1.5-0.9,2.6-0.9c0.6,0,1.1,0.1,1.5,0.2
				s0.8,0.4,1.1,0.7c0.3,0.3,0.6,0.7,0.7,1.2c0.2,0.5,0.3,1,0.4,1.7c0,0.1-0.1,0.2-0.2,0.2l-0.8,0.2c-0.1,0-0.3-0.1-0.3-0.2
				c-0.1-0.6-0.2-1-0.3-1.4c-0.2-0.5-0.4-0.8-0.8-1.1c-0.3-0.2-0.8-0.4-1.4-0.4s-1.2,0.2-1.6,0.5c-0.4,0.3-0.6,0.9-0.6,1.6
				c0,0.4,0.1,0.8,0.2,1.2s0.5,0.7,0.9,1.1l2.8,2.6c0.6,0.6,1.2,1.2,1.6,1.9c0.5,0.7,0.7,1.5,0.7,2.4c0,0.8-0.2,1.5-0.5,2
				s-0.7,0.9-1.3,1.2C67,136.5,66.3,136.6,65.6,136.6z"/>
			
				<linearGradient id="SVGID_00000134222160948554909520000015516574153453678520_" gradientUnits="userSpaceOnUse" x1="41.4013" y1="-56.8854" x2="108.9522" y2="-4.2123" gradientTransform="matrix(1 0 0 -1 0 98.7989)">
				<stop  offset="2.406254e-02" style="stop-color:#FFFFFF;stop-opacity:0"/>
				<stop  offset="1" style="stop-color:#FFFFFF"/>
			</linearGradient>
			<path style="fill:url(#SVGID_00000134222160948554909520000015516574153453678520_);" d="M70.5,136.2l3.2-15.3
				c0-0.1,0.1-0.2,0.2-0.2h1.2c0.1,0,0.2,0.1,0.2,0.2l3.3,15.3c0,0.1-0.1,0.3-0.2,0.3h-1c-0.1,0-0.2-0.1-0.2-0.2l-0.7-3.9
				c0-0.1-0.1-0.2-0.2-0.2h-3.4c-0.1,0-0.2,0.1-0.2,0.2l-0.7,3.9c0,0.1-0.1,0.2-0.2,0.2h-1C70.6,136.4,70.5,136.3,70.5,136.2z
				 M73.2,131.1H76c0.1,0,0.2-0.1,0.2-0.3l-1.4-7.2c0-0.2-0.4-0.2-0.4,0l-1.4,7.2C72.9,131,73,131.1,73.2,131.1z"/>
			
				<linearGradient id="SVGID_00000150792914052403196710000014588656290166866317_" gradientUnits="userSpaceOnUse" x1="41.9822" y1="-57.6303" x2="109.5331" y2="-4.9572" gradientTransform="matrix(1 0 0 -1 0 98.7989)">
				<stop  offset="2.406254e-02" style="stop-color:#FFFFFF;stop-opacity:0"/>
				<stop  offset="1" style="stop-color:#FFFFFF"/>
			</linearGradient>
			<path style="fill:url(#SVGID_00000150792914052403196710000014588656290166866317_);" d="M48.8,155.7v-15.3
				c0-0.1,0.1-0.2,0.2-0.2h3.3c1,0,1.8,0.2,2.3,0.5c0.6,0.3,1,0.8,1.2,1.4c0.2,0.6,0.4,1.3,0.4,2.2c0,0.6-0.1,1.1-0.2,1.7
				c-0.1,0.5-0.4,1-0.7,1.3s-0.6,0.5-1.1,0.7c-0.1,0-0.2,0.2-0.2,0.3l2.3,7.6c0,0.1-0.1,0.3-0.2,0.3h-1c-0.1,0-0.2-0.1-0.2-0.2
				l-2.2-7.4c0-0.1-0.1-0.2-0.2-0.2h-2.1c-0.1,0-0.2,0.1-0.2,0.2v7.3c0,0.1-0.1,0.2-0.2,0.2h-1C48.9,155.9,48.8,155.8,48.8,155.7z
				 M50.3,146.9c0,0.1,0.1,0.2,0.2,0.2h1.8c0.7,0,1.2-0.1,1.5-0.3c0.4-0.2,0.6-0.5,0.8-1c0.2-0.4,0.2-1,0.2-1.6c0-1-0.2-1.7-0.5-2.2
				s-1-0.7-2-0.7h-1.8c-0.1,0-0.2,0.1-0.2,0.2V146.9z"/>
			
				<linearGradient id="SVGID_00000041278554502904373990000016056354955093423018_" gradientUnits="userSpaceOnUse" x1="45.3557" y1="-61.9566" x2="112.9066" y2="-9.2835" gradientTransform="matrix(1 0 0 -1 0 98.7989)">
				<stop  offset="2.406254e-02" style="stop-color:#FFFFFF;stop-opacity:0"/>
				<stop  offset="1" style="stop-color:#FFFFFF"/>
			</linearGradient>
			<path style="fill:url(#SVGID_00000041278554502904373990000016056354955093423018_);" d="M58.8,155.7v-15.3
				c0-0.1,0.1-0.2,0.2-0.2h5.3c0.1,0,0.2,0.1,0.2,0.2v0.7c0,0.1-0.1,0.2-0.2,0.2h-3.8c-0.1,0-0.2,0.1-0.2,0.2v5.5
				c0,0.1,0.1,0.2,0.2,0.2h3c0.1,0,0.2,0.1,0.2,0.2v0.7c0,0.1-0.1,0.2-0.2,0.2h-3c-0.1,0-0.2,0.1-0.2,0.2v6.1c0,0.1,0.1,0.2,0.2,0.2
				h3.8c0.1,0,0.2,0.1,0.2,0.2v0.7c0,0.1-0.1,0.2-0.2,0.2H59C58.9,155.9,58.8,155.8,58.8,155.7z"/>
			
				<linearGradient id="SVGID_00000139979241690788570140000002696971239364836770_" gradientUnits="userSpaceOnUse" x1="48.8722" y1="-66.4664" x2="116.4231" y2="-13.7933" gradientTransform="matrix(1 0 0 -1 0 98.7989)">
				<stop  offset="2.406254e-02" style="stop-color:#FFFFFF;stop-opacity:0"/>
				<stop  offset="1" style="stop-color:#FFFFFF"/>
			</linearGradient>
			<path style="fill:url(#SVGID_00000139979241690788570140000002696971239364836770_);" d="M68.6,155.7L66,140.4
				c0-0.1,0.1-0.3,0.2-0.3H67c0.1,0,0.2,0.1,0.2,0.2l1.9,11.4c0,0.2,0.4,0.2,0.4,0l2.1-11.2c0-0.1,0.1-0.2,0.2-0.2h0.9
				c0.1,0,0.2,0.1,0.2,0.2l2.2,11.2c0,0.2,0.4,0.2,0.4,0l1.7-11.4c0-0.1,0.1-0.2,0.2-0.2h0.8c0.1,0,0.2,0.1,0.2,0.3L76,155.7
				c0,0.1-0.1,0.2-0.2,0.2H75c-0.1,0-0.2-0.1-0.2-0.2L72.6,144c0-0.2-0.4-0.2-0.4,0L70,155.7c0,0.1-0.1,0.2-0.2,0.2H69
				C68.7,155.9,68.6,155.8,68.6,155.7z"/>
		</g>
	</g>
</g>
</svg>
