<?xml version="1.0" encoding="utf-8"?>
<!-- Generator: Adobe Illustrator 26.0.0, SVG Export Plug-In . SVG Version: 6.00 Build 0)  -->
<svg version="1.1" id="Livello_1" xmlns="http://www.w3.org/2000/svg" xmlns:xlink="http://www.w3.org/1999/xlink" x="0px" y="0px"
	 viewBox="0 0 174.3 159.8" style="enable-background:new 0 0 174.3 159.8;" xml:space="preserve">
<style type="text/css">
	.st0{fill:url(#Corno_00000104703518475363575880000011203403753269948082_);}
	.st1{fill:url(#Muso_00000140732856612495165860000016723967757825731246_);}
	.st2{fill:url(#Pianta_00000083780684240274596080000004581551122774756756_);}
	.st3{fill:url(#SVGID_1_);}
	.st4{fill:url(#SVGID_00000060000952987954957160000000844405155908314018_);}
	.st5{fill:url(#SVGID_00000002384301207420261570000008446106406682089375_);}
	.st6{fill:url(#SVGID_00000073691091524931758280000001834753273483984308_);}
	.st7{fill:url(#SVGID_00000121986199187736351920000011466154598497111182_);}
	.st8{fill:url(#SVGID_00000116950400338434039910000011271253154171590819_);}
	.st9{fill:url(#SVGID_00000054945201428864035050000011724660677025389971_);}
	.st10{fill:url(#SVGID_00000072961198281348360180000011839362590674086277_);}
	.st11{fill:url(#SVGID_00000128466049588316255470000005667362019971606421_);}
</style>
<g id="Logo">
	
		<linearGradient id="Corno_00000096770788718920786840000013704666387341715640_" gradientUnits="userSpaceOnUse" x1="103.2003" y1="61.7526" x2="185.7686" y2="244.2383" gradientTransform="matrix(1 0 0 -1 0 159.8898)">
		<stop  offset="0" style="stop-color:#FFFFFF;stop-opacity:0"/>
		<stop  offset="1" style="stop-color:#FFFFFF"/>
	</linearGradient>
	<path id="Corno" style="fill:url(#Corno_00000096770788718920786840000013704666387341715640_);" d="M151.8,59.8
		C126.5,58,108,78.5,98.9,96.5c-1.1,0.1-2.2,0.1-3.4,0.1c0-0.4,0-0.9-0.1-1.4c0,0,0.8-11.2-4.8-25.7c-0.8-2.1-1.7-4.2-2.8-6.4
		c49.4,5.8,49.9-42.1,45.9-57.3c-0.6-2.4,3-3,4.4-0.9C145.5,16,155,39.4,151.8,59.8z"/>
	
		<linearGradient id="Muso_00000085952360986417068500000004654064444274099903_" gradientUnits="userSpaceOnUse" x1="118.1473" y1="42.1884" x2="186.8844" y2="-54.2286" gradientTransform="matrix(1 0 0 -1 0 159.8898)">
		<stop  offset="1.170963e-03" style="stop-color:#FFFFFF;stop-opacity:0"/>
		<stop  offset="1" style="stop-color:#FFFFFF"/>
	</linearGradient>
	<path id="Muso" style="fill:url(#Muso_00000085952360986417068500000004654064444274099903_);" d="M155.8,122
		c-3.6-6.9-7.2-13.8-10.8-20.7c-25.6,24.5-49.3,21.2-49.3,21.2h-0.1c-0.2,9.1-0.2,14.9-0.2,19.3c3.2,0.1,7.1,0.2,8.6,0.1
		c2.8-0.2,6.5-4.5,6.5-4.5c4.7,9.1,11.8,15,18.5,14.3c3.9-0.4,8.5-3.1,8.5-5.6c4.8,4.6,11.1,6.6,18.2,4.1
		C167.7,146.2,172.2,123.7,155.8,122z M125.9,139.8c-1.4-2,1.6-4.2,3.1-2.3c2.5,3.1,6.7,6.8,7.7,7.9
		C135.9,144.6,128.3,143.2,125.9,139.8z"/>
	
		<linearGradient id="Pianta_00000114032305010916569040000010818311964084320152_" gradientUnits="userSpaceOnUse" x1="39.5043" y1="24.5838" x2="125.037" y2="192.5284" gradientTransform="matrix(1 0 0 -1 0 159.8898)">
		<stop  offset="0" style="stop-color:#FFFFFF;stop-opacity:0"/>
		<stop  offset="0.8687" style="stop-color:#FFFFFF"/>
	</linearGradient>
	<path id="Pianta" style="fill:url(#Pianta_00000114032305010916569040000010818311964084320152_);" d="M170.3,66.5
		c-8.1,15.4-16.8,26.6-25.3,34.8c-25.6,24.5-49.3,21.2-49.3,21.2h-0.1c-0.2,9.1-0.2,14.9-0.2,19.3c0,5.3-0.1,8.5-0.7,12.7
		c-0.1,0.7-0.7,1.3-1.5,1.3c-3-0.1-5.9-0.1-8.9-0.2c-0.9,0-1.6-0.8-1.4-1.7c3.9-26.4,3.2-49.8,2.8-57.6c0-0.6-0.4-1.1-1-1.3
		C75.5,91.8,0.3,63.6,6.5,12.4C6.7,11,8,10,9.4,10.3c0.8,0.2,1.5,0.7,1.7,1.5c2.5,7.6,11.6,16,23.1,22c2.2,1.1,4.4,2.1,6.7,3
		c1,0.4,2,0.8,2.9,1.1c9.8,3.4,19.3,4.3,26.7,2.9c0.5-0.1,1,0.1,1.3,0.4c7.4,7.3,12.5,14.9,16,22c1.1,2.2,2,4.4,2.8,6.4
		c5.6,14.5,4.8,25.7,4.8,25.7c0,0.1,0,0.2,0,0.3c0,0.4,0,0.7,0,1.1c0,0.1,0,0.3,0,0.4c0.1,1.5,2.1,2,2.8,0.6
		c0.2-0.4,0.4-0.8,0.6-1.2c0.2-0.4,0.4-0.7,0.6-1.1c9.3-17.7,27.5-37.4,52.3-35.6c5.6,0.4,11.6,1.8,17.8,4.7
		C170.4,64.8,170.7,65.8,170.3,66.5z"/>
	<g id="Testo">
		<g>
			
				<linearGradient id="SVGID_1_" gradientUnits="userSpaceOnUse" x1="21.2727" y1="30.0195" x2="88.8236" y2="82.6926" gradientTransform="matrix(1 0 0 -1 0 159.8898)">
				<stop  offset="2.406254e-02" style="stop-color:#FFFFFF;stop-opacity:0"/>
				<stop  offset="1" style="stop-color:#FFFFFF"/>
			</linearGradient>
			<path class="st3" d="M45.1,116.7v-15.3c0-0.1,0.1-0.2,0.2-0.2h3.2c0.7,0,1.3,0.1,1.8,0.3c0.5,0.2,0.9,0.4,1.2,0.8
				s0.5,0.8,0.6,1.3s0.2,1,0.2,1.6c0,0.5-0.1,1-0.2,1.5c-0.1,0.5-0.3,0.9-0.6,1.2c-0.3,0.3-0.7,0.5-1.2,0.7c0.6,0.2,1.1,0.5,1.4,0.9
				c0.3,0.4,0.6,0.9,0.7,1.4c0.1,0.5,0.2,1.1,0.2,1.7s-0.1,1.2-0.2,1.8c-0.1,0.6-0.3,1-0.6,1.5c-0.3,0.4-0.7,0.7-1.1,1
				c-0.5,0.2-1.1,0.4-1.8,0.4h-3.7C45.2,117,45.1,116.9,45.1,116.7z M46.5,107.8c0,0.1,0.1,0.2,0.2,0.2h1.9c0.6,0,1.1-0.1,1.4-0.4
				c0.3-0.2,0.6-0.6,0.7-1c0.1-0.4,0.2-0.9,0.2-1.5s-0.1-1.2-0.3-1.6s-0.5-0.7-0.9-0.9c-0.4-0.2-1-0.3-1.9-0.3h-1.2
				c-0.1,0-0.2,0.1-0.2,0.2L46.5,107.8L46.5,107.8z M46.5,115.6c0,0.1,0.1,0.2,0.2,0.2h1.9c1,0,1.7-0.3,2.1-0.8
				c0.3-0.6,0.5-1.4,0.5-2.6c0-0.6-0.1-1.2-0.2-1.7c-0.2-0.5-0.4-0.9-0.8-1.2c-0.4-0.3-0.9-0.4-1.5-0.4h-1.9c-0.1,0-0.2,0.1-0.2,0.2
				L46.5,115.6L46.5,115.6z"/>
			
				<linearGradient id="SVGID_00000012467601469523661980000014476577929683199928_" gradientUnits="userSpaceOnUse" x1="25.7444" y1="24.2849" x2="93.2952" y2="76.958" gradientTransform="matrix(1 0 0 -1 0 159.8898)">
				<stop  offset="2.406254e-02" style="stop-color:#FFFFFF;stop-opacity:0"/>
				<stop  offset="1" style="stop-color:#FFFFFF"/>
			</linearGradient>
			<path style="fill:url(#SVGID_00000012467601469523661980000014476577929683199928_);" d="M54.1,116.7l3.2-15.3
				c0-0.1,0.1-0.2,0.2-0.2h1.2c0.1,0,0.2,0.1,0.2,0.2l3.3,15.3c0,0.1-0.1,0.3-0.2,0.3h-1c-0.1,0-0.2-0.1-0.2-0.2l-0.7-3.9
				c0-0.1-0.1-0.2-0.2-0.2h-3.4c-0.1,0-0.2,0.1-0.2,0.2l-0.7,3.9c0,0.1-0.1,0.2-0.2,0.2h-1C54.2,117,54.1,116.8,54.1,116.7z
				 M56.8,111.7h2.8c0.1,0,0.2-0.1,0.2-0.3l-1.4-7.2c0-0.2-0.4-0.2-0.4,0l-1.4,7.2C56.5,111.5,56.6,111.7,56.8,111.7z"/>
			
				<linearGradient id="SVGID_00000161609521889540276780000011092181127242499993_" gradientUnits="userSpaceOnUse" x1="27.7485" y1="21.7147" x2="95.2994" y2="74.3878" gradientTransform="matrix(1 0 0 -1 0 159.8898)">
				<stop  offset="2.406254e-02" style="stop-color:#FFFFFF;stop-opacity:0"/>
				<stop  offset="1" style="stop-color:#FFFFFF"/>
			</linearGradient>
			<path style="fill:url(#SVGID_00000161609521889540276780000011092181127242499993_);" d="M66.2,116.7v-5c0,0,0,0,0-0.1l-3.5-10.2
				c0-0.1,0.1-0.3,0.2-0.3h1c0.1,0,0.2,0.1,0.2,0.2l2.6,8c0.1,0.2,0.4,0.2,0.4,0l2.5-8c0-0.1,0.1-0.2,0.2-0.2h1
				c0.1,0,0.3,0.1,0.2,0.3l-3.4,10.2c0,0,0,0,0,0.1v5c0,0.1-0.1,0.2-0.2,0.2h-1C66.3,117,66.2,116.9,66.2,116.7z"/>
			
				<linearGradient id="SVGID_00000015333570182348735180000011619664590987235500_" gradientUnits="userSpaceOnUse" x1="31.7375" y1="16.5989" x2="99.2884" y2="69.272" gradientTransform="matrix(1 0 0 -1 0 159.8898)">
				<stop  offset="2.406254e-02" style="stop-color:#FFFFFF;stop-opacity:0"/>
				<stop  offset="1" style="stop-color:#FFFFFF"/>
			</linearGradient>
			<path style="fill:url(#SVGID_00000015333570182348735180000011619664590987235500_);" d="M72.8,116.7v-15.3
				c0-0.1,0.1-0.2,0.2-0.2h5.3c0.1,0,0.2,0.1,0.2,0.2v0.7c0,0.1-0.1,0.2-0.2,0.2h-3.8c-0.1,0-0.2,0.1-0.2,0.2v5.5
				c0,0.1,0.1,0.2,0.2,0.2h3c0.1,0,0.2,0.1,0.2,0.2v0.7c0,0.1-0.1,0.2-0.2,0.2h-3c-0.1,0-0.2,0.1-0.2,0.2v6.1c0,0.1,0.1,0.2,0.2,0.2
				h3.8c0.1,0,0.2,0.1,0.2,0.2v0.7c0,0.1-0.1,0.2-0.2,0.2H73C72.9,117,72.8,116.9,72.8,116.7z"/>
			
				<linearGradient id="SVGID_00000098936320918693339280000002510255626429366160_" gradientUnits="userSpaceOnUse" x1="37.2971" y1="9.469" x2="104.848" y2="62.1421" gradientTransform="matrix(1 0 0 -1 0 159.8898)">
				<stop  offset="2.406254e-02" style="stop-color:#FFFFFF;stop-opacity:0"/>
				<stop  offset="1" style="stop-color:#FFFFFF"/>
			</linearGradient>
			<path style="fill:url(#SVGID_00000098936320918693339280000002510255626429366160_);" d="M65.6,136.6c-0.9,0-1.6-0.2-2.1-0.5
				c-0.6-0.4-1-0.9-1.3-1.5s-0.4-1.3-0.5-2.1c0-0.1,0.1-0.2,0.2-0.2l0.9-0.3c0.1,0,0.3,0.1,0.3,0.2c0.1,0.5,0.2,1,0.3,1.5
				c0.2,0.5,0.4,0.9,0.8,1.2s0.9,0.5,1.5,0.5c0.7,0,1.2-0.2,1.6-0.5c0.4-0.4,0.6-0.9,0.6-1.7c0-0.7-0.2-1.3-0.5-1.8s-0.8-1-1.4-1.6
				l-2.8-2.7c-0.5-0.5-0.9-1-1.1-1.5c-0.2-0.5-0.4-1.1-0.4-1.7c0-1.1,0.3-1.9,1-2.5c0.6-0.6,1.5-0.9,2.6-0.9c0.6,0,1.1,0.1,1.5,0.2
				s0.8,0.4,1.1,0.7c0.3,0.3,0.6,0.7,0.7,1.2c0.2,0.5,0.3,1,0.4,1.7c0,0.1-0.1,0.2-0.2,0.2l-0.8,0.2c-0.1,0-0.3-0.1-0.3-0.2
				c-0.1-0.6-0.2-1-0.3-1.4c-0.2-0.5-0.4-0.8-0.8-1.1c-0.3-0.2-0.8-0.4-1.4-0.4s-1.2,0.2-1.6,0.5c-0.4,0.3-0.6,0.9-0.6,1.6
				c0,0.4,0.1,0.8,0.2,1.2s0.5,0.7,0.9,1.1l2.8,2.6c0.6,0.6,1.2,1.2,1.6,1.9c0.5,0.7,0.7,1.5,0.7,2.4c0,0.8-0.2,1.5-0.5,2
				s-0.7,0.9-1.3,1.2C67,136.5,66.3,136.6,65.6,136.6z"/>
			
				<linearGradient id="SVGID_00000050652667395283376320000005405397082128675459_" gradientUnits="userSpaceOnUse" x1="41.4013" y1="4.2055" x2="108.9522" y2="56.8786" gradientTransform="matrix(1 0 0 -1 0 159.8898)">
				<stop  offset="2.406254e-02" style="stop-color:#FFFFFF;stop-opacity:0"/>
				<stop  offset="1" style="stop-color:#FFFFFF"/>
			</linearGradient>
			<path style="fill:url(#SVGID_00000050652667395283376320000005405397082128675459_);" d="M70.5,136.2l3.2-15.3
				c0-0.1,0.1-0.2,0.2-0.2h1.2c0.1,0,0.2,0.1,0.2,0.2l3.3,15.3c0,0.1-0.1,0.3-0.2,0.3h-1c-0.1,0-0.2-0.1-0.2-0.2l-0.7-3.9
				c0-0.1-0.1-0.2-0.2-0.2h-3.4c-0.1,0-0.2,0.1-0.2,0.2l-0.7,3.9c0,0.1-0.1,0.2-0.2,0.2h-1C70.6,136.4,70.5,136.3,70.5,136.2z
				 M73.2,131.1H76c0.1,0,0.2-0.1,0.2-0.3l-1.4-7.2c0-0.2-0.4-0.2-0.4,0l-1.4,7.2C72.9,131,73,131.1,73.2,131.1z"/>
			
				<linearGradient id="SVGID_00000134965945966242709150000014178295343572504729_" gradientUnits="userSpaceOnUse" x1="41.9822" y1="3.4606" x2="109.5331" y2="56.1337" gradientTransform="matrix(1 0 0 -1 0 159.8898)">
				<stop  offset="2.406254e-02" style="stop-color:#FFFFFF;stop-opacity:0"/>
				<stop  offset="1" style="stop-color:#FFFFFF"/>
			</linearGradient>
			<path style="fill:url(#SVGID_00000134965945966242709150000014178295343572504729_);" d="M48.8,155.7v-15.3
				c0-0.1,0.1-0.2,0.2-0.2h3.3c1,0,1.8,0.2,2.3,0.5c0.6,0.3,1,0.8,1.2,1.4c0.2,0.6,0.4,1.3,0.4,2.2c0,0.6-0.1,1.1-0.2,1.7
				c-0.1,0.5-0.4,1-0.7,1.3s-0.6,0.5-1.1,0.7c-0.1,0-0.2,0.2-0.2,0.3l2.3,7.6c0,0.1-0.1,0.3-0.2,0.3h-1c-0.1,0-0.2-0.1-0.2-0.2
				l-2.2-7.4c0-0.1-0.1-0.2-0.2-0.2h-2.1c-0.1,0-0.2,0.1-0.2,0.2v7.3c0,0.1-0.1,0.2-0.2,0.2h-1C48.9,155.9,48.8,155.8,48.8,155.7z
				 M50.3,146.9c0,0.1,0.1,0.2,0.2,0.2h1.8c0.7,0,1.2-0.1,1.5-0.3c0.4-0.2,0.6-0.5,0.8-1c0.2-0.4,0.2-1,0.2-1.6c0-1-0.2-1.7-0.5-2.2
				s-1-0.7-2-0.7h-1.8c-0.1,0-0.2,0.1-0.2,0.2V146.9z"/>
			
				<linearGradient id="SVGID_00000072960625033002580710000012856680251194837651_" gradientUnits="userSpaceOnUse" x1="45.3557" y1="-0.8657" x2="112.9066" y2="51.8074" gradientTransform="matrix(1 0 0 -1 0 159.8898)">
				<stop  offset="2.406254e-02" style="stop-color:#FFFFFF;stop-opacity:0"/>
				<stop  offset="1" style="stop-color:#FFFFFF"/>
			</linearGradient>
			<path style="fill:url(#SVGID_00000072960625033002580710000012856680251194837651_);" d="M58.8,155.7v-15.3
				c0-0.1,0.1-0.2,0.2-0.2h5.3c0.1,0,0.2,0.1,0.2,0.2v0.7c0,0.1-0.1,0.2-0.2,0.2h-3.8c-0.1,0-0.2,0.1-0.2,0.2v5.5
				c0,0.1,0.1,0.2,0.2,0.2h3c0.1,0,0.2,0.1,0.2,0.2v0.7c0,0.1-0.1,0.2-0.2,0.2h-3c-0.1,0-0.2,0.1-0.2,0.2v6.1c0,0.1,0.1,0.2,0.2,0.2
				h3.8c0.1,0,0.2,0.1,0.2,0.2v0.7c0,0.1-0.1,0.2-0.2,0.2H59C58.9,155.9,58.8,155.8,58.8,155.7z"/>
			
				<linearGradient id="SVGID_00000062150768811742016970000008092383501189503651_" gradientUnits="userSpaceOnUse" x1="48.8722" y1="-5.3755" x2="116.4231" y2="47.2976" gradientTransform="matrix(1 0 0 -1 0 159.8898)">
				<stop  offset="2.406254e-02" style="stop-color:#FFFFFF;stop-opacity:0"/>
				<stop  offset="1" style="stop-color:#FFFFFF"/>
			</linearGradient>
			<path style="fill:url(#SVGID_00000062150768811742016970000008092383501189503651_);" d="M68.6,155.7L66,140.4
				c0-0.1,0.1-0.3,0.2-0.3H67c0.1,0,0.2,0.1,0.2,0.2l1.9,11.4c0,0.2,0.4,0.2,0.4,0l2.1-11.2c0-0.1,0.1-0.2,0.2-0.2h0.9
				c0.1,0,0.2,0.1,0.2,0.2l2.2,11.2c0,0.2,0.4,0.2,0.4,0l1.7-11.4c0-0.1,0.1-0.2,0.2-0.2h0.8c0.1,0,0.2,0.1,0.2,0.3L76,155.7
				c0,0.1-0.1,0.2-0.2,0.2H75c-0.1,0-0.2-0.1-0.2-0.2L72.6,144c0-0.2-0.4-0.2-0.4,0L70,155.7c0,0.1-0.1,0.2-0.2,0.2H69
				C68.7,155.9,68.6,155.8,68.6,155.7z"/>
		</g>
	</g>
</g>
</svg>
