<?xml version="1.0" encoding="utf-8"?>
<!-- Generator: Adobe Illustrator 26.0.0, SVG Export Plug-In . SVG Version: 6.00 Build 0)  -->
<svg version="1.1" id="Livello_1" xmlns="http://www.w3.org/2000/svg" xmlns:xlink="http://www.w3.org/1999/xlink" x="0px" y="0px"
	 viewBox="0 0 150.3 219.6" style="enable-background:new 0 0 150.3 219.6;" xml:space="preserve">
<style type="text/css">
	.st0{fill-rule:evenodd;clip-rule:evenodd;fill:#FFFFFF;}
</style>
<path class="st0" d="M106.9,10.9l-1.8-1.4l-4.2-0.7l-2.8-1c-2.1-0.6-4.3-1.7-6.3-2.2c-1.9-0.5-3.2-0.3-5.1-0.7l-1.6-0.7l-1.9-0.1
	l-2-0.6h-2c-5.9-1.2-12-1.7-18-1.5c-0.3,0.3-4.6,1.2-5.3,1.5l-3.8,2L48,6.4c-2.5,1.1-4.8,2.6-7,4.2v0.2l0.1,0.1
	c1.3-0.3,3.8-0.2,5.1-0.6L52,7.5l3.5-1.2l3.2-0.2l2-0.9l4.4,0.3c1.9-0.2,3.7-0.7,5.5-1.4c0.6,0.5,1.2,0.8,1.9,1.1
	c2.1,0.5,3.8-0.7,6.1-0.3l4,1.4c2,0.5,4.6,0.2,6.9,0.1c0.9,1,2.1,1.6,3.5,1.9l1.4-0.2c0.7,0.2,1.1,1,2,1.1l4,0.4l4.4,2.2
	c1,0.5,3,0.8,4.1,0.1C109.3,11.6,107.4,11.1,106.9,10.9z"/>
<path class="st0" d="M102.6,13.2c-1.2-0.3-2.7,0.2-3.9-0.2l-1.3-0.9c-1.5-0.6-3.3-0.6-5-1.1c-0.9-0.2-1.6-0.9-2.3-1.1
	s-1.2,0.4-1.9,0.2c-1.8-0.4-3.8-1.2-5.8-1.7c-2.3-0.5-4.8-0.5-7.2-0.9S70,8.3,67.8,7.8c-1.1-0.3-2.2-0.5-3.4-0.5l-6.2,1.1h-2.4
	L53,9.9l-6.2,2.2c-2.5,0.8-4.9,1.7-7.3,2.4c-1.7,0.5-3.4,0.6-4.8,1.2c-1.5,0.6-1.9,1.8-3,2.7c-1.2,0.8-2.6,1.3-4,1.6
	c-0.2,0.6-0.4,1.3-0.6,2l0.1,0.1l9.4-3.8c1.3-0.6,3.4-2.1,4.5-2.4l1.6,0.1l1.8-1.1l2.2,0.1c1.3-0.3,2.2-1.2,3.3-1.7
	c0.6-0.3,1.5-0.1,2.2-0.3c0.5-0.4,0.9-1,1.2-1.6l0.4-0.2c2.3,1.7,2.6-0.1,4.8-0.6l2.5,0.2l2.4-0.7c3-0.6,3,0.8,4.8-1.7
	c0.8,0.2,0.8,1.1,1.4,1.4l3.8-0.1c2.3-0.3,4.6-0.2,6.8,0.2l2.3,0.3c0.8,0.2,1.6,0.9,2.4,1.1s2.6-0.1,3.4,0.1c0.5,0.2,0.7,0.8,1.3,1
	l3.7,0.3l1.9,1.2c0.8,0.3,1.6-0.2,2.3-0.1c1.9,0.3,1.4,1.3,3.9,0.9c1.8,1.2,3.2,2.7,5.3,3.5l3.9,0.6c1.1,0.5,1.5,1.7,3,1.7l0.2-0.2
	C113.4,18,105.4,14,102.6,13.2z"/>
<path class="st0" d="M116.6,24.8l-1.6-0.6c-2.3-1.3-4.4-3.1-7.2-3.9c-0.9-0.3-2,0.1-3-0.2l-2.2-1.7l-4-1l-3.2-1.9L89,14.9
	c-5.7-1.3-11.3-2.5-18.3-2.4c-3.3,1.3-7.6-0.4-11.6,0.4c-2.4,0.5-4.8,1.3-7.1,2.3l-2.1,1c-0.6,0.1-1.2-0.3-1.9-0.1l-5,2.2l-5.6,1.4
	c-1.9,0.8-3.7,1.7-5.5,2.7c-2.5,1.3-6.2,2.4-7.7,4.7v0.3c3,0.9,4.5-1.8,6.7-2.4l3.5-0.4l2.5-1.7l4.2-1.1l7-3.1l4.9-1.5l2-0.4
	l1.6-1.4c0.5-0.1,1.2,0.2,1.7,0.3c1.5,0.1,2.9-0.3,4.1-1.2l1.1,0.5c1.1,0.1,2.2-0.2,3-0.9l1.3,0.5h5c1,0.4,2,0.7,3,1
	c3.3,0.5,6.6-0.7,9.5,0.1c1.7,0.5,2.8,1.7,4.5,2.2l8.7,1.3c1.2,0.4,1.6,1.3,2.5,1.7l4.3,0.6l4.5,2.7c0.7,0.3,2.2,0.1,2.9,0.5
	s1,1.5,1.9,1.8h2.4l1.9,1.1h0.1C118.4,26.4,117.6,25.5,116.6,24.8z"/>
<path class="st0" d="M113.3,27.5c-2.2-0.6-4.4-1.4-6.4-2.4l-3.5-0.9c-1.7-0.6-3.2-1.7-5-2.3l-5.7-1.4l-2.4-0.3
	c-0.9-0.2-1.2-0.8-1.8-1.2c-1-0.6-2.7-0.8-4-1c-3.3-0.6-7,0.5-10.3-0.1c-2.2-0.4-3.9-1-6.7-1l-5.3,0.4l-2.5,0.7
	c-0.5,0.2-0.7,0.8-1.3,0.9s-2.1-0.4-3.1-0.1c-1.6,0.4-2.7,1.5-4.1,2h-2L47.3,22h-1.5l-2.2,0.8l-0.9-0.1l-1.4,0.9l-5.2,2.3
	c-4.4,1.8-10,2.9-13.1,6v0.3c2.5,1,5.7-0.2,6.6-2c0.6-0.3,1.7,0.1,2.6-0.2l4-1.9l8.5-3.1l5.2-2.5l2-1.4c1.4-0.5,3.3,0,4.8-0.4
	c0.7-0.2,1.2-0.9,1.8-1.1c0.8-0.2,2.8,0.4,4,0.1c2-0.3,5-1.3,7.3-0.9l4.9,0.9c1.1,0.2,1.7-0.4,2.4-0.5c1.3-0.3,2,0.5,2.9,0.6
	s1.1-0.5,1.6-0.4c0.9,0.1,2.2,1,3.2,1.2l3.3,0.4c0.6,0.3,1,1,1.8,1.1c1.8,0.4,3.6-0.1,5.2,0.4c0.8,0.3,1.2,1,1.9,1.4
	c2.1-0.9,2.7,1.4,4.3,1.9c0.8,0.3,1.3-0.5,2.1-0.2l1.3,0.9l2,0.1c2.1,0.6,3.2,2.4,5.9,2.5l0.2-0.1c0.3-0.5,0.4-1,0.4-1.5
	C113.3,27.7,113.3,27.6,113.3,27.5z"/>
<path class="st0" d="M108.3,30.2c-1-0.4-2-1.3-3-1.5l-1.6,0.1c-1.5-0.3-2.4-1.5-3.8-2l-5.3-1.1l-5.6-2L87,23.9
	c-2.1-0.4-4-1.2-6.2-1.7c-3.2-0.7-7-0.6-10.8-0.5L66.9,22l-11.8,1.4c-1.2,0.3-1.7,1.3-2.7,1.7l-3.5,0.6l-1.9,1.1
	c-1.1,0.4-2.5,0.3-3.5,0.6c-3.2,1.3-6.4,3.1-10,3.9l-2.7,0.4c-1.9,0.7-3,2.6-5.1,3.2c-1.4,0.5-4.8,0.5-4.2,2.5
	c0.3,0.2,0.8,0.1,1.1,0c2.6-0.4,3.2-0.8,4.6-2.3c2.5,0.3,3.7-0.8,5.6-1.5l5.2-1.7l2.7-1.7c1.3-0.5,3.4-0.3,4.6-0.8l7.8-3.5
	c1-0.3,2-0.5,3-0.4l1.6,0.1c1-0.2,1.6-1.1,2.8-1.4l5.6-0.2c1.1-0.2,1.8-0.8,2.7-0.9c0.6-0.1,1.1,0.3,1.6,0.4l3.8,0.4
	c2.8,0.4,5.7-0.2,8.3,0.2c2,0.4,3.2,1.5,4.7,1.8l2.4,0.1l5.6,1.7l2.3,0.1l1.5,1c2,0.9,4.5,1,6.5,1.9c3.3,1.4,6.5,3.6,11,3.7l0.1-0.1
	C115.9,32,110.8,31.1,108.3,30.2z"/>
<path class="st0" d="M96.8,30.8c-1.1-1.1-2.8-1-4.6-1.5c-3.8-1.1-6.8-2.5-11.8-1.8l-1.2-0.9h-4.1c-1.7-0.3-3.5-0.4-5.3-0.4l-2.8,0.4
	l-4,0.9l-5.3,0.2C56,28.1,55,29,53.6,29.3l-1.5-0.1c-1.3,0.3-2.2,1.6-3.2,2.3c-2.2,1.8-4.4,3.5-6.8,5c-1.1,0.6-2.3,0.6-3.6,1.2
	l-1.7,1.4l-1.9,0.4l-5,2.8c-2.9,1.4-6.1,2-8.8,3.5l-2.5,1.9l-0.8,1.1l-0.9,0.1L16,49.6v0.3c2.5,0.5,9.7-3.4,11.5-4.5l2.9-1.7
	l2.1-0.4l1.2-0.9l2.8-1.5c2.4-1,4.9-1.4,7-2.7c3.1-1.9,5.1-5.2,8.7-6.8l2.1-0.6c0.7-0.1,1.4,0.2,2.1-0.1c1-0.4,2-1,3.1-1.4l4.9-0.9
	c2.1-0.3,4.2-0.3,6.3,0c0.9,0.2,1.8,0.2,2.7,0.1c0.7-0.2,1.1-0.9,2-1.1l1,1.1c1.9,0.4,3.5-0.9,5.5-0.5c2.6,0.5,4.3,1.9,6.7,2.6
	l3.5,0.5c1.1,0.3,2.2,0.6,3.2,1.1c0.6-0.1,1.1-0.4,1.4-0.9h0.5c0.4,0.7,1,1.3,1.6,1.9c0.7,0,0.8-0.3,1.2-0.6
	C100.4,30.5,98.4,30.4,96.8,30.8z"/>
<path class="st0" d="M117.2,29.4l-0.9,0.4V30c0.7,1,4.7,3.9,6.3,2C121.2,30.5,119.3,29.5,117.2,29.4z"/>
<path class="st0" d="M121.5,44.2c-2.3-0.7-3.8-2.5-5.9-3.3c-0.8-0.3-1.5,0.2-2.4,0c-1.3-0.3-2.4-1.3-3.4-2l-4.5-1.9
	c-1.3-0.5-2.8-0.5-4.3-0.9c-1.2-0.3-1.9-1.3-3-1.7L94,34.2l-3.5-1.3l-1.7,0.3c-1.1-0.2-2.5-1-3.8-1.3c-3.7-1-8.3-1-12.9-0.9
	l-2.4,0.1c-3,0.5-6.1,0-9.3,0.5c-2,0.3-2.7,1-4.2,1.4c-2.5,0.5-3.8,0.1-4.9,2c0.9,1.4,4.2-0.4,5.5-0.8c3.2-1,7.1-1.1,11.2-1.1h3.7
	l6,0.4l1.2-0.5c1.5,1.1,2.5,0.4,4.6,0.9c1.4,0.3,2.7,1.1,4.5,1.5l9.7,0.9c1.6,0.4,2.8,1.1,4.3,1.6l1.6,0.2c0.9,0.4,2,1.7,3.2,2.2
	l6.6,2.7c1.2,0.7,2.5,1.3,3.7,2c1.4,0.5,3.1-0.1,4.7,0.4s2.7,2.1,4.8,1.9l0.2-0.1C126.4,44.6,123.7,44.8,121.5,44.2z"/>
<path class="st0" d="M45,32.2c-1.3,0.6-3.3,0.4-4.6,0.9c-1.5,0.6-2.7,1.6-4.1,2.1l-3,0.4c-2.1,0.7-3.9,1.9-5.9,2.7
	c-2.7,1.1-7.1,2.5-8.5,4.6v0.3c1.4,0.6,4-0.4,4.9-0.9l1.2-0.9c0.8-0.2,1.6,0.2,2.4-0.1l3.5-2.2c1.4-0.6,3.1-0.6,4.3-1.3l3.8-2.7
	c2.1-1,5.2-0.9,6.4-2.8L45,32.2z"/>
<path class="st0" d="M122.3,40.1c-1.5-0.9-3.1-1.7-4.8-2.5l-2.2-0.4l-1.8-1.2c-0.6-0.2-1,0.2-1.5,0.1l-1-0.7l-2.8-0.8
	c-1.9-0.7-3-2.3-5.7-2.2l-0.6,0.2c-0.1,0.1,0,0-0.1,0.2s0,0.6-0.1,0.9c0.8,0.5,2,0.4,2.8,0.8l4.7,2.5l2.5,0.4l1.4,1l3.5,1.1
	c1.1,0.5,2.1,1.5,3.3,2.1c2.3,1,5.1,1.4,7.6,2.3l0.2-0.1C127.5,41.5,124,41,122.3,40.1z"/>
<path class="st0" d="M126.3,37.1l-2.4-0.8c-1.4-0.8-2.6-1.9-4.8-1.9c-0.4,0.2-0.7,0.3-0.9,0.8l-0.1,0.2c0.7,1.4,1.7,0.6,3.2,1.2
	c2.2,0.9,3.8,3.7,6.3,4.2l0.1-0.1C128.3,39.4,127.2,37.8,126.3,37.1z"/>
<path class="st0" d="M136.6,66.1l-1.9-2.1l-2.1-0.9l-4-2.9l-2.1-0.9c-0.3-0.6-0.7-1.2-1-1.8l-2.4-1.1l-4.6-2.6
	c-3.9-2.3-7.3-5.4-11.1-7.7c-1.4-0.7-2.9-1.2-4.4-1.6l-5-2.2l-6.4-3.3l-2.7-1.7h-3l-4.8-1.2c-1.3-0.2-2.6,0.6-3.4,0.4L76.6,36
	c-1.5-0.5-3-0.7-4.6-0.6c-1.2,0.5-1.6,0.5-2.4,1.4c0.2,1,5.2,1.5,6.8,1.2c0.6-0.1,1.5-0.7,2.1-0.5c1.4,0.6,2.9,1.1,4.3,1.5
	c2.7,0.7,5.6,0.7,7.9,1.7c1.5,0.7,2.3,2.1,3.7,2.8l3.9,1.2c2.4,0.9,4.8,1.9,7,3.2c2.2,1.3,3.6,3.2,6.6,3.6c1.5,2.5,2.9,1.8,5.1,3.2
	s3.8,3.3,6,4.6l8.6,4.7l3.2,2.9c0.7,0.5,1.6,0.5,2.4,1c0.6,0.4,0.6,1.2,1.4,1.4c0.2,0.1,0.2,0,0.4-0.1c0-0.1,0-0.1,0.1-0.2
	C139.1,67.6,137.5,66.8,136.6,66.1z"/>
<path class="st0" d="M64.6,35.8c-1.8,0.8-4,0-6.2,0.4l-5.2,1.2l-5.8,0.7C44,39,42,41.6,39,42.9l-3.7,1l-2.7,2l-2.3,0.3l-7.1,4.2
	c-3.2,1.5-5.9,2.2-7.9,4.9c0,0.1,0.1,0.2,0.1,0.4c1.9,0.2,4-0.8,5.3-1.6c4-2.4,9.7-4,12.3-7.7l2.3-0.3c0.7-0.4,1.4-0.8,2.2-1.2
	c0.6-0.2,1.1,0.2,1.7,0.1l3.3-2.1l3.6-1.6l1.8-1.3c0.9-0.3,1.8-0.1,2.5-0.4l2.5-1.1c1.2-0.2,2,0.5,3.2,0.2l4.5-1.4
	c3.4-0.6,4.7,1.9,7.8-0.4v-0.1C68.2,35.6,66,35.8,64.6,35.8z"/>
<path class="st0" d="M133.7,58.5c-4.1-2.7-8.4-5.5-12.5-8.2c-1.2-0.8-4-0.7-4.6-2.1v-0.4c1-0.4,2.2-0.3,3.2,0.2l7.8,4.4
	c0.7,0.4,2.8,1.8,3.9,1.4l0.2-0.1c0.5-2.6-5.5-4.3-7.4-5.2l-3.4-1.5l-2.4,0.2l-5.6-2c-5.9-2.5-10.9-7-18.6-7.6
	c-0.1,1,1.7,1.8,2.5,2.2s2.1,0.3,3.2,0.7c0.9,0.3,1.3,1.2,2.3,1.5l3.2,0.7c1.6,0.7,2.7,2.2,4.2,3.1c1.2,0.8,3,0.8,4.1,1.6
	c2.5,1.8,4.4,4.3,7,6c1.4,0.8,2.9,1.4,4.5,1.9l3.5,2l5.7,4.2c0.6,0.5,1.3,1.4,2.3,1.3C137.4,60.3,135.2,59.5,133.7,58.5z"/>
<path class="st0" d="M64.3,39.4l-2.7,0.1l-5.7,0.9c-5.1,1.6-10,3.7-14.8,6.2l-2.3,0.8c-2.5,0.5-4.3-0.8-4.9,1.9v0.1
	c1.7,0.8,3.7-1.2,5.7-1.2l0.2,0.1c-0.2,0.8-0.9,1-1.2,1.8v0.1c1.2,0.7,2.4-0.7,2.9-1.4c2.7-3.6,9.6-2.9,12.3-6.4h0.3
	c2.2,2,4.4-1,6.3-1.5c2.5-0.5,2.6,0.4,4.5-1v-0.4L64.3,39.4z"/>
<path class="st0" d="M136.2,71.2c-2.2-1.7-4-4-6.1-5.6l-5.5-3l-9.7-6.8l-8.2-4.1c-1-0.7-1.5-1.8-2.6-2.5c-3.1-1.8-7-2.6-10.3-4
	c-2.5-1-4.5-2.7-7.2-3.5c-5-1.6-11.6-1.6-18.2-1.5L67,41.3c-1.5,0.6-3.5,0.2-4.3,1.5c0,0.1,0.1,0.2,0.1,0.3c1.8,0.4,2.6-0.5,4.2-0.8
	l5.3,0.3c3.3,0,7.3-0.5,10.2,0.2c1.8,0.5,3.4,1.3,5,1.8c0.8,0.2,1.6,0,2.6,0.2c1.1,0.2,2.2,0.6,3.1,1.2c1.2,0.7,1.7,2.3,3,2.9
	l4.4,1.1c1.2,0.5,1.9,1.7,3,2.3l4.4,1.7c1.6,0.9,2.5,2.5,4,3.4c0.6,0.4,1.5,0.2,2.2,0.6l1.4,1.6l1.8,0.2c1,0.5,1.3,1.5,2.2,2.1
	l1.7,0.8l6.5,4.9l3.8,1.9l3.5,3.3c0.8,0.6,3.9,3.1,5.3,2.7h0.1C140.5,73.2,137.6,72.2,136.2,71.2z"/>
<path class="st0" d="M89.3,46.6c-6.2-1.9-12.6-2.7-19.1-2.6c-1.8,1.2-1.9,0-3.8,0.4L63,45.1c-2.7,0.5-5.5-0.5-7.9,0.2l-3.3,2
	L46.3,49c-1.5,0.8-2.9,1.7-4.3,2.7c-0.9,0.6-2.4,0.4-3.3,0.9l-4.1,2.8c-1,0.4-1.9,0.2-3.2,0.6l-1.1,0.8l-2.7,0.1
	c-2,0.6-3.3,2.5-5.1,3.5c-0.9,0.5-2.1,0.3-3.2,0.8c-1.4,0.6-2.3,2-3.5,2.8c-1.4,1-3.2,1.5-4,3v0.2l2-0.9c2-0.7,4.1-0.9,6-1.7
	c1.4-0.6,2.1-1.8,3.3-2.6l3.7-2l3.8-1.6l1.3-0.1c0.9-0.5,1.8-1.4,2.8-2l5.8-2.3l2.1-1.5c0.6-0.2,1.3,0.1,1.9-0.1l2-1.2
	c1-0.5,2.2-1,3.2-1.4c2.6-1.2,5.6-1.4,8.5-2.2l3-1.3c1.1-0.2,1.5,0.7,2.7,0.5l2.8-0.7l5.1,0.4c5.2,0,10-0.1,14.1,1
	c1.9,0.4,3.8,1.1,5.6,2c0.6,0.3,1.4,1.2,2.3,0.7l0.7-0.6v-0.2C93.7,47.5,91.5,47.3,89.3,46.6z"/>
<path class="st0" d="M129.5,46.8c-0.5,0.3-0.9,0.3-1.2,0.8c0.6,1,2,1.6,3.7,1.5C132.6,47.9,130.7,46.9,129.5,46.8z"/>
<path class="st0" d="M70.6,48.3L64,48.9c-3.8,0.6-7.9,1-11.3,2.2c-2,0.7-3.3,2.2-5.3,2.8l-5.8,1.7c-1.2,0.5-2.1,1.6-3.2,2l-2.1,0.2
	l-3.1,1.9c-2.6,1-5.6,1.7-7.9,3.1c-1.4,0.8-2.2,2.4-3.5,3l-1.9,0.1l-2.5,1.7c-2.6,1.4-6.4,2.4-7.6,5.1l-0.1,0.2L9.8,73l1.7-0.7h1.3
	l6.9-4l11.6-5.8l7.2-4.1l3.8-0.9l2.7-1.7c1.6-0.7,3.3-0.8,5-1.4c2.2-0.8,4.3-2,6.6-2.6l6-0.8c3.1-0.6,7-1.6,11-1
	c1.6,0.2,6.9,0.6,7.5-0.1v-0.7C80.7,48.1,72.8,48.2,70.6,48.3z"/>
<path class="st0" d="M30.5,52.5c0,0,0-0.1-0.1-0.1v-0.2c0.7-0.5,1.7-0.8,2.1-1.7c0-0.2,0-0.3,0.1-0.5v-0.1c-0.6-0.3-1.2-0.4-1.8-0.3
	c-3.2,3.6-8,5.1-12.3,7.7l-3.2,2.5l-1.4,1.7v0.3c0.2,0.1,0.5,0.2,0.7,0.1l1.3-1.2l3-1.1l7.1-3.9c1.8-0.8,4.1-1.2,6-1.8
	s5-1.1,5.3-3.2v-0.1C35.1,50.2,34,53,30.5,52.5z"/>
<path class="st0" d="M138.4,77.7c-2.2-1.8-4.4-3.7-6.9-5.3c-1.1-0.7-2.6-1.1-3.6-1.9c-0.6-0.4-0.7-1.4-1.3-1.8
	c-0.9-0.6-2-0.9-2.9-1.5l-5.6-4.7c-2.6-1.8-5.7-3-8.5-4.7l-5.5-3.4c-0.8-0.4-2-0.2-3-0.6l-2.3-1.6l-1.4-0.1l-2.5-0.8l-1.9,0.4
	l-0.7-0.5c-2.3-1.1-4.9-1.6-7.5-1.5l-1,0.1c-0.1,0.8,2.4,1.5,3.1,1.8l2.7,0.9c1.2,0.2,2.9-0.3,3.9-0.1l2.1,1.2l4.3,1.9
	c4.2,2,8.4,3.9,12.2,6.1l1.6,0.4l3,2.7l7.7,5.3l3.3,2.8l2.2,0.8l2.4,2.5c1.9,1.9,5.9,5.1,8.9,5.5l0.1-0.1
	C141.6,79.4,139.4,78.6,138.4,77.7z"/>
<path class="st0" d="M81,52.9h-2.6c-1-0.2-1.6-0.9-2.4-0.8c-0.7,0.2-1.4,0.6-2,1.1c-1.1-0.6-2.3-1-3.6-1.1l-3.2,0.4L65,53.3
	c-1,0.2-2-0.3-3.1-0.1l-3,1.5c-1,0.2-2-0.3-3-0.1c-3,0.7-5.9,2.6-8.7,3.6l-9.5,2.9l-3.6,2.1c-2.4,1.4-4.8,2.6-7.4,3.6
	c-2,0.8-4.2,1.3-5.9,2.4c-1,0.7-1.6,1.8-2.7,2.5c-3.4,1.9-6.2,1.9-8.1,5.5v0.2c2.3-0.2,6.4-2.3,7.5-3.7c0.6-0.9,1.3-1.7,2.2-2.4
	l3.3-0.8c0.8-0.2,1.2-0.9,1.9-1.2c1.3-0.6,2.6-0.6,4-1l3.1-2.1l5.3-2.3c2.8-1.7,5.7-3.1,8.7-4.2c6.1-2,12.9-3.9,19.4-5.5
	c1.6-0.2,3.3-0.2,4.9,0.2c1.6,0.2,2.5-0.4,3.5-0.6c0.9,0.6,2,0.9,3,0.7l1.1-0.5l6.3,1.4l4.8,0.2l0.2-0.2
	C87.4,53.4,84.2,53.4,81,52.9z"/>
<path class="st0" d="M132.9,53.3c-0.3,0.7,0,1.6,0.7,1.9c0.4,0.2,0.8,0.2,1.2,0C135,54.2,134,53.3,132.9,53.3z"/>
<path class="st0" d="M140.2,84.1l-4.8-3.6l-3.1-3.1c-1.4-1.1-3.3-1.6-4.8-2.6c-1.7-1.2-2.9-2.9-4.5-4c-0.6-0.4-1.6-0.3-2.2-0.7
	c-2.7-2-4.8-4.6-7.8-6.3c-1.1-0.6-2.7-0.5-3.8-1.2l-1.9-1.8l-3-0.7c-1.6-0.5-2.7-1.7-4.1-2.4L98,57.2c-1.8-0.8-3-2.1-5.8-2.1
	l-1.4,0.4h-0.1c0.5,2.4,3.9,2.1,6.1,2.8c1.4,0.4,2.5,1.5,3.7,2.1L104,62c2.4,1,4.7,2.2,7,3.5c1.2,0.8,2.4,2,3.6,2.7
	c0.6,0.3,1.3,0.2,1.8,0.6l1.7,1.3l1.2,0.4l0.6,1l2.8,2.2l1.2,1.4l2,0.7l1.5,1.6c0.5,0.4,1.2,0.3,1.9,0.7s1.2,1.6,1.9,2.2
	c1,0.8,2.3,1.1,3.4,1.8l1.4,1.8c1.5,1.2,3.5,2,4.7,3.5c0.6,0.8,1.7,2.5,3.2,2.2c0.2-0.1,0.4-0.3,0.5-0.5c0-0.1,0-0.2,0.1-0.4
	C143,87,141.6,85.5,140.2,84.1z"/>
<path class="st0" d="M72.8,56.3c-2.2,0.9-5.2,0.1-7.9,0.5l-3.7,0.9l-0.8,0.6c-0.9,0.3-2.5-0.3-3.6,0.1s-1.9,1.3-3,1.7L51,60.5
	c-2.8,1-6,1.8-8.8,3l-2,1.5c-0.7,0.3-1.5,0.2-2.3,0.4c-1.6,0.5-3.1,1.3-4.5,2.2c-4.3,2.7-7.2,7.2-11.5,10l-4,1.7L15.2,82
	c-3.5,2.7-6.8,4.9-9.2,8.7c0,0.1,0.1,0.3,0.2,0.4c2.6-1.1,3.5-3.2,5.6-4.5c1-0.6,2.5-0.6,3.6-1.3c1.3-0.8,1.8-2.3,2.9-3.2l3.9-2.3
	c2.7-1.8,5.2-3.9,7.9-5.8c0.9-0.7,1.2-2,2.1-2.7c1.6-1.3,3.7-1.9,5.6-3c0.9-0.5,1.7-1.6,2.6-2s2.8-0.4,3.8-0.8
	c3.2-1.2,6.4-2.8,9.6-4.2c1.3-0.6,2.8-0.4,4.3-0.9l1.9-1c1-0.2,1.9,0.3,2.9,0.1l4.1-1.2c1-0.1,2,0.1,3,0.4c2,0.3,4.1-0.2,5.8-1.3V57
	C74.8,56.4,73.8,56.1,72.8,56.3z"/>
<path class="st0" d="M143.7,99.3c-0.1-0.4-0.3-0.9-0.4-1.3l-1.9-1.4L131,86.4c-1.7-1.7-4.5-4-5.6-6.2c0-0.1-0.1-0.2-0.1-0.3
	c1.8,0.4,4.6,3.4,5.7,4.7c1.4,1.5,3.1,2.2,4.8,3.4c0.6,0.8,1.1,1.5,1.7,2.2c0.9,1.1,1.9,2.1,3,3c1.3,1.1,3.4,3.9,5.2,4.2l0.1-0.1
	c-0.2-3-2.4-4.2-4.2-5.6c-0.6-0.5-0.8-1.6-1.4-2.2l-2.9-2c-0.6-1.1-1.4-2.1-2.2-3c-1.4-1-2.9-1.9-4.4-2.7c-1.6-1-2.5-2.9-4-3.8
	l-2.2-0.6l-2.8-1.7c-2.7-2-4.8-4.7-7.6-6.4s-6-2.6-8.8-4.3c-1.1-0.7-1.7-1.9-3-2.5l-5-1.1c-1.3-0.5-2.1-1.8-3.5-2.4
	c-1.6-0.5-3.2-0.7-4.8-0.7l-2.3,0.1l-2.1-1.2c-1.3-0.4-2.7-0.5-4.1-0.4l-2.6,0.4l-0.2,0.2v0.3C79,58.5,84,59.8,86,59
	c2.7,1.5,5.6,2.7,8.6,3.5c2.1,0.6,4.3,0.8,6.1,1.8c0.7,0.4,1,1.2,1.7,1.7c0.9,0.6,2.2,0.5,3.3,0.9l3.3,1.5c3.2,1.9,5.8,4.4,8.7,6.6
	l2.5,1.6c2.3,1.7,3.3,4.8,4.9,7.2l6.4,6c5,4.9,9.5,10,15.2,14.2h0.3C147.2,101.8,144.6,100.7,143.7,99.3z"/>
<path class="st0" d="M73.4,60.3c-1.8,0.5-3.7,0.8-5.6,0.7c-0.7-0.1-1.2-0.7-2.1-0.6l-3.8,1.4c-1,0.3-2.4-0.2-3.5,0.1l-1.4,1
	l-2.9,0.5l-5.8,2.4c-2.7,1.1-5.6,1-7.2,3.1c0,0.1,0,0.3,0.1,0.4c1.6,0.2,3.5-0.7,4.8-1c4.1-1.2,7.3-3.3,11.3-4.3l4.6-0.4
	c2-0.3,4-0.8,5.8-1.1l6.5-0.1c1.1-0.2,1.9-0.5,2.8-0.7l0.2-0.4C76.2,60.5,75.4,60.2,73.4,60.3z"/>
<path class="st0" d="M144.2,104.4c-1.6-1.5-3.3-2.9-5.1-4.3l-3.5-4.1l-1.8-1c-0.9-1-1.4-2.2-2.2-3.2l-6.3-6.6l-2.4-3.5l-7.7-6.6
	c-2.2-1.7-4.3-4-6.9-5.3l-2-0.1c-1-0.6-1.7-1.5-2.9-2c-0.8-0.2-1.6-0.4-2.4-0.7c-0.6-0.4-0.9-1.2-1.6-1.4l-4.8-0.8L92,63.4l-1.7,0.4
	l-2-1.1c-2.9-1-6-1.5-9.2-1.4c-0.3,0.3-0.4,0.7-0.5,1.2c1.7,1.2,6.6,1.9,9,2.4l3.8,0.2c1.6,0.4,3.4,1.5,5.2,1.9l2.8,0.4
	c0.9,0.4,1.9,2,3.2,2.5l3,0.7l4.4,2.8l2,0.9l1.6,1.9l3.3,3.2l3.2,2.8c0.9,1.1,1.6,2.2,2.6,3.2l3.5,3.3c2,2.5,3.8,6.2,7.1,7.2
	c0.1,0.6,0.2,1.2,0.3,1.7c0.5,1.3,5,6,6.2,6.8l2.3,1c1.5,1.2,1.6,3.3,4.3,3.3C147,107.3,144.9,105.1,144.2,104.4z"/>
<path class="st0" d="M144.6,110.4c-0.7-0.5-1.5-2.3-2.4-3c-1.9-1.5-4.6-2.6-6.1-4.5l-2.1-3.7c-3.1-4-7.1-7.3-10.6-10.9
	c-2.5-2.6-4.8-5.5-7.6-7.8c-3.1-2.5-5.2-6.1-9.2-7.8l-6.1-2.2l-2.9-1.4c-0.8-0.2-1.4,0.3-1.9,0.2l-1.5-0.9c-1.9-0.9-3.9-1.5-5.9-2
	c-1.6-0.3-3.3-0.4-5-0.3l-1.6,0.1c-0.7-0.2-1.5-1.1-2.5-1.4c-1.8-0.4-3.3,0.4-4.5,0.6l-1.2-0.5l-2.9-0.2c-1.7,0.5-3.4,0.7-5.1,0.7
	l-1.8-0.1L62,66.2l-3.2,0.4c-1.7,0.5-3.3,1.3-5,1.8l-3.9,0.9l-4.4,2c-1.1,0.3-2.2,0.7-3.3,1.1l-5,3.1l-2.4,1l-1.6,2l-9.4,7.3l-4,3.6
	c-1.7,1.2-3.6,2-5.3,3.2L13,93.9c-0.6,0.3-1.1,0-1.6,0.4c-0.7,0.8-1.6,1.5-2.4,2.2c-2.3,1.4-5.3,2.5-5.6,5.8l0.1,0.1l7.9-5.4l3-3.2
	l3-1.1c2.4-1.3,4.1-3.2,6.2-4.8c1.4-1,3.2-1.4,4.5-2.4c1.9-1.5,3.5-3.1,5-5c0.6-0.6,1.2-1.3,1.8-1.9l2.7-0.9l2.2-2
	c1-0.7,2.2-1.1,3.3-1.7l2.4-1.7h2.5l2-1c1.7-0.7,3.2-1,5.1-1.5c2.6-0.8,5.2-1.9,7.7-2.6c1.6-0.4,3.6,0,5.5-0.3
	c3.3-0.7,6.8-0.8,10.2-0.4c4,0.7,7.4,1.7,10.9,2.6l7.5,2.1l4.2,0.7l1.8,1.4c0.7,0.3,1.5,0.2,2.1,0.5l4.5,3.8l3.8,2.2l1.7,2.1
	c1.7,2,3.6,3.8,5.3,5.9c4.2,5.3,9.1,10.2,13.6,15.2c1.4,1.5,3,2.9,4.3,4.5l1.4,1.6c0.7,0.5,1.6,0.6,2.2,1.1c1.5,1.1,2.6,2.9,5,3
	l0.3-0.4C146.6,111,145.9,111.3,144.6,110.4z"/>
<path class="st0" d="M143.9,123.7c-2.3-2-3.9-4.7-5.7-7.1c-2.1-2.5-4.1-5-6.2-7.4l-5.6-6.5l-3.6-5.3l-2.3-1.9
	c-0.4-0.8-0.7-1.5-1.1-2.3l-2.7-1.9l-2.2-3.8c-0.8-1-2.3-1.2-3.2-1.9c-1.8-1.4-2.8-3.7-4.7-5c-0.7-0.5-1.6-0.3-2.4-0.8l-1.7-2.1
	c-1-0.6-2.2-0.7-3-1.3c-1.5-1.1-2.6-2.8-4.3-3.7c-1.9-0.9-4.3-1-6.6-1.5c-1.2-0.3-2.2-1.1-3.3-1.4l-3.9-0.1
	c-3.4-0.8-6.9-1.1-10.3-1.1l-3.6,0.4c-1.6,0.3-3,0.4-4.8,0.8L54.1,72l-1.7,1.2l-1.8,0.1L49,74.4c-0.6,0.2-1.2-0.3-1.8,0
	c-1.8,0.8-3.5,2.3-5.4,3.2L38.6,79c-1.1,0.8-1.9,2.2-3.1,3c-2.3,1.6-4.7,2.8-6.9,4.5c-1.7,1.4-2.9,3.5-4.8,4.8l-2.5,1.4
	c-1.8,1.5-2.4,4.4-4.2,5.8c-4.2,3.3-8.8,7-12,11.2c-0.9,1.2-2.8,2.7-3,4.2c1.2,0.4,2.9-0.5,3.8-1c1.5-1,2.6-2.9,3.8-4.3
	c0.8-0.8,1.6-1.4,2.5-2l1.6-2.4c0.9-1.1,1.9-2.1,3-3l1.8-1.4c0.3-0.6,0.5-1.3,0.8-1.9c1-1.4,2.7-1.8,3.8-3c4-4.5,8.8-8,13.7-11.6
	c1.7-1.3,3.3-2.9,5-4.2c1-0.8,2.2-0.9,3.5-1.5l3.2-2.7c0.6,0.1,1,0.6,1.8,0.4c0.8-0.4,1.7-0.8,2.5-1.2c1.1-0.4,2-0.2,3.3-0.6
	c0.9-0.3,1.8-1,3-1.4l6.3-0.4c1.4-0.3,2.7-0.7,4-1.2l2.8-0.3l3.8,0.1c3,0.5,5.5,0.5,8,1.2c4,1.2,8,2,11.2,4c2.3,1.3,4.3,2.8,6.7,4.3
	c0.8,0.5,1.4,1.5,2.2,2s1.8,0.4,2.5,0.9c5.2,3.9,9.4,9.5,13.2,14.8c4.6,6.4,9.9,12.2,14.6,18.5c1.6,2.2,3.5,4.1,5.1,6.2
	c2,2.5,3.8,5.8,7.6,6.4C148.8,126.7,144.9,124.5,143.9,123.7z"/>
<path class="st0" d="M27.2,69.8c-5.1,3.3-10.5,6-15.4,9.5c-1,0.7-1.3,2-2.1,2.7S7.8,82.9,7,83.7c0,0.1,0,0.2-0.1,0.4l0.3,0.4
	c2.7,0.7,3.2-2.1,5-3l1.3-0.1c1.1-0.6,2-1.4,2.7-2.4l1.4-2l3.4-1.3c3.1-1.1,5.8-3,7.8-5.6v-0.1C28.3,69.8,27.7,69.7,27.2,69.8z"/>
<path class="st0" d="M38.8,69.8c-1.2,0.5-2.4,1-3.5,1.7l-5.8,4.8c-0.9,0.6-1.9,0.7-2.9,1.3c-0.3,0.5-0.7,0.9-1,1.4l-3,2.9
	c-3,2.3-6.5,4.2-9.5,6.5c-0.8,0.6-1.5,1.6-2.3,2.2L9,91.1l-0.5,1.1c-1,1.4-2.9,1.7-3.3,3.7c0,0.1,0.1,0.1,0.1,0.2
	c3-0.6,4.3-3.6,6.5-5c1.2-0.8,3-1,4.2-1.8l2.7-2.6l6.4-3.9c1.2-0.9,2.3-1.9,3.2-3.1l0.6-1.1l0.7-0.2l1.6-1.2c1.4-1,2.4-2.2,3.7-3.2
	c0.9-0.5,1.8-1.2,2.7-1.9c0.6-0.7,1.6-0.8,1.7-2L38.8,69.8z"/>
<path class="st0" d="M144.5,143.3c-0.1-0.5-0.2-1.1-0.3-1.6c-0.5-0.7-1.2-1.3-1.9-1.7l-3.7-3.7c-3-3.9-5.7-8-8-12.3v-0.2h0.2
	c3.4,2.5,5,7.4,7.7,10.7c1.6,1.9,4.7,3.2,5.8,5.6c0.9,0.5,1.7-0.2,2.5,0h0.2c-0.1,0.5-0.3,1-0.4,1.5l0.2,0.3
	c0.3,0.5,0.9,0.4,1.6,0.4c0-4.6-4-4.4-4.3-7.9c1.1,0,2.1-0.6,2.6-1.6c-0.2-1.2-2.6-3.7-3.6-4.2l-1.8-0.9l-1.5-2.6
	c-1.5-2.1-2.9-4.1-4.4-6.2s-3.7-3.2-5.1-5.1l-2-3.4c-3.8-5.2-7.7-10.3-11.5-15.5c-1.5-1.9-3.6-3.4-5.1-5.2l-2-2
	c-0.7-0.9-1.4-1.8-2.1-2.7c-0.9-0.7-2.7-0.4-3.8-1.1s-1.1-1.9-2.2-2.4c-1.6-0.8-3.4-1.2-4.8-2.1l-3-2.3c-1-0.5-2.3-0.2-3.1-0.6
	l-1.4-1.4l-2-0.3c-1.6-0.4-3.3-1.1-5-1.4h-3.8c-1.9-0.4-4.9-1.2-7.5-0.6c-2.3,0.5-4.5,1.2-6.6,2.1L60.7,77l-2,0.2L57,78.4l-2.1,0.1
	c-1.2,0.8-2.3,1.6-3.5,2.4l-2.2,0.6c-1.5,0.7-2.9,1.6-4.2,2.5c-2.2,1.3-3.3,0.8-5,3v0.4l0.3,0.1c1.5-0.5,2.5-1.3,3.9-1.8
	c2.3-0.9,4.8-1.1,6.6-2.4c0.9-0.6,1.2-1.6,2.3-2.1l6-1.8c4.1-1.6,8.2-3.6,12.8-4.6c3.1-0.7,7.4-1,10.5-0.1l1.1,1
	c1.2,0.9,2.6,0.8,4.1,0.5c1,0.7,2,1.4,3,2l1.6,0.2l1.1,1.4l1.4,0.4c0.9,0.3,1.7,0.7,2.4,1.2c4.1,3,7.1,7.3,10.2,11.3l4.2,4.4l1.4,1
	c0.8,1.3,1.6,2.6,2.4,3.9l5.6,8.1c2.2,3.1,4.2,6.4,6.4,9.6c0.7,1.1,2.5,1.2,2.7,2.9c-0.8-0.1-0.9-0.6-1.7-0.5c-1,2,2.1,6.7,2.9,7.9
	l3.6,5.6c0.4,0.8,0.8,1.6,1.1,2.4l2,1.5c0.9,1.2,1.5,2.9,2.7,3.8l1.6,0.9c1.6,1.1,2.8,2.8,5.4,2.8l0.1-0.1
	C147.6,145,146,143.9,144.5,143.3z M123.7,110.6l-6.1-8.6l-1.2-2.3c-1-1.3-2.6-2.3-3.7-3.5c-0.4-0.8-0.8-1.6-1.2-2.5
	c-1.5-1.9-3.1-3.6-5.1-5c-1.1-0.8-2.8-1.8-3.3-3.1c0-0.2,0-0.3-0.1-0.5l0.4-0.2c1.7,0.3,2.5,2,3.6,3c2.8,2.5,5.3,5.3,7.5,8.4
	l2.7,2.9l1.5,1.2c1.1,1.6,1.7,3.8,2.7,5.5l3.2,4.2l2.4,2.3l0.4,1.4l2,1.9l2.7,4.6c0.8,1,2.3,1.3,3.1,2.3c0.4,0.9,0.9,1.9,1.3,2.8
	c0.9,1.6,1.9,3.2,3,4.7c1.1,1.4,2.7,2.1,3.5,3.7v0.3c-0.9,0.1-2.6-1.1-3.1-1.7c-0.7-0.8-1.2-1.9-1.8-2.8l-4.5-6.1L123.7,110.6z"/>
<path class="st0" d="M141.6,114.9c2.1,0.2,3.2,3.1,5.6,3.8h0.1c0.2-0.6-0.3-1.4-0.6-1.9c-1.7-2.8-3.1-3.4-5.6-5.3h-0.3
	c-0.3,0.4-0.5,1-0.9,1.3l-1.6-2.4c-0.9-1.2-1.8-2.3-2.7-3.5c-1.2-1.5-3.7-2.8-4.6-4.1l-1-2.2l-2.1-2.2l-6.4-7.3
	c-3.2-4.1-6.6-8.3-11-11.2l-3.2-2.2c-2.4-1.9-3.8-4.7-8.4-4.3l-0.2,0.4c1,1.7,3.6,2.4,5.3,3.3c3.4,1.9,6.2,4.8,9.1,7.3
	c3.7,3.1,5.9,7.9,8.9,11.7c0.6,0.7,1.8,0.8,2.4,1.4l0.9,1.7l2.3,2.6c0.9,1.3,1.7,2.6,2.7,3.9l6.4,6.2c1.2,1.8,2.3,3.6,3.5,5.3
	c0.8,1,2,1.6,2.7,2.4c1.5,1.8,2.4,4.2,5.6,4C147.8,119.6,142.4,118.3,141.6,114.9z"/>
<path class="st0" d="M61,73.3l-6.9,2.3c-1.2,0.4-2.4,1.8-3.4,2.2c-0.7,0.2-1.3-0.2-1.9,0.1l-2.7,1.9c-1,0.3-1.8,0.1-2.5,0.5
	c-0.9,0.7-1.8,1.5-2.5,2.3c-0.7,0.4-1.4,0.7-2.2,1L38,84.8l-2.9,2.7c-2.9,2.2-6,4.4-9,6.6L23.4,96c-1.2,1.3-1.9,3.1-3,4.5
	c-0.7,0.9-1.6,1.1-2.5,1.7l-2.5,2.3c-2,2.1-3.4,4.7-5.1,7c-1.1,1.4-3.6,2.5-4.9,3.9c-0.7,0.7-3.5,5.4-3.8,5.6v0.6
	c1.9-0.6,2.5-1.4,3.8-2.3l1.6-0.9c0.7-1.2,1.6-2.4,2.5-3.5l5.7-5.6c0.8-1.1,1.2-2.3,2-3.5c1.6-2.3,4.9-4.2,6.9-6.2
	c1.2-1.2,1.8-2.9,3.1-4c1.6-1.3,3.7-2,5.3-3.2c1-0.7,1.5-1.9,2.4-2.6c1.1-0.9,2.9-1.2,3.7-2.4c0.3-0.5,0.2-1.1,0.4-1.7l1.9-1.3
	c1.8-1.3,3.4-3.1,5.5-4c1-0.4,2-0.3,3.2-0.7c0.6-0.2,0.9-0.8,1.4-1.2c1.1-0.6,2.3-1.2,3.5-1.7c2.4-0.8,7.4-0.7,7.6-3.5
	C61.8,73.3,61.4,73.3,61,73.3z"/>
<path class="st0" d="M145.1,149.8l0.2-0.1c0-3-3.3-3-4.8-4.5c-2.1-2-3.7-4.7-5.4-7.1l-1.9-2.3c-0.2-0.6-0.4-1.1-0.6-1.7l-2-2.2
	l-5.8-15.4c-0.8-1.2-2-2-2.8-3.2l-0.7-1.8l-1.2-0.8l-2.2-2.5c-1.8-2.5-2.8-5.8-4.6-8.2c-1.3-1.7-3.8-2.4-4.9-4l-1.7-3l-4.2-3.5
	c-0.7-0.8-0.8-1.9-1.4-2.8l-3.1-2.1c-2.7-1.9-5.4-4.2-8.7-5.6c-1.6-0.7-3.7-0.2-5.4-0.8c-1.9-0.7-3.6-1.7-5.9-2.1
	c-1.7-0.1-3.5,0.1-5.1,0.6c-2.3,0.5-4.6,0.4-6.7,1.3l-2.2,1.6l-4.2,1.5c-2,0.5-3.8,0.7-5.3,1.6c-1.2,0.7-2,2-3.4,2.6l-4.8,1
	c-1.4,0.6-2.5,1.8-3.8,2.6l-8.3,3.8l-2.2,1.9l-0.7,1c-1.4,0.7-2.7,1.4-3.9,2.3c-0.6,0.6-0.6,1.8-1.3,2.4c-3.7,3.3-7.2,6.9-10.4,10.7
	l-6,6.7l-3.8,3.9c-1,0.8-3.6,3.6-3.2,5.2c2.6,1.2,3.8-2.2,4.6-3.4l3.2-2.9c2.2-2.2,4.3-4.7,6.2-7.2l3.4-4.4c1.1-1.4,2.7-2.4,3.8-3.8
	l3-4.3c0.6-0.6,1.7-0.8,2.2-1.4l2.1-2.4c2.8-2.1,6.5-3.3,9.5-5.2l3.5-2.7l2-0.2l4.3-2.8c1.2-0.5,3.1-0.2,4.2-0.7l2.2-2
	c2-1.3,4.1-2.3,6.3-3.1c4-1.4,8.9-1.5,14.4-1.5l5.8,0.1c0.6,0.2,0.8,1.1,1.4,1.4c1.4,0.8,3.4,0.9,4.8,1.7l5.1,3.1l2.2,1.1l2.6,2.7
	l2.6,1.5c3.2,2.6,2.7,7.4,7.6,8.9l0.4,0.7c-0.1,0.1-0.2,0.1-0.3,0.2c-0.4-0.2-1-0.3-1.4-0.2c-0.5,1.1,0.6,2.9,1,3.6l2.5,3.6l2.7,6.1
	c1.2,3.1,2.2,6.3,3.2,9.5c0.3,1.2,0.5,2.5,0.8,3.8c0.8,1.8,1.6,3.6,2.4,5.3c0.9,2.7,0.7,5.3,1.3,8.4c0.3,1.2,0.4,2.4,0.3,3.6
	c-0.3,0.8-0.7,1.7-1.1,2.4c-0.6,1.7-0.6,3.6-1.7,4.8l-5,3.7c-1.4,1.2-2,3.1-3.6,4.1c-1.1,0.7-2.6,0.6-4.1,1
	c-2.6,0.6-5.3,1.5-8.4,2.1c-4.2,0.8-11.6-1.6-14-2.9c-2.1-1-4-2.4-5.6-4.1c-0.7-0.9-1.4-1.7-2.1-2.6c-1.1-0.8-2.3-1.1-3.1-2.1
	c-1.1-1.5-2.1-3.1-3-4.8c-1.3-2.1-3.1-4.3-3.6-7.1c0.2-0.6,0.3-1.3,0.5-1.9c0.1-1.3-1.1-1.8-1.3-2.9c-0.2-1.3-0.1-2.7,0.1-4
	c0.1-1.6,0.3-3.2,0.4-4.8c0.5-3.1,1.9-6.1,4-8.4h0.3c-0.5,1.1-1,2.2-1.4,3.3c-0.4,1.6-0.9,3.1-1.4,4.7c-0.5,2.2-1.2,6.8-0.4,9.2
	c0.4,1.2,1.2,2,1.4,3.3c0.5,2,0.5,4.7,1.5,6.3L74,147c0.6,1.2,0.3,2.1,1.3,2.8c1.2,0.9,4.8,2.5,5.5,3.7l0.2,1.9
	c6.4,3.9,12.2,5.4,21.8,3.8h4c1-0.2,1.3-0.8,2-1.1c1.5-0.7,3.3-0.5,3.7-2.4l-0.2-0.3c-2.5-0.6-3.5,1.1-5.2,1.6l-1.9,0l-1.7,0.8
	c-2.3,0.8-5.9,0.1-8.2-0.3c-1.7-0.3-3.6,0.2-5,0c-2-0.3-7-2.4-7.9-3.8c0.5-0.4,2.2-0.4,2.9-0.1l2.8,1.4c1.8,0.6,3.6,0.2,5.7,0.6
	l1.7,0.8c3.9,1,7.7-0.7,10.5-1.4l5.1-1.2l2.5-0.1l1.6-1.5c0.9-0.6,3.4-1.7,3.8-2.6c0-0.5,0-1,0.1-1.4l1.1-2.7
	c0.2-0.7-0.2-1.4-0.2-1.8c0.2-0.9,0.4-1.7,0.7-2.6c0.5-3.2-0.7-10.4-2.4-11.2l-0.4-0.1c-1.3,2.5,0.7,5,0.3,7.7l-0.5,4v2.5l-1.3,1.4
	c-0.5,0.9-0.4,1.9-0.8,2.9c-0.2,0.4-0.6,0.2-1,0.4c-1.1,0.5-2.2,1.3-3,2.2l-0.9-0.2c-1.8,0.9-3.2,2.1-5.3,2.8
	c-5.4,1.7-16.1,0.2-20.7-1.4c-1.5-0.5-2.6-1.7-3.8-2.5s-3.3-1.5-3.8-2.7c0-0.4-0.1-0.9-0.1-1.4c-1.2-0.7-2.3-1.2-2.7-2.6
	c0-0.5,0-1-0.1-1.5l-1.2-0.9c-0.7-0.7-1.3-1.5-1.6-2.4c-0.8-2.2-0.4-5.1-0.9-7.9c-0.2-1.4-1-3.1-0.7-4.8c0.5-2.6,2.2-3.8,2.8-6
	l0.3-0.1c0.3,2-0.9,4.4-1.2,6.4c0,1,0.2,2.1,0.6,3c0.1,1,0.1,2,0.1,3c0.3,1.8,0.7,3.6,1.3,5.4c1.2,2.8,2.8,5.4,4.8,7.8
	c0.5,0.7,1,2,1.8,2.4s1.6,0.4,2.2,0.9c0.9,0.7,1.6,1.8,2.6,2.2c2,0.9,4.9,0.5,7.3,0.9c1.9,0.3,3.6,0.9,5.2,1.2
	c5.4,1,10.2-2.6,13.3-4.3l3-1.4c0.1-1,0.3-1.9,0.6-2.9c0.6-1.2,1.1-2.5,1.7-3.7c0.3-1.3-0.3-2.7-0.1-4l0.7-2.4
	c0.5-3.3,0.4-6.6-0.2-9.9c-0.4-1.9-1.4-3.3-2.1-5c-0.1-1.1-0.2-2.2-0.3-3.2c-1.4-3.3-3.1-6.4-4.9-9.4l-2.6-5l-0.7-2.3l-2.5-2.8
	c-1.2-1.6-1.9-4-3.5-5.2c-0.8-0.6-2.1-0.5-2.9-1.2c-1.5-1.2-2.3-3.2-4-4.2c-1.1-0.7-2.7-0.9-4-1.4s-2-1.6-3.4-2.1
	c-4-1.3-9.8-1.6-14.5-0.8c-2.2,0.3-4.4,0.8-6.6,1.5c-4.6,1.7-8.9,4.2-12.7,7.4l-4,4l-1.3,0.2L44,97.2l-2.5,0.9l-3.5,4.1
	c-3.1,2.6-5.3,6-7.7,9.3c-1.8,2.5-4.2,4.7-6,7.2c-0.4,0.6-0.3,1.3-0.7,2l-1.2,1l-3.5,3.8c-2.2,2.9-3.8,6.1-5.8,9.2L11,137
	c-0.7,1.1-1.4,2.2-2.2,3.3c-0.9,1.3-5.2,5.2-4.7,7.3l0.1,0.2c1.7,0,1.4-1.3,2.3-2c1.2-0.7,2.2-1.6,3.2-2.6c0.6-0.8,0.8-1.7,1.3-2.5
	l1.3-1.1c0.4-0.5,0.2-1.2,0.6-1.8s1.3-1,1.7-1.6l1.9-3.5l1.6-1.4l0.6-1.4c0.6-0.9,1.2-1.8,1.7-2.7c1.6-2.1,4-3.5,5.6-5.6
	c0.6-0.8,0.8-1.7,1.4-2.5l2.9-2.6l1.3-1.7c0.6-0.3,1.3-0.4,2-0.2c0,0.1,0.1,0.2,0.1,0.4c-3.1,4.2-7.2,7.4-10.5,11.5
	c-1.7,2-3.4,4.2-4.8,6.4l-2,3.8l-1.4,1.2c-1.1,0.9-1.4,2.1-1.9,3.6c1.3,1.5,3.5-2.7,4-3.3s1.1-0.9,1.5-1.5s0.6-1.3,0.9-1.9l3.2-4
	c0.5-0.7,0.7-1.6,1.2-2.3c0.4-0.5,1.4-0.7,1.8-1.2c0.6-1,1.3-2,2.1-2.9l0.4,0.1c0.2,1.5-2.7,3.6-3.5,5l-1.8,3.9
	c-1.2,1.6-2.4,3.2-3.8,4.6c-1.5,1.9-2.9,4.3-4.8,5.8l-1.4,1.1l-1.6,0.1l-1,1.1c-1.5,1.7-3.3,2.8-3.8,5.6l0.1,0.1
	c1.5,0.6,2.7-0.9,3.3-1.7c2.1-2.9,5.8-3.6,7.5-7.1c0.8-1.7,2.6-2.2,3.5-3.6c1.2-1.9,1.7-4,3-5.8c1.8-2.5,4.1-4.6,5.7-7.2
	c0.4-0.9,0.8-1.7,1.2-2.6c0.1-0.9,0.3-1.7,0.6-2.5l4.3-5c2.2-2.8,8.4-8.1,8.7-12.1l-0.3-0.1c-1.9,1.5-3.5,3.3-4.9,5.3
	c-1,1.1-2.1,2.2-3.2,3.1l-0.2,0.1c0-0.1-0.1-0.2-0.1-0.4c1.6-2.6,3.7-5,6.2-6.8l3-2.7c1-0.6,2.2-0.5,3.1-1.1
	c1.3-0.8,1.9-2.6,3.2-3.5c1-0.7,2.1-1,3-1.7c1.5-1.2,2.5-2.8,3.9-4.1c0.7-0.6,1.2-0.5,2.2-0.8l2.4-1.4l1.3-0.1
	c0.5-0.2,0.9-1.1,1.4-1.4c1.3-0.7,2.9-0.6,4.4-1.1l2.8-1.1c2.4-0.6,5.1,0.3,7.1,0.7l4.2,0.1l2,1.4h1.7c1,0.3,2.3,2,3.8,1.2l0.4-0.2
	c-0.7-3-7.4-3.1-10.4-4c-1.5-0.5-3-0.9-4.6-1.2c-1.1-0.1-2.3,0-3.4,0.2c-5.1,1-8.2,2.9-12.2,4.7l-5.2,2.2c-1.3,0.9-2.2,2.6-3.6,3.5
	c-2.6,1.7-5,3.7-7.1,6.1c-0.6,0-1-0.3-1.6-0.1c-1.1,0.4-2.1,1.9-2.9,2.6c-2.3,2.2-4.5,4.5-6.5,7c-0.5,0.7-1.2,1.9-2.1,2.2h-0.1
	c0-0.1,0-0.2-0.1-0.3l0.7-1.6l2.1-2.4c0.2-0.4,0.3-0.9,0.4-1.3c0.4-0.6,1.4-1,1.8-1.6c0.8-1.1,1.3-2.5,2.4-3.3c1.6-1.3,3.5-2,5-3.3
	l1.4-2l4.1-2.8c5.3-3.9,10.6-7.5,17.2-10.1c3.2-1.2,8.5-2.6,12.6-1.3l2.2,1.4c2.4,0.8,5.2,0.7,7.4,1.5c2.9,1.1,5.2,4.2,7.3,6.3
	c2.5,2.2,4.7,4.7,6.8,7.3l3.7,6.5c1.5,2.1,2.8,4.4,3.9,6.8c0.6,1.6,0.6,3.3,1.1,5.3c0.4,1.1,0.8,2.2,1.4,3.2c0.5,1.9,1,3.8,1.4,5.7
	c0.5,2.5-0.4,5-0.8,7c-0.2,1.9-0.4,3.8-0.7,5.8c-0.7,3.2-2.7,6.9-5.4,8.1l-1.4,0.3c-2.1,0.9-4.4,1.7-6.6,2.3
	c-1.3,0.3-2.1-0.5-3.2-0.3c-1.5,0.4-3.1,0.4-4.7,0c-2-0.7-3.9-1.6-5.8-2.7c-1.2-0.6-3.2-1-4.3-1.7s-2.1-2.8-2.9-4
	c-1.2-1.9-3-3.9-2.6-6.9c-0.5-0.5-1.2-0.5-1.6-1.2c-0.5-1-0.2-2.3-0.4-3.6l-0.7-1.6c-0.3-1,0.5-2.4,0.7-3.2l0.5-4.5
	c0.3-1,0.6-1.9,1-2.8c0.8-0.3,1.7-0.4,2.5-0.5c4.4-1.1,9.2-0.2,11,3v0.4c-2.8,0.4-4.8-3.9-8.6-2.9c-1.3,0.3-1,2.2-2.1,2.7
	c-0.2-0.6-0.5-1.2-0.9-1.6c-3.3,0.6-2.8,7.8-2,10.9c0.4,1.1,0.9,2.3,1.4,3.3c0.4,0.9,0.9,1.8,1.4,2.7c0.4,0.3,1.3,0.1,1.9,0.4
	c0.9,0.4,1,1.6,1.5,2.4c0.7,1.1,2.5,1.9,3.9,2.2c2.2,0.6,7,1.2,9.8,0.6c1.3-0.3,2.4-1.4,3.5-2l3-1.4c0,0,2.2-3.3,2.2-3.4
	c0.6-1.4,0.1-4.1-0.2-5.4c0-0.7,0-1.5,0.1-2.2l-0.6-0.9c0-1.5-0.1-2.9-0.1-4.4c-0.8-3.2-1.6-6.4-2.4-9.7c-0.5-1-0.9-2-1.4-3
	c-0.6-1.7-0.6-3.8-1.2-5.3c-2-4.4-5.6-7.9-10.1-9.8c-1.1-0.5-2.2-0.7-3.4-0.6c-1,0.3-2,0.4-3,0.3L77,92.1c-2.6-0.4-4.2,0.7-5.8,1.2
	c-3.1,1-6.5,1.8-9,3.5c-0.7,0.5-1.1,1.3-1.7,1.9s-1.7,0.9-2.6,1.5l-3.8,4.9c-3.3,4.2-7.1,7.8-10,12.6c-1,1.7-1.2,3.6-2,5.6
	s-2.3,3.9-3.1,6.1c-0.3,1.3-0.5,2.5-0.8,3.8c-0.5,1.4-1,2.7-1.7,4c-0.3,0.7-0.3,1.5-0.6,2.3c-0.5,1-1.7,1.2-2.2,2.4
	c-0.8,2-0.5,4.6-0.9,7.1c-0.4,2.3-1.1,5-0.2,7.4c1.3,3.4,3.9,5.3,5.9,7.9l1.6,2.4c0.8,0.5,1.6,0.6,2.3,1.1l1.6,1.7
	c0.5,0.3,1.2,0.2,1.7,0.5l1,1.4l3.2,3l6.9,4.6c2,1.4,3.8,3.4,6.2,4.4c1.3,0.6,3.2,0.4,4.7,1s2.3,1.7,4,1.9l1.7-0.1l2.4,0.9
	c4,1,8.2,1.3,12.3,0.9l1.7,0.5l2.9-0.5c1.4-0.1,2.8-0.1,4.2,0.2c2.7,0.4,5.4,0.3,8.1-0.1c4.4-0.7,8.7-1.1,12.9-2l3.8-0.4
	c0.8-0.3,1.2-1.1,2.2-1.3c1.5-0.3,3,0.2,4.3-0.1l5.8-2.2c1.4-0.4,3,0,3.7-1.2v-0.3c-2.9-0.5-6.5,0.4-8.9,0.9s-5.1,0.6-7.7,1.2
	c-1.7,0.4-3.4,1.3-5.2,1.7c-4.5,1.2-9.6,1-14.5,1.8l-5.9,0.1l-7.8,0.4l-4.6-1.1l-6.6-0.7l-2.4-0.1c-0.5-0.1-0.9-0.7-1.6-0.9
	c-1.7-0.5-3.1-0.3-3.8-1.8l0.1-0.1c2.8-0.5,4.3,1.5,6.4,2s3.6-0.5,5.3,0.4c0.8-0.7,5.9-1,7.3-1l1.1,1.3c1.2,0,1.2-0.5,2-0.7
	c0.9-0.2,1.9,0.6,2.7,0.7c2,0.3,4-0.3,5.7-0.5l2.6,0.2l1.3-0.5l4.8,0.1l5.5-1.7c1.4-0.4,2.8,0.3,4.3-0.1l2.4-1.1l5.8-0.7
	c1.4-0.3,2.7-0.8,4-1.4l2.3-0.4c3.2-0.8,5.4-0.6,7.4-2.6v-0.3c-1.8-0.8-4.1,1.8-6.9,1.4c-1.4-0.2-3.6-0.8-5.3-0.4s-2.5,1.6-4.6,2
	c-7.1,1.4-13.6,2.2-20.8,3.5l-7.9,0.2h-3.6l-5-1.2c-3.1-0.6-4.2,2-7.6,1.1c-3-0.9-5.8-2.1-8.7-3.4c-1.3-0.4-2.5-0.9-3.6-1.5
	l-3.5-2.8c-1.1-0.7-2.8-0.9-3.9-1.6c-0.3-0.5-0.7-0.9-1-1.4l-4-3.8l-6.2-4.6c-1-0.8-1.2-2.4-2.2-3.2c-1.8-1.4-3.5-2.3-4.5-4.5
	c-1.4-3-1.7-6.3-2.3-10.2c-0.5-3.1,1.4-4.9,0.4-7.6c0.2-1.2,1.2-2.4,1.7-3.5c0.9-2.6,1.9-5.2,2.8-7.8c0.5-1.2,0.8-3.1,1.7-3.9
	c0.5-0.4,1.6,0.7,2.5-0.7l1.8-3.5l1.6-1.7c0.5-0.9,0.4-2,1-2.7h0.3l0.2,0.2c-0.3,2.3-1.8,3.7-2.5,5.5c-0.2,0.7-0.4,1.5-0.6,2.2
	l-1.4,1.2c-1,1-1.9,2.1-2.7,3.2c-2.8,4.3-4.1,9-5,15.2c-0.3,2-0.3,6.6,0.2,8.3l1.8,3l1.5,3.5c1.2,2,3.5,3.8,5.3,5.3l3.1,3.2l1.2,1.7
	l2.4,1.1c1.1,0.7,1.5,2,2.5,2.7l8.6,5.1l3.7,2.7l6.6,1.3c1.1,0.4,3.2,2.1,5,1.4c0.2-0.1,0.2-0.2,0.3-0.5c-0.9-2-1.8-0.9-3.6-1.7
	c-0.7-0.3-1.4-1-2.2-1.4l-3.5-1.2c-0.7-0.4-2-1.7-2.7-1.9l-2-0.3l-1.4-1.4l-5-3.1l-2-2.2c-0.6-0.3-1.4-0.2-1.9-0.5
	c-1.8-1.3-3.4-2.9-4.8-4.7l-2.7-2.4l-0.7-1.4c-0.5-0.6-1.8-0.6-2.4-1.4c-1-1.3-1.3-3.2-2.2-4.6c-0.6-0.9-1.7-1.6-2-2.7
	c-0.2-0.9,0.6-1.4,0.4-2.4s-1.1-1.4-1.3-2.5c-0.4-2.1,0.8-3.9,1.2-5.4c0.3-1.3-0.2-2.8,0.2-4l1.2-1.7c0.6-1.1,0.9-3.2,1.3-4.3
	l0.4-0.2h0.1c0.2,0.9-0.7,2.4-0.9,3.3s0.2,1.8,0,2.7s-0.9,2.2-1.2,3.5c-0.6,3.5-0.2,7.1,1.2,10.3l1.4,2.2c0.7,1.4,0.7,2.9,1.4,4
	c1.5,2.3,3.9,3.7,5.6,5.8l1.5,2.2l2.4,1.1l2.2,2.6l6.9,3.9c1.6,1,2.9,2.6,4.5,3.5l2.9,0.8c1.3,0.5,2.3,1.8,3.5,2.2l1.8,0.1l2,0.6
	c2.1,0.8,3.8,2,6.3,2.4c1.2,0.2,2-0.5,3-0.4l1.8,0.6c2,0.4,4.9-0.5,6.7-0.8l4.5,0.3l1.6-0.8h4.7l7.1-2l3.9-0.1l3-1.7l2.2-0.1
	c1.2-0.2,2.5-0.6,3.6-1.1l5.3-2.8c1.9-0.8,5.1-1.7,6-3.5c0.1-0.1,0.1-0.1,0.1-0.4l-0.1-0.1c-4.5,0.4-7.1,2.7-10.9,4l-6.6,2.1
	l-4.3,0.9c-2.5,0.8-5,1.7-7.8,2.4c-3.1,0.8-6.3,0.6-9.7,1.2c-1.4,0.3-3.4,0.9-5.2,0.6l-3.5-0.7c-1-0.1-2.1,0.1-3,0.5l-2.5-0.8
	l-3-0.4c-3.6-1.1-7.1-2.6-10.4-4.5l-2.6-1.9c-0.6-0.3-1.8-0.2-2.4-0.6l-0.9-1.4c-0.6-0.4-1.4,0-2-0.4l-4-3.8
	c-3.5-2.8-7.6-5.7-9.9-9.8l-1.4,0.1c-0.4-0.1-1.5-3.8-1.8-4.4c-2.6-5.2-3.3-11.2-2-16.9c0.8-3.7,2-7.4,3.5-10.9
	c0.8-1.8,2.2-3.1,3-4.8l1.8-4.7c2.7-6.2,7.6-11.3,13.7-14.3c2.2-1,7.4-3,10.7-2.2c1.9,0.6,3.8,1.5,5.4,2.7c1.3,0.8,3.3,1.1,4,2.5
	c0,0.3-0.1,0.7-0.4,0.9l-0.2,0.1l-3-2.2l-1.4-1.2c-5.9-2.4-9.6-0.5-14.4,1.4c-3.4,1.4-7.1,2.8-9,5.6c-0.7,1.5-1.3,2.9-2,4.4
	c-0.9,0.9-1.7,1.8-2.6,2.7c-0.9,1.6-0.9,3.9-1.9,5.4l-1.4,1.4c-0.4,0.8-0.2,2.1-0.6,2.8c-1.4,2.9-3.2,5.2-3.9,9
	c-0.9,4.9,0.3,10.3,1.4,14.1c0.2,0.9,0.4,1.8,0.7,2.7c0.4,0.4,0.8,0.8,1.2,1.1c0.3,0.5,0.2,1.2,0.5,1.9l1.6,0.8l0.5,1.7
	c0.6,1.2,1.4,2.2,2.4,3l2.7,1.8l0.7,1.6l2.6,2.4c0.2,0.3,0.4,0.5,0.6,0.8l1.6,0.4l2.3,1.9l2,0.3l3.4,3.3c0.8,0.5,1.6,0.9,2.5,1.1
	l1.6,0.3c1.4,0.9,2.8,2.4,4.6,2.9s3.4,0.8,5.1,1.4l1.1,0.6c2.2,0.6,6.1-0.8,8.9-0.4c2.8,0.4,5.6,0.3,8.3-0.3l4.3-0.2
	c4-0.8,7.1-2.1,10.8-3l3.2-0.1l1.9-1.2c0.6-0.2,1.2,0.1,1.7-0.1l1.4-1.1c1.7-0.7,3.8-0.8,5.5-1.4l4-2.5c2.1-0.9,5.9-0.4,6-3.4
	c-0.1,0-0.2-0.1-0.2-0.1c-1-0.4-2.3,0.8-3.1,1.1c-1.9,0.8-4.5,0.8-6.4,1.7c-1.2,0.6-1.8,1.8-3,2.3l-2.7,0.4
	c-1.1,0.5-1.7,1.5-3.1,1.9l-7.9,0.8c-2.8,0.6-5.1,2.1-7.8,2.8c-3.1,0.9-6.9,0.4-10.5,0.9l-10.1-0.2c-0.6-0.2-0.9-0.9-1.6-1.1l-3-0.1
	c-1.4-0.5-2.8-1.1-4.1-1.8c-1.7-0.6-3.3-1.3-4.8-2.3c-2.9-2.1-4.9-6.2-9-6.9c-0.1-0.5-0.2-1-0.3-1.5c-0.4-0.2-1.3,0-1.8-0.3
	l-1.9-1.9c-2.1-1.7-4-3.6-5.6-5.8l-1.4-3.8c-0.9-1.4-2.3-2.3-2.8-4.1c-1.4-5.6-1.4-11.4,0.1-17c0.4-1.2,1.6-1.6,2-2.7
	c0.3-0.9,0-1.8,0.3-2.6c0.8-1.3,1.6-2.6,2.5-3.8c0.1-0.7,0.1-1.4,0.2-2.1l1.9-2l0.9-2.3c1.3-2.8,3.2-5.2,5.6-7.2
	c1.9-1.7,4.2-2.9,6.6-3.6l4.2-0.3l2.2-0.7c3.1-0.6,6.8,2.1,7.7,3.8v0.1h-0.2c-1.4-1-3-1.7-4.6-2.1h-2.7c-1.3-0.2-2.7-0.2-4,0.1
	c-0.8,0.4-1.6,0.9-2.3,1.4c-0.7,0.3-1.5,0-2.2,0.3l-2.4,1.8c-4,3-7.2,6.9-9.3,11.5l-2.2,6.1l-0.4,1.8l-1.4,0.9
	c-1,0.9-1.6,2.1-1.9,3.4c-0.7,3-0.2,7.1,0.4,9.8l0.7,3.1c-0.2,0.6-0.8,0.9-1,1.6c0.6,0.8,1.6,1,2.2,1.8s0.2,2,0.6,2.7l2.2,2.6
	c1.2,1.5,2.1,3.2,3.2,4.8c0.5,0.6,1.7,0.8,2.3,1.3c1.4,1.2,2.5,2.6,3.3,4.3c3.2,0.6,2.4,1.8,4.4,2.9c0.9,0.5,1.8,0.2,2.4,1
	s0.6,1.9,1.3,2.5s2.4,0.3,3.2,1l1.4,1.3c1.7,1,6.2,2,8.7,0.9h0.1c-0.1-1.9-2.2-3.7-3.7-4.3l-2.4-0.5l-2-1.7
	c-1.9-1.2-4.6-1.5-6.7-2.4c-2.8-1.3-4.1-3.7-6.3-5.6l-2.3-1.7c-0.3-0.6-0.3-1-0.5-1.4l-1.4-0.3c-0.4-0.4-0.4-1.6-0.7-2.1l-2.1-2.3
	c0.7-2.3-1.5-3.3-1.9-5c-0.3-1.3,0.8-1.7,0.5-3.2c-0.4-2.4-0.5-4.9-0.9-7.6c0-1.3-0.1-2.6-0.1-3.8c0.6-3.6,0.8-6.9,2.1-9.7
	c0.5-1.1,2.1-1.8,2.5-2.9l0.2-2c0.7-1.8,5.6-6.4,8.1-6.2c-0.3,0.4-0.9,0.5-1.4,0.8c-1.1,0.8-1.8,2.4-3.4,2.7l-1.7,3.6
	c-1.3,1.7-2.4,3.6-3.2,5.6c-0.4,1.1-0.1,2.6-0.6,3.8s-1.3,1.9-1.7,3.2c-0.4,1.7,0.2,3.6,0.4,5.2c0.8,4.5,0.7,9.1,2.5,12.6
	c-0.1,0.7-0.5,0.9-0.7,1.4c0,0.6,0.9,0.4,1.3,0.8s0.6,1.2,0.9,1.8l1.4,1.7c1,1,2,2.1,3,3.1c0.4,0.7,0.8,1.4,1.2,2.1
	c0.4,0.5,1.3,0.2,1.9,0.6l1.3,1.9c1.3,1,3.5,1.1,5,1.8c1.2,0.6,1.9,2.1,3.2,2.7l2.7,0.2l2.7,2l2.9,1.1c1.2,0.7,1.8,1.9,3.3,2.3
	c3.7,1.1,10.3,0.6,13.7-0.3c5-1.3,9.3-2.4,13.3-4.7l9.4-5.5l3.6-1c1.9-1.1,4-2,6.1-2.6c1.8-0.4,3.4,0.4,4.8,0
	c0.2-0.4,0.2-0.6,0.1-1.1c-0.9-0.6-1.6-0.3-3-0.6l-1.4-0.5c-1.2-0.2-4.6,1.6-5.6,1.9l-6.8,3.1l-3.7,1.1c-0.9,0.5-1.2,1.8-2.1,2.4
	l-3,0.9l-5.9,2.9c-4,1.5-9.5,3.4-15.7,2.4l-2.8-0.1c-1-0.4-2-1-2.9-1.7l-6.7-4.2l-4.9-2.5l-2-0.5l-3.7-3.6c-1.6-1.2-3.1-2.6-4.3-4.2
	c-0.2-0.6-0.4-1.2-0.6-1.9c-0.4-0.6-0.9-1.1-1.3-1.7c-0.1-0.5-0.2-1.1-0.3-1.6c-0.3-0.5-1-0.7-1.4-1.2c-0.9-1.3-1-3-1.5-4.8
	c-0.3-0.7-0.6-1.5-0.9-2.2c0.3-0.4,1-1,0.8-1.6c-0.2-0.3-0.8-0.5-1.1-0.7c0.1-0.9,0.4-1.8,0.6-2.8c0.4-2.7-0.7-5.8,0-8.3l1.1-1.9
	c0.7-1.6,1.4-3.2,2-4.8c0.8-2.2,2.4-5.4,5-5.7c-0.2,1-2.2,3-2.8,3.9c-2.1,3-3.5,6.3-4.3,9.9c-0.3,1.5,0.3,5.1,0.6,6.6c0,1,0,2,0.1,3
	c0.4,2.7,0.6,5.4,1.4,7.6c0.4,1,1,2,1.7,2.8l1.1,1c0.5,0.8,0.4,1.7,0.9,2.4c1.4,2.1,4.4,3.4,5.1,6.1c0.9,0.3,1.9,0.7,2.8,1.1
	l3.7,3.4c0.9,0.5,2.4,0.3,3.3,0.9c1.4,0.8,2.2,2,4,2.4l6.5,0.1c1.3,0.2,2.8,0.9,4.3,0.6c5.5-1,11.7-2.4,15.6-5.2
	c1.1-0.9,2.1-1.9,3-3l2.4-1.3c2.7-2.1,4.2-5.3,4.9-9.4c0.5-3.1,0.4-6.2-0.3-9.2c-0.4-0.5-0.8-1-1.2-1.6l-0.4-3.2
	c-0.6-1-1.2-1.9-1.7-2.9c-0.5-2-1.1-3.9-1.6-5.8c-0.6-1.9-2.2-2.7-2.1-5.1l0.1-0.2l0.4-0.1c2.7,2.9,3.3,7.9,5,11.8
	c1.5,3.3,4.8,12.4,3.5,17.5c-0.6,1.7-1.3,3.4-2.1,5.1c-0.3,1-0.6,2-0.9,3c-0.8,1.3-3,2-4.3,2.9c-3.6,2.6-7.4,4.7-11.5,6.4
	c-0.8,0.4-1.6,0.7-2.4,1c-1,0.2-1.7-0.5-2.8-0.3c-1.7,0.4-3.6,1.8-5.8,1.4c-2.1-0.4-3.6-1.4-6.1-1l-0.2,0.6
	c2.1,2.2,8.2,2.2,11.6,1.1l2.7-0.8c1,0,1.9-0.1,2.9-0.3l3.6-1.8c2.5-0.8,4.9-1.8,7.1-3c1.1-0.6,2-1.9,3.1-2.4
	c0.5-0.2,0.9-0.2,1.3-0.4c0.7-0.5,1.1-1.4,2-1.6s1.8,0.1,2.7-0.2c1.4-0.6,2.4-1.8,4-2.3c0.9-0.3,1.7,0.3,2.5-0.1l1.7-1.2
	c1.5-0.6,3,0.6,3.7-0.8c-0.6-1.9-2.3-1.7-3.3-3.1l-0.9-2.9c-0.6-1.1-1.3-2.1-2-3.1c-1.2-2.1-0.8-4.4-3.1-5.5h-0.4
	c-0.7,0.5,0,3.3,0.3,4c0.8,2.2,1.7,4.3,2.9,6.3c0.6,1,1.6,2.1,1.9,3.3c-0.9,0.4-1.7,1.2-2.8,1.3c0-0.6,0.1-1.2,0.3-1.8
	c0.2-1.1,0-2.3-0.4-3.4c-0.3-0.2-0.3-0.4-0.9-0.4c-1.8,1.8-0.4,3.7-1.4,6c-0.3,0.6-1,1.1-1.6,1.5c-0.5,0.5-1.2,0.8-1.9,0.9
	c0-0.1,0-0.1-0.1-0.1c0.5-0.5,1-1.1,1.4-1.8c0.6-1.5,0.7-3.2,1.2-4.8c0.4-1.2,1.4-2.3,1.1-4.1c-0.5-1.5-1-2.9-1.4-4.4
	c-0.4-2.1,0-4.3-0.6-6.1c-1.6-5.3-4.1-9.7-6.4-14.3c-0.6-1.6-1.1-3.2-1.5-4.9c-0.5-0.4-1.2-0.6-1.9-0.4c-0.7,0.4-0.1,1.3-0.3,2
	c-0.1,0.1,0,0-0.2,0.1c-1.4-1.2-1.4-4.1-2.2-6c-0.5-1.2-1.6-1.5-2.2-2.4c-0.3-0.5-0.1-1.2-0.4-1.9l-2.2-3.8c0.2-0.1,0.1-0.1,0.4-0.2
	c1.1,1,2.1,2.1,2.9,3.3c0.7,1.5,1.4,3,2.1,4.5c1.2,1.8,3.3,2.9,4.6,4.7c0.8,1.1,1.5,2.2,2.1,3.5c0.3,0.8,0.2,1.8,0.6,2.5
	c0.7,1.1,1.8,1.9,2.4,3.2c1.3,2.9,1.2,6.4,2.7,8.9c1.9,3.1,4.4,5.7,6.4,8.9l3.8,6.6l1.8,2.1c0.9,1.2,2.3,3,4.5,1.9l0.2-0.1
	c-0.3-1.1-2-1.9-2.7-2.7v-0.3C143.4,148.1,143.7,150.3,145.1,149.8z M40.9,161.7c1.2,1.6,3.4,2.6,5,3.9l4,4.1c0.9,0.7,2,0.8,3,1.5
	l2.1,2.4l5.4,3.7l1.6,1.5c0.4,0.3,1.1,0.2,1.7,0.4c1.7,0.5,3.1,1.5,4.2,2.9l0.1,0.1v0.1c-1.3,0.6-2.2-1.1-3.2-1.5
	c-2.5-1.1-4.6-1.7-6.6-3.2c-1.3-0.9-2.3-2.6-3.6-3.3l-2.1-0.5l-1.4-1.8l-3.7-3.2c-2.5-1.8-5.9-3.4-7.7-5.9l-2.8-5
	c-0.7-1.2-2.1-2-2.5-3.3c-0.7-2.2,0.5-9.9,1.1-11.5l0.4,0.1c0.7,3.2-1.1,6.1-0.4,8.9c0.5,1.2,1.1,2.4,2,3.5
	C38.7,157.6,39.5,159.8,40.9,161.7z M47.5,116.7l-0.2,1.4c-0.3,1.1-1,2.1-2,2.7c-0.4-0.6,0.3-1.8,0.5-2.4c0.8-2.2,2.3-4.1,4.2-5.5
	l0.2,0.1C50,115.4,48.1,115.5,47.5,116.7z M72.2,115.2c0-0.1,0-0.2-0.1-0.3c0.5-1.2,1.5-2.1,2.6-2.7l0.9,0.1c0.1,0,0.2,0.1,0.2,0.2
	C75.3,114.1,73.8,115.2,72.2,115.2z M79.5,113.1c-0.4-0.3-0.4-0.9-0.9-1.2c-0.7-0.5-1.6,0.2-2.3,0.3c-0.5-0.7,0.4-1.3,0.9-1.7
	c1.4,0,2.8,0.4,4,1.2C81.2,112.8,80.5,113.8,79.5,113.1z M84.4,96.5l-3.2-0.3c-1.3-0.3-2.7-1.6-4.7-1.2c-1,0.4-2,0.8-3,1.4l-2.3,0.7
	l-2.5,0.1c-1.4,0.5-2.3,1.9-3.5,2.7l-3.5,1.8c-1.1,0.8-1.2,2.1-2,3.2l-4,4l-1.7,2.4c-0.6-0.6-0.7-1.3-1.4-1.8v-0.3l1.7-0.8
	c1.2-0.8,2.7-3.8,3.7-5c2-2.5,4.4-4.6,7.1-6.4c0.8-0.5,1.8-0.4,2.7-0.8l4.3-2.2l3.2-0.7c2.3,0,7.3,0,9,0.7l3.3,2.1
	c0.4,0.2,3,0.8,3,0.9c0.2,0.4,0.4,0.7,0.7,1.1l1.9,2l2.2,1.9c1.5,2.2,2.6,7.1,3.5,9.9c0.7,2.2,1.9,4.2,2.4,6.6l-0.2,4.4
	c0.5,2.9,2.7,9.1,1,11.9c-1.4,2.4-4.6,2.5-7.6,3.3l-2.2,0.8c-1.5,0.2-3.1,0-4.5-0.6c-5-1.7-8.2-4.1-9.5-9.4c-0.4-1.7-1-5.6-0.1-7.5
	h0.2c1,2.1,0.6,5.4,1.4,7.8c0.8,2.7,3,4.1,4.7,5.8l1.3,1.5c0.5,0.4,4.8,0.6,5.7,0.4l1.7-0.7c3.5,2,7.4-2.5,8.1-5.6
	c0.2-1.5,0-3-0.6-4.3l-0.3-0.2c-1.9,1.3-0.8,6-2.5,7.1l-0.9,0.1c-1.6,0.4-3.4,1.2-4.1-0.6c-1-0.7-3.6-0.1-4.9-0.4
	c-3.8-1-6.8-3.2-6.8-8c-0.1-1.1,0.1-2.2,0.6-3.2c0.3-0.5,0.9-0.4,1.6-0.6c3.1-0.6,4.9,1,6.2,2.4v0.1c-1,1-3.6-1.2-4.6-1.4
	c-0.7-0.1-1.4,0-2.1,0.3c-0.2,0.2-0.3,0.4-0.3,0.7c1.7,1.8,8.2,6.2,9.6,1c0.8-2.9-1.7-5.8-2-8.2v-0.1l0.4-0.2
	c3.6,1.8,2.3,6.8,2.2,11.3c-0.9,1.2-1.1,0.8-1.8,2.4c0,0.1,0,0.1-0.1,0.2h-0.2c-0.7-0.6-0.8-1.8-1.8-2.1c-1.3-0.4-2.5,0.2-3.5-0.4
	s-1.8-2.6-3.5-1.8c-0.4,2.1,1.9,3.1,2.8,4.3l0.5,0.8c2.1,0.5,4.2,0.8,6.3,0.9c1.1-0.4,3-2.8,3.3-3.9c0-0.7,0-1.4,0.1-2.2
	c0.7-4.1,0.8-10.8-0.9-13.7c-1.1-2-3.7-3-3.8-5.8c1.5-0.6,3.6,1.1,3.8,2.2c0.2,0.7-0.1,1.3,0.2,1.9c0.7,1.2,1.6,2.1,2,3.7
	c0.1,2.1,0.3,4.2,0.4,6.3c0.2,1.1,0.9,2.5,0.7,3.9c-0.6,2.6-1.5,5.1-2.6,7.5c-0.3,0.7-0.9,1.2-1,2.2c3.4,1.3,3.5-3.6,4.2-5.8
	l1.4-2.6c0.2-1.5,0.2-3-0.1-4.5c-0.3-1.7-0.1-3-0.5-4.5c-0.5-1.9-1.2-3.7-1.7-5.4c-0.4-1.8-1.1-3.6-1.9-5.3
	c-0.9-0.9-1.7-1.8-2.6-2.7l-2.3-3l-1.1-0.3C87.7,97.8,86.1,97.1,84.4,96.5z M86.9,134.2v-0.3l0.4-0.1c1.2,0.3,2.4,0.4,3.7,0.5
	l0.1,0.4C89.7,135.4,88,135.2,86.9,134.2z M85.3,108.4c1.5,0.2,6,2.2,5.6,3.8c-0.2,0.4-0.5,0.8-0.9,1c-1.8-1.2-3.4-2.6-4.8-4.2
	C85.2,108.7,85.2,108.5,85.3,108.4z M86,114.4c1,0.5,1.7,0.3,2.1,1.3c-0.1,0.1-0.2,0.2-0.2,0.4c-1-0.4-4.7-2.3-4.9-3.2
	c0.2-0.2,0.4-0.3,0.6-0.5C84.8,112.2,85.9,113.1,86,114.4L86,114.4z M72.2,107c0.8-0.3,1.3,0.5,1.9,0.7c0.9-0.5,1.5-1.8,2.6-2.5
	c2.9,0,4.3,1,6.2,1.9c0.2,0.3,0.3,0.3,0.4,0.7l-0.3,0.1c-1.9,0.7-2.8-1.8-5-1.3c-1.6,0.3-2.5,1.5-3.8,2.1l-3.2,0.2
	C71,108.1,71.5,107.4,72.2,107z M56.8,143.3c-2.6-1.6-2.5-12.8-0.9-15.7c0.4,0.1,0.4,0.2,0.7,0.4c-1.9,4.5-0.1,10.3,0.4,15.1
	L56.8,143.3z M84.3,169.7v0.3c-1.7,0.5-5-2.3-6.4-2.9c-0.7-0.3-2-0.6-1.9-1.4C79.8,166.1,82,167.9,84.3,169.7z"/>
<path class="st0" d="M50.3,88.5l-2.9,2.1c-1.8,1-3.4,1.9-5,2.9l-2.4,1c-2,1.2-2,2.3-5,2c-3.4,3.3-7.3,6.1-10.3,9.8l-14.3,17l-3.3,3
	c-0.8,1.1-1.2,2.5-2,3.5s-2.6,2.5-2,4.8l0.3,0.4h0.3c0.7-0.4,0.9-1.4,1.5-1.8c0.9-0.6,1.9-0.8,2.4-1.7c0.6-1.1,0.8-2.5,1.5-3.5
	c1.5-2.1,3.9-3.3,5.4-5.3c0.8-1,0.9-2.8,1.7-3.9c1-1.1,2.1-2.1,3.4-3c2.3-2.1,4.4-4.4,6.2-6.8c2.1-2.8,5.5-9.4,9.3-10.1
	c-0.2,1.2-2.8,3.9-3.7,4.5l-2,1.4c-0.2,0.8-0.4,1.5-0.6,2.3c-1.9,3.2-5,5.9-7.3,8.8c-1.9,2.4-3.8,4.7-5.7,7.1l-2.3,3.6l-2.4,2.2
	c-0.9,1.1-1.8,2.4-2.5,3.6c-1.3,2.1-2.6,4.3-3.9,6.4c-0.7,0.9-2.5,1.1-2.2,2.7l0.4,0.2c2.8-1,3.3-2.7,4.9-4.8l3.6-3.2
	c1.1-1.9,2.2-3.8,3.2-5.6c0.7-0.9,2-1.3,2.6-2.2s0.5-2.1,1-2.8l4.5-4.5c0.7-0.9,0.9-1.9,1.5-2.9s2.3-1.7,3-2.7
	c1.7-2.3,2.9-5,4.7-7.2l5.5-5.3c0.7-1.1,1.5-2.2,2.4-3.3l3.1-1.7l3.7-3.5c0.8-0.3,1.6-0.6,2.4-0.8c1-0.5,1.9-1.2,2.6-2
	C51.7,88.7,51.1,88.5,50.3,88.5z"/>
<path class="st0" d="M112.9,128.4c-0.7-3.5-1.6-7.2-2.4-10.4c-1.6-6.4-4.4-12.4-8.2-17.8c-0.9-1.2-2.5-1.7-3.4-2.8
	c-2-2.5-2.3-3.9-5.3-5.6c-1.5-0.8-3.3-1.3-5-1.2l-2,0.2l-3.2-1.4c-3.1-0.7-6.2-1-9.4-0.8l-4.2,0.8l-5.6,2.1c-3.2,1.3-6,3.8-8.7,5.8
	s-5.5,3.7-8,5.8c-1.8,1.4-2.9,3.5-4.2,5.4l-4.4,5.9c-1.5,2.1-3.5,3.8-4.9,6.1l-2.5,5c-0.5,0.9-1.5,1.3-2.1,2.1l-2,3.6l-1.7,1.5
	c-0.6,1.4-1.2,2.7-1.9,4c-2,3.1-4.2,6-6.6,8.8c-1.6,2-4.6,6-7.3,6.7c-0.3,0.8-0.7,1.6-1.1,2.4c-1.2,1.4-3.2,1.8-4,3.5v0.4l0.5,0.1
	h0.2l1.7-1.1c0.9-0.3,2.3,0,3-0.4l0.2-0.1c0.5-0.4,0.5-0.9,0.4-1.6l1.6-0.6l2.4-3.3c5.5-4.5,8.8-10.8,12.6-17
	c1.5-2.4,3.5-4.5,4.9-6.8c0.4-1.2,0.9-2.4,1.3-3.5c0.6-1,1.4-1.8,2.3-2.6l1.3-0.9c0.3-0.7,0.5-1.4,0.8-2.1c0.5-0.9,1.9-1.6,2.5-2.5
	c2.1-2.8,3.5-6.3,5.6-9c1.2-1.6,3.2-1.9,4.3-3.2c0.6-0.6,0.8-1.6,1.4-2.1c1.3-0.9,3.4-0.9,4.6-1.8l1.7-2c0.5-0.4,1.4-0.4,2-0.8
	l1.6-1.8c1.1-0.9,2.2-1.6,3.5-2.2C71.7,90,81.8,90,89,92.1c1.2,0.3,5,1.9,5.6,2.7c0.4,1,1,1.9,1.6,2.7c1.1,1.2,2.7,1.8,3.4,3.4
	s0.2,3.8,0.8,5.3l1.5,2.2c0.2,1,0.4,2,0.7,3c1.4,3.5,2.4,7.1,3.2,10.7c0,1.5,0,3,0.1,4.5c0.6,3.4,1.6,8.1-0.4,10.8
	c-1.1,1.5-3.2,1.8-5,2.5c-1.5,0.6-2.5,1.9-3.9,2.4c-1.2,0.5-2.7,0-4,0.2l-2.3,0.6l-1.2-0.7l-5.3-1.4c-1.4-0.6-1-2.9-4-3.2
	c-1,2.1,1.8,3.4,2.9,4c2.6,1.6,4.1,5.3,7.9,2.1l1.3,0.6l2.2-0.4c1.9-0.4,3.8,0.5,5.5-0.1s2.8-1.9,4.1-2.8c1.1-0.7,2.9-0.7,3.6-1.9
	c1.6-2.6,0.6-5.4,1.2-9c0.4-1.9,0.5-3.9,0.4-5.8l-1.8-5.3c-0.4-2.3-0.8-4.6-1.2-6.9c-0.7-2-2.5-3.1-2.5-5.6l0.3-0.1
	c1.9,1.4,2.7,4.2,3.5,6.6l1.8,6.1c0.5,1.2,0.9,2.3,1.4,3.5c0.3,1.3-0.2,2.6,0.1,4.1c0.6,4.2,0.3,10.1-1.4,12.7
	c-0.6,0.9-1.4,1.6-2.3,2.2l-1.7,0.5c-0.6,0.5-1.1,1.2-1.8,1.7l-4.8,1.6l-1.2,0.6c-0.6,0.2-0.9-0.2-1.2-0.3l-3.5,0.4
	c-0.9-0.2-1.8-0.4-2.7-0.5l-0.7,0.6c0,0.1,0,0.2,0.1,0.4c0.9,1.3,4.7,1.3,6.8,1.7c3.2,0.5,4.2-0.9,6-1.5l3-0.3
	c2.2-0.7,4.1-2.2,5.3-4.2c1.1-1.8,1.5-4.2,1.9-6.7l0.2-3C112.6,131.6,113.2,130,112.9,128.4z"/>
<path class="st0" d="M16.9,94.3l-3.3,2.4c-2.3,1.8-4.2,4.7-7.2,5.6c-0.2,0.7-0.4,1.4-0.5,2.1c-2.1,0.4-3.6,1.4-3.5,3.9l0.1,0.2
	c2.2-0.2,2.8-2.2,4.2-3.2c0.6-0.4,1.2-0.3,2-0.7l2.5-2.7l4.4-3.9l2.5-2.8v-0.3C17.8,94.5,17.4,94.3,16.9,94.3z"/>
<path class="st0" d="M57.7,181.2l-2.7-2.2l-3.8-1.4c-2.2-1.4-2.8-4.2-4.8-5.7l-1.5-0.6l-3.2-2L36,165c-0.7-0.3-1.5,0-2.4-0.4l-0.9-1
	c-1.7-1.3-3.5-1.6-3.3-4.7l0.1-0.1h0.2c1.4,1.7,2.2,4.8,5,5l0.7-0.7c-0.5-3.1-4.5-4.4-5.1-7.9c-0.2-1.4,0.6-4.8,0.9-6.1
	c0.9-3.4,1.3-7,2.6-10c0.7-1.6,1.8-2.9,2.5-4.7l2-6.1c0.5-1.2,1.6-2.1,1.9-3.2c0-0.4,0-0.7-0.1-1.1c0-0.7,0.2-1.4,0.6-1.9
	c1.6-2.9,2.9-6.3,4.8-9.1c0.6-0.9,1.8-1.2,2.3-2c0.8-1.2,0.3-2.2,1.5-3.1c1.5-1.2,5.8-3.8,5.5-6.1c-0.4-0.2-0.9-0.3-1.4-0.3
	l-3.8,4.4c-0.8,0.8-2.5,1.6-3.2,2.4c-2.4,2.8-3.7,6.6-6,9.5c-0.8,1-2.6,2.1-3.2,3.1c-0.2,0.5-0.4,1-0.7,1.5c-0.7,0.9-1.4,1.8-2,2.8
	c-0.1,0.5-0.2,0.9-0.3,1.4l-1.9,1.9c-0.2,0.5,0,1-0.3,1.4c-0.5,0.8-1.5,1.2-1.9,2.2c-0.4,1.2-0.3,1.9-0.9,2.7l-5.3,6.4
	c-1.2,1.7-1.4,4.6-2.6,6.3c-3.2,4.3-7,8.1-11.2,11.4c-1.5,1.1-3.4,1.4-4.4,3.1c0.8,1.4,2.1,0.4,3.3-0.1c1.5-0.7,2.9-1.6,4.2-2.7
	l2.5-2.6c0.6-0.3,1.2,0.3,1.7-0.1c0.6-0.6,1.1-1.3,1.4-2.1c0.1-0.4,0.1-0.7,0.2-1.1c0.8-1,2.1-1.6,3-2.8c1.9-2.7,3-6.2,4.8-9.1
	c1.5-2.4,3.9-4.3,5-6.9l0.7-2.6c0.5-0.7,0.9-1.4,1.4-2.1c1.1-1.8,1.7-5.2,3.8-6l0.2,0.1c-1.6,3.7-3.4,7.1-4.8,10.8
	c-0.8,2.7-1.6,5.5-2.4,8.2l-2.5,6.3c-0.3,1.3-0.4,2.7-0.1,4c0.2,0.9,0.9,2.6,0.5,3.8c-0.3,0.5-0.7,0.9-1,1.4s-0.2,0.7-0.8,0.9
	c-0.5-1.7,1.3-3.7,0.4-5.3l-0.1-0.2c-2.3,0.5-2.7,3.3-2.7,5.8c-0.7,0.4-1.9,0.6-2.7,1.1l-0.8,1.2c-0.9,1-2,1.8-3.2,2.4
	c-2.1,1.2-4.6,1.7-5.9,3.7v0.3c1.1,0.5,3.3-0.4,4.2-0.7c3.3-1.4,5.9-3.9,9.3-4.8c0.5-1,0.3-2.4,1.5-2.7l0.2,0.1c0,0.8,0,1.5-0.1,2.2
	c1.3,1.6,2.9,2.9,4.7,3.8c0.8,0.2,1.6,0,2.2,0.4l1.4,1.8c0.8,0.5,2,0.3,2.5,1s0.9,1.9,1.8,2.4s2.3,0.6,3.4,1.1l1.3,1.1v0.4
	c-3.3-0.1-4.8-2.4-6.8-4l-2.6-1.1c-2.1-1.2-3.9-2.9-6.2-3.8c-4-1.5-8-0.3-9.6,2.4v0.1c0.9,0.5,8.1,0.8,9.8,0.8
	c0.7,0.7,1.4,1.3,2.1,1.9l4.2,1.7l3.4,2.5c0.7,0.4,1.5,0.1,2.3,0.4l1.5,1.2l4.6,1.7c1.7,0.7,4.4,3.5,6.2,3.2
	c2.7-0.4,3.7,3.4,6.4,2.6c0.3-0.1,0.5-0.4,0.6-0.6C60.5,181.7,58.9,181.8,57.7,181.2z"/>
<path class="st0" d="M28.3,145.4c0.4-1.6,3-3.6,2.5-6l-0.3-0.4l-0.6-0.1c-1.4,1.8-2,4.3-3.1,6.4c-1.7,3.6-3.6,6.6-5.1,10.3
	c-0.3,0.4-0.8,0.4-1.2,0.6l-2.1,2.6l-2.7,1.2c-0.6,0.7-1.2,1.3-1.9,2c-0.8,0.4-1.9-0.1-2.9,0.5c-1.7,1-2.8,2.7-4.3,3.8v0.2
	c2.2,1,5.9-2.4,7.5-3.1c4.2-1.8,8.6-4.1,10.6-8l0.7-3.4c0.7-1.5,2.3-2.5,3-4.1C28.6,147.2,28.1,146.2,28.3,145.4z"/>
<path class="st0" d="M138.7,156.8l-3.8,1.1c-2.1,0.8-4.1,1.9-6.2,2.9c-2.6,1.2-4.6,3.1-6.9,4.5c-0.8,0.5-1.7,0.2-2.7,0.6l-3.2,1.8
	c-3,1.3-6.1,2.4-9.2,3.2c-3.1,0.8-8.8,1.5-12.6,0.9c-1.1-0.2-3.3-1.5-4-1.2l-0.2,0.1c0.3,4.1,12.3,2.3,15.4,1.6
	c3.9-0.9,9.2-1.4,12.9-2.8c2.6-1,4.5-2.9,6.7-4.3c1.4-0.9,3.2-1,4.9-1.7c1.4-0.6,2.1-1.9,3.2-2.6c1.2-0.8,2.6-1.3,4-1.6
	c1.6-0.3,3.4,0.2,4-1c0-0.2,0.1-0.4,0.1-0.6C140.4,156.9,139.5,156.6,138.7,156.8z"/>
<path class="st0" d="M143.1,159.2l-2.5,0.4c-1.7,0.8-3.5,1.6-5.3,2.2l-2.2,0.2l-0.8,0.7c-0.6,0.4-1.3,0.3-1.9,0.7s-1.1,1.1-2,1.4
	c-2.6,1.1-3.7,1-5.3,3.2v0.1c1,0.8,4.3-0.6,5-0.9l4.1-2.2l2.7-0.6c0.7-0.5,1-1.2,1.9-1.6c2.9-1.1,5.7-0.9,7.1-3.5
	C143.5,159.2,143.3,159.2,143.1,159.2z"/>
<path class="st0" d="M100.2,189.9l-3.8,0.1l-1.8,0.4l-2.4-0.6l-3.1-0.3l-3.9,0.1c-2.2,0.3-4.4,0.3-6.6-0.1
	c-4.9-0.8-8.1-2.3-12.7-3.5l-5.3-0.9c-1.1-0.2-2.1,0.1-3-0.3l-1.7-1.1c-0.6-0.3-1.2-0.1-2-0.3l-1.5-1.1l-3.3-1.5l-3.2-2.2
	c-1.4-0.5-2.7-0.6-3.9-1.1c-4.3-1.9-8-4.3-12.6-6.1c-1.7-0.8-3.5-1.2-5.4-1.3c-1.6,1.4-4.3,0.1-6.6,0.4c-2.6,0.3-5.1,1.2-7.3,2.5
	v0.3c1-0.1,2,0.2,2.9,0.7c4.4-1.9,9.7-1.2,14.4-0.1l2.9,0.5l2.6,2.1c1.7,0.8,4,0.6,5.6,1.5s2.7,2.3,4.4,3c0.7,0.3,1.5,0,2.2,0.1
	l4.2,2.5l1.6,0.1l1.3,1l3.2,0.6l2.5,1.3l2.8,0.4l5.2,1.7l3.5,0.2l4.1,1.2l2-0.1c1.3,0.3,1.9,1.5,3.3,1.8c1.1,0.2,2.3,0.2,3.5-0.1
	c0.6-0.2,1.3-0.9,1.9-0.9l3.7,0.9c2.5,0.3,5,0.3,7.5-0.1c1.1-0.2,2.1,0.5,3.4,0.3c1.6-0.3,3-0.6,4.3-0.9s5,0,5.2-0.9
	C107.1,188.1,102.2,189.5,100.2,189.9z"/>
<path class="st0" d="M140.2,172.1l-3.5,1.5c-2.5,0.7-3.2-0.1-4.8,1.7v0.3c2.5,1.3,4.7-1.5,6.6-2c1.5-0.4,2.3,0,2.9-1.2
	C141.1,172.2,140.7,172,140.2,172.1z"/>
<path class="st0" d="M76.8,192.6l-1.5,0.1l-1.2-0.9c-1.4-0.7-3-0.8-4.5-0.4c-0.8-0.5-1.6-0.9-2.4-1.1l-6.2-0.7
	c-1.5-0.4-2.2-1.6-3.5-2.1l-4.7-0.9l-4.5-2.5c-1.4-0.5-3.3-0.3-4.4-1.1s-1.8-2-3.1-2.4l-5.5-1.1c-1.7-0.7-2.6-2.4-4.5-2.8l-4.4-0.4
	c-2.6-0.6-3.1-2.3-6.9-2.2l-2.7,0.6c-1.1,0.5-2.1,1.1-3,1.9c0.1,0.4,0.3,0.7,0.7,0.9c0.9,0.3,1.8-0.7,2.5-0.9
	c0.3-0.1,4.5,0.6,5.2,0.8c1.4,0.3,2.2,1.4,3.5,1.7s2.4-0.2,3.5,0.2c2.7,1.2,3.3,3.4,7,2.3c1.5,0.9,3.4,1.6,5,2.5l2.2,1.7l2.4,0.4
	l6,2.1c3,1.1,6,2.8,9.2,3.6c1,0.2,2-0.3,2.7-0.2c0.7,0.1,2.1,1.4,3.2,1.8s2.8-0.3,3.3-0.1c1.7,0.5,2.2,2.1,4.6,1
	c1.3,1.2,6.1,2.2,7-0.1C80.9,193,78.5,192.9,76.8,192.6z"/>
<path class="st0" d="M71.7,195.9l-3-1.1l-3.1-0.2l-1.4-0.7l-1.8-0.1l-2-1.4c-1.8-0.9-4.3-0.9-6.3-1.7c-0.8-0.3-1.5-1.1-2.2-1.4
	c-1.2-0.4-2.2-0.3-3.2-0.7l-4.9-2.4l-8.2-2.9l-5.4-2.4l-5.1-1.1c-2.3-0.7-4.6-1.1-7-1.1l-2.2,0.4l-0.2,0.4c0.2,0.4,0.4,0.9,0.6,1.4
	c2.1,0.6,4.5,0.4,6.4,0.9l9.4,3.2l6.1,1.6c0.8,0.6,1.7,1.3,2.5,1.9c1.4,0.6,2.9,0.5,4.5,0.9l4.3,1.6c3.4,1.5,7.5,2.1,11.5,3.3
	c1.7,0.6,2.4,1.9,4.3,1.4l2,1.2c1.6,0.7,6.6,1.6,8.7,0.6l0.2-0.1C75.9,195.2,73.6,196.4,71.7,195.9z"/>
<path class="st0" d="M69.4,198.7c-1.2-0.2-2.3-0.5-3.5-0.9l-1.4-0.9l-1.3,0.1l-2.5-0.4l-0.8,0.2l-3-2l-2.5-0.1
	c-0.8-0.5-1.5-1-2.2-1.4c-0.8-0.3-2.2,0-3.1-0.4l-6.6-3.1c-1.1-0.4-2.5,0-3.5-0.4l-4-2.4c-1.5-0.7-4-0.5-5.5-0.9
	c-3.8-1.1-6.8-2.7-12-2.6l-1.4,0.3c-0.2,0.1-0.2,0.1-0.3,0.3c0.8,1.1,2.2,1.4,3.9,1c1.3,1,1.9,0.3,3.2,0.9c0.7,0.3,1.1,1.1,2,1.4
	l3.6,0.4c0.9,0.4,1.5,1.3,2.5,1.5l2.8,0.1l4.5,2.2c0.9,0.4,2.5,0.2,3.5,0.6c0.7,0.3,1.2,1.1,2,1.4c1.9,0.8,4.3,0.6,6.3,1.2
	c1.1,0.3,1.6,1.4,2.6,1.7s1.7-0.3,2.6,0c3,0.9,3.6,2.8,7.6,1.9c0.8-0.2,2.7,1.5,3.5,1.8s1.6-0.1,2.4,0.1l1.4,0.9
	c1.8,0.7,3.8,0.8,5.6,0.2l0.2-0.3C75.3,199.6,71.6,199.1,69.4,198.7z"/>
<path class="st0" d="M136.8,184.8c-0.7,0.3-1.5,0.4-2.3,0.5c-2.9,0.7-5.9,0.7-9.2,1.4l-3.8,0.7l-2.4,0.9c-1.3,0.2-2.4-0.2-3.6,0.1
	l-4.1,1.9c-1.2,0.5-2.6,0.4-3.5,1c-0.1,0.3-0.2,0.6-0.2,0.9c1.2,1.5,2.8,0,4.2-0.4l1.2-0.1l1.2-0.9c2-0.9,5.2-1,7.5-1.3
	c1-0.1,2.2,0.4,3.4,0.2c2.6-0.5,5-1.3,7.4-2.4c1.5-0.6,3.8-0.7,4.5-2.1V185L136.8,184.8z"/>
<path class="st0" d="M77.9,208.9v-0.4c-2.3-1.8-6.3-0.6-9.9-1.2l-3-0.6v-0.4c0.5-0.6,1.9-0.8,3-0.6l2.7,0.6c0.8,0.1,1.6-0.4,2-0.3
	l0.7,0.5c0.8,0.4,1.5-0.3,2.1-0.5c0.9-0.3,1.8-0.2,2-1.2l-0.6-0.6l-2.2-0.1c-0.9-0.2-1.5-1.1-2.6-0.9c-1.3,0.2-2.6,1.1-4.1,0.9
	c-1-0.2-1.7-0.8-2.8-0.9h-3.2c-3.2,0-4.6-0.6-6.3-1.9v-0.3c3.3-0.6,5.8,2.6,8.7,1c1,0.6,3.1,1.9,4,0.3c-1.3-2-8.8-2.7-11.5-3.6
	l-6.2-2.1l-2.5-0.5l-2.2-1.6c-0.8-0.3-1.9,0.3-2.8,0c-3.2-1-6.3-2.8-9.3-4l-2.7-0.4c-0.8-0.5-1.6-0.8-2.5-1.2l-4.6-0.7
	c-1.8-0.5-3.2-2-5.5-1.4l-0.1,0.1c0.2,1.8,2.3,1.9,3.6,2.6l2,1.3h1.5l1.9,1c2.5,0.9,5.4,1,7.7,2l2.2,1.5v0.3l-0.1,0.1l-8.9-2l-6.3-2
	c0,0.1-0.1,0.2-0.1,0.3c1.6,3.4,7.7,4.4,11.7,5.3c2.5,0.6,5.9,0.9,6.7,3v0.1c-1.8,0.3-3.5-1.6-5.3-1.9l-1.2,0.8
	c-1.1,0.3-6.8-2.4-8.9-2.5c0,0-0.1,0.1-0.1,0.1c2,4.3,5.2,2.7,9.8,4c1.2,0.3,1.8,1.3,3.1,1.6c2.3,0.5,5.3-0.3,6.3,1.6
	c0.2,0.6-0.4,1.1-0.2,1.9c0.5,1.1,2.1,1.7,3.4,2.1c0.1,0.6,0.2,1.2,0.1,1.8c0.7,0.4,1.3,0.9,1.8,1.6c0.5,0.9,0.7,3,1.6,3.5
	c0.7,0.4,1.7,0.1,2.7,0.2c1.8,0.3,4,1.2,5.7,0.1v-0.3c-2.2-0.8-6,0.4-5.9-2.7l0.4-0.2c1.9,0.6,4.5,0.2,6.1,0.9
	c1.7-0.5,3.4-0.9,5.1-1c1.3,1.1,3.1,1.2,3.4-1v-0.1c-0.8-0.3-1.6-0.5-2.4-0.4c-3.4,0-5.7,0.2-7.1-2c0-0.1,0-0.2,0.1-0.3
	c3.1-0.6,4.6,1.3,6.6,1.8c0.4,0.1,2.1-1.1,2.9-1.2c2.5-0.5,4,0.8,5.5,1.4l0.3,0.4c-0.6,0.6-2.8-0.1-4-0.1c-0.2,0.2-0.4,0.3-0.6,0.6
	c-0.4,1.1,1.4,1.8,1.9,2.2v0.2l-1.2,0.9h-0.4c-0.4-0.5-1.2-1.5-2.2-0.9s-0.4,1.9-0.5,2.9l-1.4,0.7c0,0.1,0,0.1-0.1,0.2
	c0,0,0.1,0.1,0.1,0.1c2.1,0.5,4.4,0.8,6.6,0.9c0-1.3,0.7-3.7,2.1-2.9l0.2,0.1c-0.1,0.7-0.7,0.8-1,1.4c0,0.1,0,0.1-0.1,0.2l0.4,0.4
	c0.8,0.3,1.7,0,2.3-0.6c-1.1-2,0.2-4.2,1.7-5.3v-0.3c-0.6-0.3-1.3-0.3-1.7-0.9V210C76.5,209.5,77.5,209.2,77.9,208.9z M50,198.9
	c1.9-0.1,4,0.3,4.2,1.9c-1.8,0.4-3.4-0.8-4.3-1.5C50,199.1,50,199,50,198.9z M40.1,196.3c3.2,0.2,5.5,0.5,7.4,2v0.3l-0.1,0.1
	c-2.1-0.9-5-1.2-7.1-1.8C40.1,196.5,40.1,196.7,40.1,196.3L40.1,196.3z M46.9,205.7c-0.5,0-1-0.3-1.3-0.8v-0.4c0.5,0,1,0.2,1.4,0.6
	c0,0.1,0,0.2,0.1,0.4L46.9,205.7z M51.9,212.4l-0.2,0.1c-0.5,0-0.9-0.3-1.1-0.7l0.3-0.4c0.5,0,1,0.2,1.2,0.7L51.9,212.4z M52,209.8
	c-0.1,0.2,0,0.1-0.3,0.2c-0.5,0.1-1-0.1-1.3-0.5c0.1-0.6,0.2-0.6,0.6-0.9h0.4c0.3,0.2,0.6,0.5,0.7,0.8
	C52.1,209.5,52.1,209.6,52,209.8L52,209.8z M47.4,201.9h-1.5c-1,0-1.9-0.5-2.5-1.2c0-0.1,0-0.2,0.1-0.4l6.3,2.1l4.5,1.1l0.2,0.1v0.1
	C51.6,205.7,49.4,202.5,47.4,201.9L47.4,201.9z M55.3,210.3c-0.2,0.4-0.8,0.6-0.9,0l0.3-0.5H55c0.1,0.1,0.2,0.2,0.4,0.3
	C55.4,210.1,55.4,210.2,55.3,210.3L55.3,210.3z M53.3,207l0.3-0.3c1-0.1,2.1,0.1,3,0.6l0.1,0.2C55.8,208.8,53.7,208,53.3,207z
	 M58.6,205.6c-0.6,0.2-1.3,0-1.7-0.6c0.1-0.3,0.1-0.2,0.2-0.4c1,0,1.3,0.1,1.7,0.7C58.7,205.5,58.7,205.6,58.6,205.6L58.6,205.6z
	 M61.4,206.3c0-0.1,0-0.3-0.1-0.4l0.3-0.1c0.7-0.1,1.5,0,2.2,0.4c0.2,0.2,0.2,0.1,0.2,0.5C63.1,206.9,62.1,206.8,61.4,206.3
	L61.4,206.3z M70.7,216.3l-0.4,0.2h-0.5c-0.4-0.3-0.2-1,0-1.4l0.4,0.1l0.5,0.8V216.3z"/>
<path class="st0" d="M129.2,190.6c-2.6,1.4-5.9,1.2-8.9,2.3l-2.1,1.4c-0.7,0.3-1.8-0.1-2.4,0.3s0.4,1.5,0.9,1.7
	c1.5-0.1,3-0.3,4.5-0.6c1.1-0.1,2.2-0.4,3.2-0.8c0.8-0.6,1.6-1,2.5-1.4c2.6-0.7,6.1-0.3,7-2.6v-0.1L129.2,190.6z"/>
<path class="st0" d="M117.3,191.4c-1.2,0.5-2.8,0.6-3,1.9c1.9,0.6,3.9,0.1,5.3-1.4v-0.1C118.9,191.5,118.1,191.3,117.3,191.4z"/>
<path class="st0" d="M104.9,192.1l-2.2,0.3l-1.6,0.6l-4,0.4l-1.2,0.4c-3.2,0.3-7.9-0.5-10.9,0.5l-0.1,0.4l0.4,1.2l3.2-0.1
	c1.9,0.4,3.9,0.5,5.8,0.2c0.5-0.2,1-0.4,1.4-0.7l1.4-0.1c1.2-0.2,2.5-1.3,4.1-0.9l1.1,0.4c1.2-0.8,3-0.9,4-1.9v-0.3
	C105.9,192.2,105.4,192.1,104.9,192.1z"/>
<path class="st0" d="M110.3,194.5l-1.5,0.2l-2.4,0.8c-0.9,0.2-1.8-0.4-3-0.1c-4.2,1-8.5,3.3-14.3,2.4l-5.7-0.4
	c-1.8-0.3-3.2-1.2-5.3-0.8l-0.3,0.5c0.2,2.2,2.1,1.3,3.8,1.7l1.9,0.7c2.2,0.5,6.7,0.3,7.9-0.7c0.6,0.1,0.8,0.6,1.3,0.7
	c0.2,0,5.8-0.4,5.8-0.4c0.6-0.2,1-0.8,1.7-1l3.7-0.1l4.6-1.2c2.3-0.5,5,0.6,6-1.3c0-0.1,0-0.3,0.1-0.4
	C113.1,194.6,111.7,194.3,110.3,194.5z"/>
<path class="st0" d="M126.4,196.8c-0.5-0.4-1.1-0.5-1.7-0.5c-1.2,0.7-2.5,1.1-3.8,1.1l-1.3-0.4c-2.1,1.6-4.2,0.7-7.4,1.3
	c-1.6,0.3-2.9,1-4.2,1.3L93.6,201c-3.9,0.6-12-1.5-13.8,0.8c0.2,1.5,1.8,1.3,3.3,1.6c3.6,0.6,7.1-0.4,10.8-0.4
	c0.9-0.1,1.8-0.3,2.7-0.6l3.8,0.1l1.4-1.1l1.5,0.2c1-0.2,2.1-0.7,3.2-0.9c3.1-0.6,6.7,0.1,9.4-0.6c1.4-0.3,2.3-1.3,3.6-1.6
	c0.6-0.1,0.8,0.4,1.2,0.4l1.2-0.6c1.6-0.3,2.7,0.3,4.1-0.4C126.4,197.6,126.5,197.2,126.4,196.8z"/>
<path class="st0" d="M121.7,200.1l-0.6-0.1c-2.6,1.6-8.8,0-10.2,2.7c0,0.1,0,0.1-0.1,0.2l0.6,0.5c0.9,0.4,1.8-0.4,2.5-0.6
	c2.5-0.6,7.7,0.1,8.2-2.4L121.7,200.1z"/>
<path class="st0" d="M123.7,201.1c-1.2,0.8-3.1,2.5-4.3,2.8l-3.2-0.3c-1,0.3-2,0.6-3,1c-2.6,0.7-5.7,0.1-6.9,2.2
	c0.9,1,4.1,0.3,5.2-0.1c1.4-0.5,2.9-0.8,4.3-1.1l2.2,0.1c1.3-0.3,2.9-1.4,4.5-1.9c1.8-0.5,4.1-0.9,4.7-2.5v-0.1
	C125.9,201.1,124.8,201.1,123.7,201.1z"/>
<path class="st0" d="M37.8,204.2l-0.9,0.1l-3-1.5c-0.7-0.2-1.5,0.3-2.3,0.1l-2.6-0.9c0,0.1,0,0.2-0.1,0.3l3.3,2.7
	c0.9,0.3,2-0.4,3.1,0.1c1.7,0.7,4,2.5,6.3,1.3C41.9,204.5,40,203.9,37.8,204.2z"/>
<path class="st0" d="M108.9,202.9h-0.4l-5,0.4l-12.7,1.9c-0.1,0-0.2,0.1-0.2,0.2l0.7,0.9c1.1,0.1,2.2,0,3.3-0.4l3.5,0.3l1.7-0.9
	l2.3-0.4c3-0.5,5.8,0.4,6.9-1.8C108.9,203.1,108.9,203,108.9,202.9z"/>
<path class="st0" d="M91.7,208.3c-1.5-0.9-4.1,0.7-5.2-0.8v-0.1c0.7-0.9,2.2-0.7,2.7-1.7c0-0.1,0-0.2,0.1-0.3v-0.1
	c-1-0.6-3.1-0.2-4.4-0.1c-0.2,0.6-0.2,1.2-0.2,1.8c-0.3,0.3-0.8,0.3-1.2,0l-0.2-0.1c0.2-0.7,0.9-1,1.1-1.7c-0.4-0.7-0.9-1-2-0.9
	c-2.1,1.7,0,2.4-1.2,3.9c0.1,0.9,1,1.6,1.5,2.2v0.3c-0.3,0.3-0.9,0.5-1.1,0.9c0,0.1,0,0.1-0.1,0.1c0.9,0.7,2.1,1.1,3.3,0.9l0.7-0.6
	c-0.1-0.7-0.4-1.3-0.9-1.7c0.2-0.7,0.4-1.4,0.4-2.2l0.3-0.1l1.2,1.2c1.3,0.8,4.7,0.9,5.4-0.5C91.8,208.6,91.7,208.5,91.7,208.3z"/>
<path class="st0" d="M79.4,204.6l-0.2,0.1c-0.5,0.8,0.2,0.9,0.9,0.7c0.1-0.2,0.2-0.4,0.1-0.6C80,204.6,79.7,204.5,79.4,204.6z"/>
<path class="st0" d="M120.2,206.4c-3.1,1.4-7.1,0.9-10.8,1.9l-2.1,0.9c-1.7,0.6-2.9-0.5-3.2,1.7c0.8,0.6,1.8,0.7,2.7,0.3
	c0.9-0.4,1.8-0.8,2.8-1.1c3.5-0.8,10.1-0.2,11.6-2.7V207C121,206.7,120.6,206.5,120.2,206.4z"/>
<path class="st0" d="M100.4,206.8l-4.8,0.9l-2.7,0.1c-0.2,0.1-0.3,0.5-0.4,0.8c1.3,1.8,3.8,0.4,5.3,0l0.9,0.2
	c1.9,0.4,4.1-0.2,4.3-1.7v-0.1C102.3,206.8,101.3,206.7,100.4,206.8z"/>
<path class="st0" d="M44,211.3c-0.3-0.9,0.8-1.4,1.1-2L45,209c-3.2-0.9-7-1.1-10.3-1.8l-0.1,0.1c0.2,0.7,0.8,0.6,1.4,0.9l1.1,0.9
	c1.9,1,4.2,0.4,5.3,2.2c-0.3,0.6-0.7,0.6-1.5,0.5c0,0.1-0.1,0.2-0.1,0.2c1.2,0.8,4.6,3.6,6.1,1.1C46.2,212,44.5,212.4,44,211.3z"/>
<path class="st0" d="M115.4,211.6l-1.9-0.1c-1.5,0.5-3,0.7-4.5,0.8v0.4l1.3,0.9c2.1,0.6,8.8-2.4,9.2-3.3v-0.1
	C117.5,209.8,116.6,211.3,115.4,211.6z"/>
<path class="st0" d="M100.7,210.3l-2.1,0.3l-4.1,1.2c-1.3-0.1-1.8-1.2-4-0.6c-0.2,0.3-0.3,0.7-0.3,1.1l0.7,0.5
	c0.9,0.2,1.9,0.1,2.7-0.2c2.5-0.6,9.1,0.1,10-2C103.1,210.1,101.7,210.2,100.7,210.3z"/>
<path class="st0" d="M89.5,211.1l-1.4-0.1l-0.7,0.5c0.1,1,1,1,1.8,0.7c0.2-0.3,0.4-0.6,0.4-0.9C89.5,211.2,89.5,211.1,89.5,211.1z"
	/>
<path class="st0" d="M108.1,212.8c-0.2-0.2-0.3-0.3-0.7-0.3l-1.9,1l-3.8,0.1c-0.5,0.1-1,0.3-1.5,0.6l-0.2,0.5
	c2.3,1.7,3.7,0.2,5.8-0.3c1.4-0.4,1.8,0.7,2.5-1.1L108.1,212.8z"/>
<path class="st0" d="M84.2,215.7c0-0.1,0-0.3-0.1-0.4l1.6-1.4v-0.3c-1.1-0.4-2.3-0.6-3.5-0.5l-1.2,0.4c-0.4,1.1-0.5,2.2-0.4,3.4
	c0.8,1.3,6.7,0.3,7.4-0.4v-0.3C86.9,215.8,85.2,216.2,84.2,215.7z"/>
<path class="st0" d="M96.2,214.2c-1.7,0.1-3.7,1.4-5.5,0.7h-0.1c0-0.4,0-0.8,0.1-1.2l-0.3-0.4l-1.6-0.1c-0.2,0.2-0.2,0.1-0.4,0.4
	c0.7,1.3,1.8,1.8,2.4,3.2c2.2,0,3.7-1,5.6-1.4c0.9-0.2,1.7,0.2,2.1-0.4C98.9,214.2,97.1,214.2,96.2,214.2z"/>
<path class="st0" d="M64,214.5c-0.9-0.3-1.9-0.4-2.9-0.4l-0.4,0.2c-0.1,0.4,0,0.9,0.2,1.3c1.1,0.6,2.5,0.3,3.1-0.8
	c0,0,0-0.1,0.1-0.1C64.1,214.7,64,214.6,64,214.5z"/>
</svg>
